%TF.GenerationSoftware,KiCad,Pcbnew,(6.0.11)*%
%TF.CreationDate,2024-09-08T15:44:07-05:00*%
%TF.ProjectId,Plate-Base,506c6174-652d-4426-9173-652e6b696361,3.3*%
%TF.SameCoordinates,Original*%
%TF.FileFunction,Drillmap*%
%TF.FilePolarity,Positive*%
%FSLAX45Y45*%
G04 Gerber Fmt 4.5, Leading zero omitted, Abs format (unit mm)*
G04 Created by KiCad (PCBNEW (6.0.11)) date 2024-09-08 15:44:07*
%MOMM*%
%LPD*%
G01*
G04 APERTURE LIST*
%ADD10C,0.200000*%
G04 APERTURE END LIST*
D10*
X6320364Y-27000903D02*
X6320364Y-26800903D01*
X6367983Y-26800903D01*
X6396555Y-26810427D01*
X6415602Y-26829475D01*
X6425126Y-26848523D01*
X6434650Y-26886618D01*
X6434650Y-26915189D01*
X6425126Y-26953284D01*
X6415602Y-26972332D01*
X6396555Y-26991380D01*
X6367983Y-27000903D01*
X6320364Y-27000903D01*
X6520364Y-27000903D02*
X6520364Y-26867570D01*
X6520364Y-26905665D02*
X6529888Y-26886618D01*
X6539412Y-26877094D01*
X6558459Y-26867570D01*
X6577507Y-26867570D01*
X6644174Y-27000903D02*
X6644174Y-26867570D01*
X6644174Y-26800903D02*
X6634650Y-26810427D01*
X6644174Y-26819951D01*
X6653698Y-26810427D01*
X6644174Y-26800903D01*
X6644174Y-26819951D01*
X6767983Y-27000903D02*
X6748936Y-26991380D01*
X6739412Y-26972332D01*
X6739412Y-26800903D01*
X6872745Y-27000903D02*
X6853698Y-26991380D01*
X6844174Y-26972332D01*
X6844174Y-26800903D01*
X7101317Y-27000903D02*
X7101317Y-26800903D01*
X7167983Y-26943761D01*
X7234650Y-26800903D01*
X7234650Y-27000903D01*
X7415602Y-27000903D02*
X7415602Y-26896142D01*
X7406079Y-26877094D01*
X7387031Y-26867570D01*
X7348936Y-26867570D01*
X7329888Y-26877094D01*
X7415602Y-26991380D02*
X7396555Y-27000903D01*
X7348936Y-27000903D01*
X7329888Y-26991380D01*
X7320364Y-26972332D01*
X7320364Y-26953284D01*
X7329888Y-26934237D01*
X7348936Y-26924713D01*
X7396555Y-26924713D01*
X7415602Y-26915189D01*
X7510840Y-26867570D02*
X7510840Y-27067570D01*
X7510840Y-26877094D02*
X7529888Y-26867570D01*
X7567983Y-26867570D01*
X7587031Y-26877094D01*
X7596555Y-26886618D01*
X7606079Y-26905665D01*
X7606079Y-26962808D01*
X7596555Y-26981856D01*
X7587031Y-26991380D01*
X7567983Y-27000903D01*
X7529888Y-27000903D01*
X7510840Y-26991380D01*
X7691793Y-26981856D02*
X7701317Y-26991380D01*
X7691793Y-27000903D01*
X7682269Y-26991380D01*
X7691793Y-26981856D01*
X7691793Y-27000903D01*
X7691793Y-26877094D02*
X7701317Y-26886618D01*
X7691793Y-26896142D01*
X7682269Y-26886618D01*
X7691793Y-26877094D01*
X7691793Y-26896142D01*
M02*
