%TF.GenerationSoftware,KiCad,Pcbnew,(6.0.11)*%
%TF.CreationDate,2024-09-08T15:44:07-05:00*%
%TF.ProjectId,Plate-Base,506c6174-652d-4426-9173-652e6b696361,3.3*%
%TF.SameCoordinates,Original*%
%TF.FileFunction,Drillmap*%
%TF.FilePolarity,Positive*%
%FSLAX45Y45*%
G04 Gerber Fmt 4.5, Leading zero omitted, Abs format (unit mm)*
G04 Created by KiCad (PCBNEW (6.0.11)) date 2024-09-08 15:44:07*
%MOMM*%
%LPD*%
G01*
G04 APERTURE LIST*
%ADD10C,0.200000*%
%ADD11C,0.076200*%
G04 APERTURE END LIST*
D10*
D11*
X6238245Y-26500320D02*
X6314445Y-26576520D01*
X6314445Y-26500320D02*
X6238245Y-26576520D01*
X6278245Y-13870320D02*
X6354445Y-13946520D01*
X6354445Y-13870320D02*
X6278245Y-13946520D01*
X39568245Y-16340320D02*
X39644445Y-16416520D01*
X39644445Y-16340320D02*
X39568245Y-16416520D01*
D10*
X6320364Y-27000903D02*
X6320364Y-26800903D01*
X6367983Y-26800903D01*
X6396555Y-26810427D01*
X6415602Y-26829475D01*
X6425126Y-26848523D01*
X6434650Y-26886618D01*
X6434650Y-26915189D01*
X6425126Y-26953284D01*
X6415602Y-26972332D01*
X6396555Y-26991380D01*
X6367983Y-27000903D01*
X6320364Y-27000903D01*
X6520364Y-27000903D02*
X6520364Y-26867570D01*
X6520364Y-26905665D02*
X6529888Y-26886618D01*
X6539412Y-26877094D01*
X6558459Y-26867570D01*
X6577507Y-26867570D01*
X6644174Y-27000903D02*
X6644174Y-26867570D01*
X6644174Y-26800903D02*
X6634650Y-26810427D01*
X6644174Y-26819951D01*
X6653698Y-26810427D01*
X6644174Y-26800903D01*
X6644174Y-26819951D01*
X6767983Y-27000903D02*
X6748936Y-26991380D01*
X6739412Y-26972332D01*
X6739412Y-26800903D01*
X6872745Y-27000903D02*
X6853698Y-26991380D01*
X6844174Y-26972332D01*
X6844174Y-26800903D01*
X7101317Y-27000903D02*
X7101317Y-26800903D01*
X7167983Y-26943761D01*
X7234650Y-26800903D01*
X7234650Y-27000903D01*
X7415602Y-27000903D02*
X7415602Y-26896142D01*
X7406079Y-26877094D01*
X7387031Y-26867570D01*
X7348936Y-26867570D01*
X7329888Y-26877094D01*
X7415602Y-26991380D02*
X7396555Y-27000903D01*
X7348936Y-27000903D01*
X7329888Y-26991380D01*
X7320364Y-26972332D01*
X7320364Y-26953284D01*
X7329888Y-26934237D01*
X7348936Y-26924713D01*
X7396555Y-26924713D01*
X7415602Y-26915189D01*
X7510840Y-26867570D02*
X7510840Y-27067570D01*
X7510840Y-26877094D02*
X7529888Y-26867570D01*
X7567983Y-26867570D01*
X7587031Y-26877094D01*
X7596555Y-26886618D01*
X7606079Y-26905665D01*
X7606079Y-26962808D01*
X7596555Y-26981856D01*
X7587031Y-26991380D01*
X7567983Y-27000903D01*
X7529888Y-27000903D01*
X7510840Y-26991380D01*
X7691793Y-26981856D02*
X7701317Y-26991380D01*
X7691793Y-27000903D01*
X7682269Y-26991380D01*
X7691793Y-26981856D01*
X7691793Y-27000903D01*
X7691793Y-26877094D02*
X7701317Y-26886618D01*
X7691793Y-26896142D01*
X7682269Y-26886618D01*
X7691793Y-26877094D01*
X7691793Y-26896142D01*
D11*
X5986545Y-27292327D02*
X6062745Y-27368527D01*
X6062745Y-27292327D02*
X5986545Y-27368527D01*
D10*
X6358459Y-27220903D02*
X6377507Y-27220903D01*
X6396555Y-27230427D01*
X6406079Y-27239951D01*
X6415602Y-27258999D01*
X6425126Y-27297094D01*
X6425126Y-27344713D01*
X6415602Y-27382808D01*
X6406079Y-27401856D01*
X6396555Y-27411380D01*
X6377507Y-27420903D01*
X6358459Y-27420903D01*
X6339412Y-27411380D01*
X6329888Y-27401856D01*
X6320364Y-27382808D01*
X6310840Y-27344713D01*
X6310840Y-27297094D01*
X6320364Y-27258999D01*
X6329888Y-27239951D01*
X6339412Y-27230427D01*
X6358459Y-27220903D01*
X6510840Y-27401856D02*
X6520364Y-27411380D01*
X6510840Y-27420903D01*
X6501317Y-27411380D01*
X6510840Y-27401856D01*
X6510840Y-27420903D01*
X6587031Y-27220903D02*
X6720364Y-27220903D01*
X6634650Y-27420903D01*
X6882269Y-27220903D02*
X6844174Y-27220903D01*
X6825126Y-27230427D01*
X6815602Y-27239951D01*
X6796555Y-27268523D01*
X6787031Y-27306618D01*
X6787031Y-27382808D01*
X6796555Y-27401856D01*
X6806079Y-27411380D01*
X6825126Y-27420903D01*
X6863221Y-27420903D01*
X6882269Y-27411380D01*
X6891793Y-27401856D01*
X6901317Y-27382808D01*
X6901317Y-27335189D01*
X6891793Y-27316142D01*
X6882269Y-27306618D01*
X6863221Y-27297094D01*
X6825126Y-27297094D01*
X6806079Y-27306618D01*
X6796555Y-27316142D01*
X6787031Y-27335189D01*
X6977507Y-27239951D02*
X6987031Y-27230427D01*
X7006079Y-27220903D01*
X7053698Y-27220903D01*
X7072745Y-27230427D01*
X7082269Y-27239951D01*
X7091793Y-27258999D01*
X7091793Y-27278046D01*
X7082269Y-27306618D01*
X6967983Y-27420903D01*
X7091793Y-27420903D01*
X7177507Y-27420903D02*
X7177507Y-27287570D01*
X7177507Y-27306618D02*
X7187031Y-27297094D01*
X7206079Y-27287570D01*
X7234650Y-27287570D01*
X7253698Y-27297094D01*
X7263221Y-27316142D01*
X7263221Y-27420903D01*
X7263221Y-27316142D02*
X7272745Y-27297094D01*
X7291793Y-27287570D01*
X7320364Y-27287570D01*
X7339412Y-27297094D01*
X7348936Y-27316142D01*
X7348936Y-27420903D01*
X7444174Y-27420903D02*
X7444174Y-27287570D01*
X7444174Y-27306618D02*
X7453698Y-27297094D01*
X7472745Y-27287570D01*
X7501317Y-27287570D01*
X7520364Y-27297094D01*
X7529888Y-27316142D01*
X7529888Y-27420903D01*
X7529888Y-27316142D02*
X7539412Y-27297094D01*
X7558459Y-27287570D01*
X7587031Y-27287570D01*
X7606079Y-27297094D01*
X7615602Y-27316142D01*
X7615602Y-27420903D01*
X8006079Y-27211380D02*
X7834650Y-27468523D01*
X8263221Y-27220903D02*
X8282269Y-27220903D01*
X8301317Y-27230427D01*
X8310840Y-27239951D01*
X8320364Y-27258999D01*
X8329888Y-27297094D01*
X8329888Y-27344713D01*
X8320364Y-27382808D01*
X8310840Y-27401856D01*
X8301317Y-27411380D01*
X8282269Y-27420903D01*
X8263221Y-27420903D01*
X8244174Y-27411380D01*
X8234650Y-27401856D01*
X8225126Y-27382808D01*
X8215602Y-27344713D01*
X8215602Y-27297094D01*
X8225126Y-27258999D01*
X8234650Y-27239951D01*
X8244174Y-27230427D01*
X8263221Y-27220903D01*
X8415602Y-27401856D02*
X8425126Y-27411380D01*
X8415602Y-27420903D01*
X8406079Y-27411380D01*
X8415602Y-27401856D01*
X8415602Y-27420903D01*
X8548936Y-27220903D02*
X8567983Y-27220903D01*
X8587031Y-27230427D01*
X8596555Y-27239951D01*
X8606079Y-27258999D01*
X8615602Y-27297094D01*
X8615602Y-27344713D01*
X8606079Y-27382808D01*
X8596555Y-27401856D01*
X8587031Y-27411380D01*
X8567983Y-27420903D01*
X8548936Y-27420903D01*
X8529888Y-27411380D01*
X8520364Y-27401856D01*
X8510841Y-27382808D01*
X8501317Y-27344713D01*
X8501317Y-27297094D01*
X8510841Y-27258999D01*
X8520364Y-27239951D01*
X8529888Y-27230427D01*
X8548936Y-27220903D01*
X8682269Y-27220903D02*
X8806079Y-27220903D01*
X8739412Y-27297094D01*
X8767983Y-27297094D01*
X8787031Y-27306618D01*
X8796555Y-27316142D01*
X8806079Y-27335189D01*
X8806079Y-27382808D01*
X8796555Y-27401856D01*
X8787031Y-27411380D01*
X8767983Y-27420903D01*
X8710841Y-27420903D01*
X8691793Y-27411380D01*
X8682269Y-27401856D01*
X8929888Y-27220903D02*
X8948936Y-27220903D01*
X8967983Y-27230427D01*
X8977507Y-27239951D01*
X8987031Y-27258999D01*
X8996555Y-27297094D01*
X8996555Y-27344713D01*
X8987031Y-27382808D01*
X8977507Y-27401856D01*
X8967983Y-27411380D01*
X8948936Y-27420903D01*
X8929888Y-27420903D01*
X8910841Y-27411380D01*
X8901317Y-27401856D01*
X8891793Y-27382808D01*
X8882269Y-27344713D01*
X8882269Y-27297094D01*
X8891793Y-27258999D01*
X8901317Y-27239951D01*
X8910841Y-27230427D01*
X8929888Y-27220903D01*
X9120364Y-27220903D02*
X9139412Y-27220903D01*
X9158460Y-27230427D01*
X9167983Y-27239951D01*
X9177507Y-27258999D01*
X9187031Y-27297094D01*
X9187031Y-27344713D01*
X9177507Y-27382808D01*
X9167983Y-27401856D01*
X9158460Y-27411380D01*
X9139412Y-27420903D01*
X9120364Y-27420903D01*
X9101317Y-27411380D01*
X9091793Y-27401856D01*
X9082269Y-27382808D01*
X9072745Y-27344713D01*
X9072745Y-27297094D01*
X9082269Y-27258999D01*
X9091793Y-27239951D01*
X9101317Y-27230427D01*
X9120364Y-27220903D01*
X9263221Y-27220903D02*
X9263221Y-27258999D01*
X9339412Y-27220903D02*
X9339412Y-27258999D01*
X9634650Y-27497094D02*
X9625126Y-27487570D01*
X9606079Y-27458999D01*
X9596555Y-27439951D01*
X9587031Y-27411380D01*
X9577507Y-27363761D01*
X9577507Y-27325665D01*
X9587031Y-27278046D01*
X9596555Y-27249475D01*
X9606079Y-27230427D01*
X9625126Y-27201856D01*
X9634650Y-27192332D01*
X9691793Y-27220903D02*
X9815602Y-27220903D01*
X9748936Y-27297094D01*
X9777507Y-27297094D01*
X9796555Y-27306618D01*
X9806079Y-27316142D01*
X9815602Y-27335189D01*
X9815602Y-27382808D01*
X9806079Y-27401856D01*
X9796555Y-27411380D01*
X9777507Y-27420903D01*
X9720364Y-27420903D01*
X9701317Y-27411380D01*
X9691793Y-27401856D01*
X10053698Y-27420903D02*
X10053698Y-27220903D01*
X10139412Y-27420903D02*
X10139412Y-27316142D01*
X10129888Y-27297094D01*
X10110841Y-27287570D01*
X10082269Y-27287570D01*
X10063221Y-27297094D01*
X10053698Y-27306618D01*
X10263221Y-27420903D02*
X10244174Y-27411380D01*
X10234650Y-27401856D01*
X10225126Y-27382808D01*
X10225126Y-27325665D01*
X10234650Y-27306618D01*
X10244174Y-27297094D01*
X10263221Y-27287570D01*
X10291793Y-27287570D01*
X10310841Y-27297094D01*
X10320364Y-27306618D01*
X10329888Y-27325665D01*
X10329888Y-27382808D01*
X10320364Y-27401856D01*
X10310841Y-27411380D01*
X10291793Y-27420903D01*
X10263221Y-27420903D01*
X10444174Y-27420903D02*
X10425126Y-27411380D01*
X10415602Y-27392332D01*
X10415602Y-27220903D01*
X10596555Y-27411380D02*
X10577507Y-27420903D01*
X10539412Y-27420903D01*
X10520364Y-27411380D01*
X10510841Y-27392332D01*
X10510841Y-27316142D01*
X10520364Y-27297094D01*
X10539412Y-27287570D01*
X10577507Y-27287570D01*
X10596555Y-27297094D01*
X10606079Y-27316142D01*
X10606079Y-27335189D01*
X10510841Y-27354237D01*
X10682269Y-27411380D02*
X10701317Y-27420903D01*
X10739412Y-27420903D01*
X10758460Y-27411380D01*
X10767983Y-27392332D01*
X10767983Y-27382808D01*
X10758460Y-27363761D01*
X10739412Y-27354237D01*
X10710841Y-27354237D01*
X10691793Y-27344713D01*
X10682269Y-27325665D01*
X10682269Y-27316142D01*
X10691793Y-27297094D01*
X10710841Y-27287570D01*
X10739412Y-27287570D01*
X10758460Y-27297094D01*
X10834650Y-27497094D02*
X10844174Y-27487570D01*
X10863221Y-27458999D01*
X10872745Y-27439951D01*
X10882269Y-27411380D01*
X10891793Y-27363761D01*
X10891793Y-27325665D01*
X10882269Y-27278046D01*
X10872745Y-27249475D01*
X10863221Y-27230427D01*
X10844174Y-27201856D01*
X10834650Y-27192332D01*
M02*
