G04 #@! TF.GenerationSoftware,KiCad,Pcbnew,(6.0.11)*
G04 #@! TF.CreationDate,2024-09-08T15:44:03-05:00*
G04 #@! TF.ProjectId,Plate-Base,506c6174-652d-4426-9173-652e6b696361,3.3*
G04 #@! TF.SameCoordinates,Original*
G04 #@! TF.FileFunction,Legend,Top*
G04 #@! TF.FilePolarity,Positive*
%FSLAX46Y46*%
G04 Gerber Fmt 4.6, Leading zero omitted, Abs format (unit mm)*
G04 Created by KiCad (PCBNEW (6.0.11)) date 2024-09-08 15:44:03*
%MOMM*%
%LPD*%
G01*
G04 APERTURE LIST*
%ADD10C,0.150000*%
G04 APERTURE END LIST*
D10*
X384646786Y-164191342D02*
X384599167Y-164238961D01*
X384456310Y-164286580D01*
X384361072Y-164286580D01*
X384218214Y-164238961D01*
X384122976Y-164143723D01*
X384075357Y-164048485D01*
X384027738Y-163858009D01*
X384027738Y-163715152D01*
X384075357Y-163524676D01*
X384122976Y-163429438D01*
X384218214Y-163334200D01*
X384361072Y-163286580D01*
X384456310Y-163286580D01*
X384599167Y-163334200D01*
X384646786Y-163381819D01*
X385599167Y-164286580D02*
X385027738Y-164286580D01*
X385313453Y-164286580D02*
X385313453Y-163286580D01*
X385218214Y-163429438D01*
X385122976Y-163524676D01*
X385027738Y-163572295D01*
X385980119Y-163381819D02*
X386027738Y-163334200D01*
X386122976Y-163286580D01*
X386361072Y-163286580D01*
X386456310Y-163334200D01*
X386503929Y-163381819D01*
X386551548Y-163477057D01*
X386551548Y-163572295D01*
X386503929Y-163715152D01*
X385932500Y-164286580D01*
X386551548Y-164286580D01*
X387122976Y-163715152D02*
X387027738Y-163667533D01*
X386980119Y-163619914D01*
X386932500Y-163524676D01*
X386932500Y-163477057D01*
X386980119Y-163381819D01*
X387027738Y-163334200D01*
X387122976Y-163286580D01*
X387313453Y-163286580D01*
X387408691Y-163334200D01*
X387456310Y-163381819D01*
X387503929Y-163477057D01*
X387503929Y-163524676D01*
X387456310Y-163619914D01*
X387408691Y-163667533D01*
X387313453Y-163715152D01*
X387122976Y-163715152D01*
X387027738Y-163762771D01*
X386980119Y-163810390D01*
X386932500Y-163905628D01*
X386932500Y-164096104D01*
X386980119Y-164191342D01*
X387027738Y-164238961D01*
X387122976Y-164286580D01*
X387313453Y-164286580D01*
X387408691Y-164238961D01*
X387456310Y-164191342D01*
X387503929Y-164096104D01*
X387503929Y-163905628D01*
X387456310Y-163810390D01*
X387408691Y-163762771D01*
X387313453Y-163715152D01*
X387932500Y-164286580D02*
X387932500Y-163286580D01*
X388170595Y-163286580D01*
X388313453Y-163334200D01*
X388408691Y-163429438D01*
X388456310Y-163524676D01*
X388503929Y-163715152D01*
X388503929Y-163858009D01*
X388456310Y-164048485D01*
X388408691Y-164143723D01*
X388313453Y-164238961D01*
X388170595Y-164286580D01*
X387932500Y-164286580D01*
X389694405Y-164286580D02*
X389694405Y-163286580D01*
X390075357Y-163286580D01*
X390170595Y-163334200D01*
X390218214Y-163381819D01*
X390265833Y-163477057D01*
X390265833Y-163619914D01*
X390218214Y-163715152D01*
X390170595Y-163762771D01*
X390075357Y-163810390D01*
X389694405Y-163810390D01*
X391170595Y-164286580D02*
X390694405Y-164286580D01*
X390694405Y-163286580D01*
X391456310Y-164000866D02*
X391932500Y-164000866D01*
X391361072Y-164286580D02*
X391694405Y-163286580D01*
X392027738Y-164286580D01*
X392218214Y-163286580D02*
X392789643Y-163286580D01*
X392503929Y-164286580D02*
X392503929Y-163286580D01*
X393122976Y-163762771D02*
X393456310Y-163762771D01*
X393599167Y-164286580D02*
X393122976Y-164286580D01*
X393122976Y-163286580D01*
X393599167Y-163286580D01*
M02*
