G04 #@! TF.GenerationSoftware,KiCad,Pcbnew,7.0.1*
G04 #@! TF.CreationDate,2024-09-21T20:16:09-05:00*
G04 #@! TF.ProjectId,C128DKEYBOARD,43313238-444b-4455-9942-4f4152442e6b,3.3*
G04 #@! TF.SameCoordinates,Original*
G04 #@! TF.FileFunction,AssemblyDrawing,Top*
%FSLAX46Y46*%
G04 Gerber Fmt 4.6, Leading zero omitted, Abs format (unit mm)*
G04 Created by KiCad (PCBNEW 7.0.1) date 2024-09-21 20:16:09*
%MOMM*%
%LPD*%
G01*
G04 APERTURE LIST*
%ADD10C,0.150000*%
%ADD11C,0.100000*%
G04 APERTURE END LIST*
D10*
X89496561Y-245973580D02*
X89448942Y-246021200D01*
X89448942Y-246021200D02*
X89306085Y-246068819D01*
X89306085Y-246068819D02*
X89210847Y-246068819D01*
X89210847Y-246068819D02*
X89067990Y-246021200D01*
X89067990Y-246021200D02*
X88972752Y-245925961D01*
X88972752Y-245925961D02*
X88925133Y-245830723D01*
X88925133Y-245830723D02*
X88877514Y-245640247D01*
X88877514Y-245640247D02*
X88877514Y-245497390D01*
X88877514Y-245497390D02*
X88925133Y-245306914D01*
X88925133Y-245306914D02*
X88972752Y-245211676D01*
X88972752Y-245211676D02*
X89067990Y-245116438D01*
X89067990Y-245116438D02*
X89210847Y-245068819D01*
X89210847Y-245068819D02*
X89306085Y-245068819D01*
X89306085Y-245068819D02*
X89448942Y-245116438D01*
X89448942Y-245116438D02*
X89496561Y-245164057D01*
X89877514Y-245783104D02*
X90353704Y-245783104D01*
X89782276Y-246068819D02*
X90115609Y-245068819D01*
X90115609Y-245068819D02*
X90448942Y-246068819D01*
X90782276Y-246068819D02*
X90782276Y-245068819D01*
X90782276Y-245068819D02*
X91163228Y-245068819D01*
X91163228Y-245068819D02*
X91258466Y-245116438D01*
X91258466Y-245116438D02*
X91306085Y-245164057D01*
X91306085Y-245164057D02*
X91353704Y-245259295D01*
X91353704Y-245259295D02*
X91353704Y-245402152D01*
X91353704Y-245402152D02*
X91306085Y-245497390D01*
X91306085Y-245497390D02*
X91258466Y-245545009D01*
X91258466Y-245545009D02*
X91163228Y-245592628D01*
X91163228Y-245592628D02*
X90782276Y-245592628D01*
X91734657Y-246021200D02*
X91877514Y-246068819D01*
X91877514Y-246068819D02*
X92115609Y-246068819D01*
X92115609Y-246068819D02*
X92210847Y-246021200D01*
X92210847Y-246021200D02*
X92258466Y-245973580D01*
X92258466Y-245973580D02*
X92306085Y-245878342D01*
X92306085Y-245878342D02*
X92306085Y-245783104D01*
X92306085Y-245783104D02*
X92258466Y-245687866D01*
X92258466Y-245687866D02*
X92210847Y-245640247D01*
X92210847Y-245640247D02*
X92115609Y-245592628D01*
X92115609Y-245592628D02*
X91925133Y-245545009D01*
X91925133Y-245545009D02*
X91829895Y-245497390D01*
X91829895Y-245497390D02*
X91782276Y-245449771D01*
X91782276Y-245449771D02*
X91734657Y-245354533D01*
X91734657Y-245354533D02*
X91734657Y-245259295D01*
X91734657Y-245259295D02*
X91782276Y-245164057D01*
X91782276Y-245164057D02*
X91829895Y-245116438D01*
X91829895Y-245116438D02*
X91925133Y-245068819D01*
X91925133Y-245068819D02*
X92163228Y-245068819D01*
X92163228Y-245068819D02*
X92306085Y-245116438D01*
X62407809Y-141878019D02*
X62407809Y-140878019D01*
X62407809Y-140878019D02*
X62788761Y-140878019D01*
X62788761Y-140878019D02*
X62883999Y-140925638D01*
X62883999Y-140925638D02*
X62931618Y-140973257D01*
X62931618Y-140973257D02*
X62979237Y-141068495D01*
X62979237Y-141068495D02*
X62979237Y-141211352D01*
X62979237Y-141211352D02*
X62931618Y-141306590D01*
X62931618Y-141306590D02*
X62883999Y-141354209D01*
X62883999Y-141354209D02*
X62788761Y-141401828D01*
X62788761Y-141401828D02*
X62407809Y-141401828D01*
X63550666Y-141878019D02*
X63455428Y-141830400D01*
X63455428Y-141830400D02*
X63407809Y-141782780D01*
X63407809Y-141782780D02*
X63360190Y-141687542D01*
X63360190Y-141687542D02*
X63360190Y-141401828D01*
X63360190Y-141401828D02*
X63407809Y-141306590D01*
X63407809Y-141306590D02*
X63455428Y-141258971D01*
X63455428Y-141258971D02*
X63550666Y-141211352D01*
X63550666Y-141211352D02*
X63693523Y-141211352D01*
X63693523Y-141211352D02*
X63788761Y-141258971D01*
X63788761Y-141258971D02*
X63836380Y-141306590D01*
X63836380Y-141306590D02*
X63883999Y-141401828D01*
X63883999Y-141401828D02*
X63883999Y-141687542D01*
X63883999Y-141687542D02*
X63836380Y-141782780D01*
X63836380Y-141782780D02*
X63788761Y-141830400D01*
X63788761Y-141830400D02*
X63693523Y-141878019D01*
X63693523Y-141878019D02*
X63550666Y-141878019D01*
X64217333Y-141211352D02*
X64407809Y-141878019D01*
X64407809Y-141878019D02*
X64598285Y-141401828D01*
X64598285Y-141401828D02*
X64788761Y-141878019D01*
X64788761Y-141878019D02*
X64979237Y-141211352D01*
X65741142Y-141830400D02*
X65645904Y-141878019D01*
X65645904Y-141878019D02*
X65455428Y-141878019D01*
X65455428Y-141878019D02*
X65360190Y-141830400D01*
X65360190Y-141830400D02*
X65312571Y-141735161D01*
X65312571Y-141735161D02*
X65312571Y-141354209D01*
X65312571Y-141354209D02*
X65360190Y-141258971D01*
X65360190Y-141258971D02*
X65455428Y-141211352D01*
X65455428Y-141211352D02*
X65645904Y-141211352D01*
X65645904Y-141211352D02*
X65741142Y-141258971D01*
X65741142Y-141258971D02*
X65788761Y-141354209D01*
X65788761Y-141354209D02*
X65788761Y-141449447D01*
X65788761Y-141449447D02*
X65312571Y-141544685D01*
X66217333Y-141878019D02*
X66217333Y-141211352D01*
X66217333Y-141401828D02*
X66264952Y-141306590D01*
X66264952Y-141306590D02*
X66312571Y-141258971D01*
X66312571Y-141258971D02*
X66407809Y-141211352D01*
X66407809Y-141211352D02*
X66503047Y-141211352D01*
X255287457Y-245945000D02*
X255430314Y-245992619D01*
X255430314Y-245992619D02*
X255668409Y-245992619D01*
X255668409Y-245992619D02*
X255763647Y-245945000D01*
X255763647Y-245945000D02*
X255811266Y-245897380D01*
X255811266Y-245897380D02*
X255858885Y-245802142D01*
X255858885Y-245802142D02*
X255858885Y-245706904D01*
X255858885Y-245706904D02*
X255811266Y-245611666D01*
X255811266Y-245611666D02*
X255763647Y-245564047D01*
X255763647Y-245564047D02*
X255668409Y-245516428D01*
X255668409Y-245516428D02*
X255477933Y-245468809D01*
X255477933Y-245468809D02*
X255382695Y-245421190D01*
X255382695Y-245421190D02*
X255335076Y-245373571D01*
X255335076Y-245373571D02*
X255287457Y-245278333D01*
X255287457Y-245278333D02*
X255287457Y-245183095D01*
X255287457Y-245183095D02*
X255335076Y-245087857D01*
X255335076Y-245087857D02*
X255382695Y-245040238D01*
X255382695Y-245040238D02*
X255477933Y-244992619D01*
X255477933Y-244992619D02*
X255716028Y-244992619D01*
X255716028Y-244992619D02*
X255858885Y-245040238D01*
X256287457Y-245992619D02*
X256287457Y-244992619D01*
X256287457Y-245468809D02*
X256858885Y-245468809D01*
X256858885Y-245992619D02*
X256858885Y-244992619D01*
X257335076Y-245992619D02*
X257335076Y-244992619D01*
X258144599Y-245468809D02*
X257811266Y-245468809D01*
X257811266Y-245992619D02*
X257811266Y-244992619D01*
X257811266Y-244992619D02*
X258287456Y-244992619D01*
X258525552Y-244992619D02*
X259096980Y-244992619D01*
X258811266Y-245992619D02*
X258811266Y-244992619D01*
X225147104Y-141287552D02*
X225147104Y-141954219D01*
X224909009Y-140906600D02*
X224670914Y-141620885D01*
X224670914Y-141620885D02*
X225289961Y-141620885D01*
X225861390Y-140954219D02*
X225956628Y-140954219D01*
X225956628Y-140954219D02*
X226051866Y-141001838D01*
X226051866Y-141001838D02*
X226099485Y-141049457D01*
X226099485Y-141049457D02*
X226147104Y-141144695D01*
X226147104Y-141144695D02*
X226194723Y-141335171D01*
X226194723Y-141335171D02*
X226194723Y-141573266D01*
X226194723Y-141573266D02*
X226147104Y-141763742D01*
X226147104Y-141763742D02*
X226099485Y-141858980D01*
X226099485Y-141858980D02*
X226051866Y-141906600D01*
X226051866Y-141906600D02*
X225956628Y-141954219D01*
X225956628Y-141954219D02*
X225861390Y-141954219D01*
X225861390Y-141954219D02*
X225766152Y-141906600D01*
X225766152Y-141906600D02*
X225718533Y-141858980D01*
X225718533Y-141858980D02*
X225670914Y-141763742D01*
X225670914Y-141763742D02*
X225623295Y-141573266D01*
X225623295Y-141573266D02*
X225623295Y-141335171D01*
X225623295Y-141335171D02*
X225670914Y-141144695D01*
X225670914Y-141144695D02*
X225718533Y-141049457D01*
X225718533Y-141049457D02*
X225766152Y-141001838D01*
X225766152Y-141001838D02*
X225861390Y-140954219D01*
X226766152Y-141382790D02*
X226670914Y-141335171D01*
X226670914Y-141335171D02*
X226623295Y-141287552D01*
X226623295Y-141287552D02*
X226575676Y-141192314D01*
X226575676Y-141192314D02*
X226575676Y-141144695D01*
X226575676Y-141144695D02*
X226623295Y-141049457D01*
X226623295Y-141049457D02*
X226670914Y-141001838D01*
X226670914Y-141001838D02*
X226766152Y-140954219D01*
X226766152Y-140954219D02*
X226956628Y-140954219D01*
X226956628Y-140954219D02*
X227051866Y-141001838D01*
X227051866Y-141001838D02*
X227099485Y-141049457D01*
X227099485Y-141049457D02*
X227147104Y-141144695D01*
X227147104Y-141144695D02*
X227147104Y-141192314D01*
X227147104Y-141192314D02*
X227099485Y-141287552D01*
X227099485Y-141287552D02*
X227051866Y-141335171D01*
X227051866Y-141335171D02*
X226956628Y-141382790D01*
X226956628Y-141382790D02*
X226766152Y-141382790D01*
X226766152Y-141382790D02*
X226670914Y-141430409D01*
X226670914Y-141430409D02*
X226623295Y-141478028D01*
X226623295Y-141478028D02*
X226575676Y-141573266D01*
X226575676Y-141573266D02*
X226575676Y-141763742D01*
X226575676Y-141763742D02*
X226623295Y-141858980D01*
X226623295Y-141858980D02*
X226670914Y-141906600D01*
X226670914Y-141906600D02*
X226766152Y-141954219D01*
X226766152Y-141954219D02*
X226956628Y-141954219D01*
X226956628Y-141954219D02*
X227051866Y-141906600D01*
X227051866Y-141906600D02*
X227099485Y-141858980D01*
X227099485Y-141858980D02*
X227147104Y-141763742D01*
X227147104Y-141763742D02*
X227147104Y-141573266D01*
X227147104Y-141573266D02*
X227099485Y-141478028D01*
X227099485Y-141478028D02*
X227051866Y-141430409D01*
X227051866Y-141430409D02*
X226956628Y-141382790D01*
X227766152Y-140954219D02*
X227861390Y-140954219D01*
X227861390Y-140954219D02*
X227956628Y-141001838D01*
X227956628Y-141001838D02*
X228004247Y-141049457D01*
X228004247Y-141049457D02*
X228051866Y-141144695D01*
X228051866Y-141144695D02*
X228099485Y-141335171D01*
X228099485Y-141335171D02*
X228099485Y-141573266D01*
X228099485Y-141573266D02*
X228051866Y-141763742D01*
X228051866Y-141763742D02*
X228004247Y-141858980D01*
X228004247Y-141858980D02*
X227956628Y-141906600D01*
X227956628Y-141906600D02*
X227861390Y-141954219D01*
X227861390Y-141954219D02*
X227766152Y-141954219D01*
X227766152Y-141954219D02*
X227670914Y-141906600D01*
X227670914Y-141906600D02*
X227623295Y-141858980D01*
X227623295Y-141858980D02*
X227575676Y-141763742D01*
X227575676Y-141763742D02*
X227528057Y-141573266D01*
X227528057Y-141573266D02*
X227528057Y-141335171D01*
X227528057Y-141335171D02*
X227575676Y-141144695D01*
X227575676Y-141144695D02*
X227623295Y-141049457D01*
X227623295Y-141049457D02*
X227670914Y-141001838D01*
X227670914Y-141001838D02*
X227766152Y-140954219D01*
D11*
X89091800Y-241480010D02*
X89091800Y-243812390D01*
X89091246Y-243811675D02*
G75*
G03*
X89091801Y-241480010I1500554J1165475D01*
G01*
X92091800Y-242646200D02*
G75*
G03*
X92091800Y-242646200I-1500000J0D01*
G01*
X62884000Y-137289210D02*
X62884000Y-139621590D01*
X62883446Y-139620875D02*
G75*
G03*
X62884001Y-137289210I1500554J1165475D01*
G01*
X65884000Y-138455400D02*
G75*
G03*
X65884000Y-138455400I-1500000J0D01*
G01*
X255644600Y-241403810D02*
X255644600Y-243736190D01*
X255644046Y-243735475D02*
G75*
G03*
X255644601Y-241403810I1500554J1165475D01*
G01*
X258644600Y-242570000D02*
G75*
G03*
X258644600Y-242570000I-1500000J0D01*
G01*
X224885200Y-137365410D02*
X224885200Y-139697790D01*
X224884646Y-139697075D02*
G75*
G03*
X224885201Y-137365410I1500554J1165475D01*
G01*
X227885200Y-138531600D02*
G75*
G03*
X227885200Y-138531600I-1500000J0D01*
G01*
M02*
