G04 #@! TF.GenerationSoftware,KiCad,Pcbnew,7.0.1*
G04 #@! TF.CreationDate,2024-09-21T20:16:09-05:00*
G04 #@! TF.ProjectId,C128DKEYBOARD,43313238-444b-4455-9942-4f4152442e6b,3.3*
G04 #@! TF.SameCoordinates,Original*
G04 #@! TF.FileFunction,Other,User*
%FSLAX46Y46*%
G04 Gerber Fmt 4.6, Leading zero omitted, Abs format (unit mm)*
G04 Created by KiCad (PCBNEW 7.0.1) date 2024-09-21 20:16:09*
%MOMM*%
%LPD*%
G01*
G04 APERTURE LIST*
%ADD10C,0.050000*%
G04 APERTURE END LIST*
D10*
X351258000Y-122299300D02*
X351258000Y-123699300D01*
X351258000Y-123699300D02*
X358258000Y-123699300D01*
X358258000Y-123699300D02*
X358258000Y-127799300D01*
X358258000Y-127799300D02*
X360408000Y-127799300D01*
X358658000Y-116299300D02*
X358658000Y-122299300D01*
X358658000Y-122299300D02*
X351258000Y-122299300D01*
X360408000Y-127799300D02*
X360408000Y-136499300D01*
X360408000Y-136499300D02*
X396258000Y-136499300D01*
X396258000Y-127799300D02*
X398408000Y-127799300D01*
X396258000Y-136499300D02*
X396258000Y-127799300D01*
X398008000Y-116299300D02*
X358658000Y-116299300D01*
X398008000Y-122299300D02*
X398008000Y-116299300D01*
X398408000Y-123699300D02*
X405408000Y-123699300D01*
X398408000Y-127799300D02*
X398408000Y-123699300D01*
X405408000Y-122299300D02*
X398008000Y-122299300D01*
X405408000Y-123699300D02*
X405408000Y-122299300D01*
X237193000Y-149582000D02*
X227473000Y-149582000D01*
X237193000Y-146582000D02*
X237193000Y-149582000D01*
X227473000Y-149582000D02*
X227473000Y-146582000D01*
X227473000Y-146582000D02*
X237193000Y-146582000D01*
X382478000Y-194294000D02*
X382478000Y-204994000D01*
X364028000Y-194294000D02*
X382478000Y-194294000D01*
X382478000Y-204994000D02*
X364028000Y-204994000D01*
X364028000Y-204994000D02*
X364028000Y-194294000D01*
X264311000Y-242985000D02*
X264311000Y-233265000D01*
X267311000Y-242985000D02*
X264311000Y-242985000D01*
X264311000Y-233265000D02*
X267311000Y-233265000D01*
X267311000Y-233265000D02*
X267311000Y-242985000D01*
X355372000Y-221046000D02*
X344672000Y-221046000D01*
X355372000Y-194996000D02*
X355372000Y-221046000D01*
X344672000Y-221046000D02*
X344672000Y-194996000D01*
X344672000Y-194996000D02*
X355372000Y-194996000D01*
X79145000Y-242604000D02*
X79145000Y-232884000D01*
X82145000Y-242604000D02*
X79145000Y-242604000D01*
X79145000Y-232884000D02*
X82145000Y-232884000D01*
X82145000Y-232884000D02*
X82145000Y-242604000D01*
X77690000Y-130580000D02*
X87410000Y-130580000D01*
X77690000Y-133580000D02*
X77690000Y-130580000D01*
X87410000Y-130580000D02*
X87410000Y-133580000D01*
X87410000Y-133580000D02*
X77690000Y-133580000D01*
X357910000Y-201108000D02*
X357910000Y-193608000D01*
X360910000Y-201108000D02*
X357910000Y-201108000D01*
X357910000Y-193608000D02*
X360910000Y-193608000D01*
X360910000Y-193608000D02*
X360910000Y-201108000D01*
X87410000Y-139295000D02*
X77690000Y-139295000D01*
X87410000Y-136295000D02*
X87410000Y-139295000D01*
X77690000Y-139295000D02*
X77690000Y-136295000D01*
X77690000Y-136295000D02*
X87410000Y-136295000D01*
X246023000Y-243239000D02*
X246023000Y-233519000D01*
X249023000Y-243239000D02*
X246023000Y-243239000D01*
X246023000Y-233519000D02*
X249023000Y-233519000D01*
X249023000Y-233519000D02*
X249023000Y-243239000D01*
X251367000Y-149582000D02*
X241647000Y-149582000D01*
X251367000Y-146582000D02*
X251367000Y-149582000D01*
X241647000Y-149582000D02*
X241647000Y-146582000D01*
X241647000Y-146582000D02*
X251367000Y-146582000D01*
M02*
