M48
; DRILL file {KiCad 7.0.1} date Fri Sep 27 18:45:20 2024
; FORMAT={-:-/ absolute / inch / decimal}
; #@! TF.CreationDate,2024-09-27T18:45:20-05:00
; #@! TF.GenerationSoftware,Kicad,Pcbnew,7.0.1
; #@! TF.FileFunction,Plated,1,2,PTH
FMAT,2
INCH
; #@! TA.AperFunction,Plated,PTH,ViaDrill
T1C0.0157
; #@! TA.AperFunction,Plated,PTH,ComponentDrill
T2C0.0315
; #@! TA.AperFunction,Plated,PTH,ComponentDrill
T3C0.0354
; #@! TA.AperFunction,Plated,PTH,ComponentDrill
T4C0.0394
; #@! TA.AperFunction,Plated,PTH,ComponentDrill
T5C0.0590
%
G90
G05
T1
X3.1058Y-6.1305
X5.1311Y-6.6018
X6.3775Y-6.6018
X7.7902Y-5.6371
X8.7199Y-5.6748
X8.8414Y-5.6033
X9.1819Y-5.2397
X9.6292Y-6.9523
X10.8699Y-8.8893
X11.9863Y-8.1005
X12.584Y-6.0895
X12.6095Y-8.1012
X12.6095Y-8.2651
X12.6632Y-7.5189
X13.1031Y-7.7299
X13.5985Y-6.056
X13.6733Y-7.6017
X13.747Y-7.3279
X13.8469Y-6.0105
X14.0431Y-7.8127
X14.0509Y-6.6296
X14.7012Y-5.5721
X14.8527Y-5.4565
X15.2471Y-6.3373
T2
X3.1Y-5.2
X3.1Y-5.425
X3.175Y-9.21
X3.175Y-9.51
X3.4Y-5.2
X3.4Y-5.425
X8.997Y-5.83
X9.297Y-5.83
X9.555Y-5.83
X9.745Y-9.235
X9.745Y-9.535
X9.855Y-5.83
X10.465Y-9.225
X10.465Y-9.525
X13.63Y-7.74
X13.63Y-7.84
X13.63Y-7.94
X13.63Y-8.04
X13.63Y-8.14
X13.63Y-8.24
X13.63Y-8.34
X13.63Y-8.44
X13.63Y-8.54
X13.63Y-8.64
X13.93Y-7.74
X13.93Y-7.84
X13.93Y-7.94
X13.93Y-8.04
X13.93Y-8.14
X13.93Y-8.24
X13.93Y-8.34
X13.93Y-8.44
X13.93Y-8.54
X13.93Y-8.64
X14.15Y-7.6716
X14.15Y-7.8684
X14.3948Y-7.7104
X14.3948Y-8.0104
X14.4948Y-7.7104
X14.4948Y-8.0104
X14.5948Y-7.7104
X14.5948Y-8.0104
X14.6948Y-7.7104
X14.6948Y-8.0104
X14.7948Y-7.7104
X14.7948Y-8.0104
X14.8948Y-7.7104
X14.8948Y-8.0104
X14.9948Y-7.7104
X14.9948Y-8.0104
T3
X2.4848Y-5.451
X2.5848Y-5.451
X3.5166Y-9.553
X3.6166Y-9.553
X8.8628Y-5.454
X8.9628Y-5.454
X10.0738Y-9.55
X10.1738Y-9.55
T4
X13.9305Y-5.3208
X13.985Y-5.2208
X14.0395Y-5.3208
X14.0941Y-5.2208
X14.1486Y-5.3208
X14.2031Y-5.2208
X14.2576Y-5.3208
X14.3122Y-5.2208
X14.3667Y-5.3208
X14.4212Y-5.2208
X14.4757Y-5.3208
X14.5303Y-5.2208
X14.5848Y-5.3208
X14.6393Y-5.2208
X14.6939Y-5.3208
X14.7484Y-5.2208
X14.8029Y-5.3208
X14.8574Y-5.2208
X14.912Y-5.3208
X14.9665Y-5.2208
X15.021Y-5.3208
X15.0756Y-5.2208
X15.1301Y-5.3208
X15.1846Y-5.2208
X15.2391Y-5.3208
T5
X2.3825Y-5.165
X2.3825Y-6.265
X2.476Y-9.265
X2.5697Y-7.015
X2.6325Y-5.065
X2.6325Y-6.165
X2.6635Y-7.765
X2.726Y-9.165
X2.8197Y-6.915
X2.851Y-8.515
X2.9135Y-7.665
X3.101Y-8.415
X3.1325Y-6.265
X3.3825Y-6.165
X3.4134Y-9.265
X3.5075Y-7.015
X3.6634Y-9.165
X3.6945Y-7.765
X3.7575Y-6.915
X3.8825Y-5.165
X3.8825Y-6.265
X3.9445Y-7.665
X4.0695Y-8.515
X4.1325Y-5.065
X4.1325Y-6.165
X4.2575Y-7.015
X4.3195Y-8.415
X4.3508Y-9.265
X4.4445Y-7.765
X4.5075Y-6.915
X4.6008Y-9.165
X4.6325Y-5.165
X4.6325Y-6.265
X4.6945Y-7.665
X4.8195Y-8.515
X4.8825Y-5.065
X4.8825Y-6.165
X5.0075Y-7.015
X5.0695Y-8.415
X5.1945Y-7.765
X5.2575Y-6.915
X5.3825Y-5.165
X5.3825Y-6.265
X5.4445Y-7.665
X5.5695Y-8.515
X5.6325Y-5.065
X5.6325Y-6.165
X5.7575Y-7.015
X5.8195Y-8.415
X5.9445Y-7.765
X6.0075Y-6.915
X6.1325Y-5.165
X6.1325Y-6.265
X6.1945Y-7.665
X6.3195Y-8.515
X6.3825Y-5.065
X6.3825Y-6.165
X6.5075Y-7.015
X6.5695Y-8.415
X6.6945Y-7.765
X6.7575Y-6.915
X6.8825Y-6.265
X6.9445Y-7.665
X7.0695Y-8.515
X7.1325Y-6.165
X7.1632Y-9.265
X7.2575Y-5.165
X7.2575Y-7.015
X7.3195Y-8.415
X7.4132Y-9.165
X7.4445Y-7.765
X7.5075Y-5.065
X7.5075Y-6.915
X7.6325Y-6.265
X7.6945Y-7.665
X7.8195Y-8.515
X7.8825Y-6.165
X8.0075Y-5.165
X8.0075Y-7.015
X8.0695Y-8.415
X8.1945Y-7.765
X8.2575Y-5.065
X8.2575Y-6.915
X8.3825Y-6.265
X8.4445Y-7.665
X8.5695Y-8.515
X8.6325Y-6.165
X8.7575Y-5.165
X8.7575Y-7.015
X8.8195Y-8.415
X8.9445Y-7.765
X9.0075Y-5.065
X9.0075Y-6.915
X9.1325Y-6.265
X9.1945Y-7.665
X9.3195Y-8.515
X9.3825Y-6.165
X9.5075Y-5.165
X9.5075Y-7.015
X9.5695Y-8.415
X9.6945Y-7.765
X9.7575Y-5.065
X9.7575Y-6.915
X9.8825Y-6.265
X9.9445Y-7.665
X9.9758Y-9.265
X10.0695Y-8.515
X10.1325Y-6.165
X10.2258Y-9.165
X10.2575Y-7.015
X10.3195Y-8.415
X10.4445Y-7.765
X10.5075Y-6.915
X10.6325Y-5.165
X10.6325Y-6.265
X10.6945Y-7.665
X10.8195Y-8.515
X10.8825Y-5.065
X10.8825Y-6.165
X10.9132Y-9.265
X11.0075Y-7.015
X11.0695Y-8.415
X11.1632Y-9.165
X11.1945Y-7.765
X11.2575Y-6.915
X11.3825Y-5.165
X11.3825Y-6.265
X11.4445Y-7.665
X11.6325Y-5.065
X11.6325Y-6.165
X11.7575Y-7.015
X11.8506Y-9.265
X12.0075Y-6.915
X12.1006Y-9.165
X12.1325Y-5.165
X12.2256Y-8.515
X12.3825Y-5.065
X12.4132Y-7.765
X12.4756Y-8.415
X12.5075Y-6.265
X12.6632Y-7.665
X12.6949Y-7.015
X12.7575Y-6.165
X12.788Y-9.265
X12.8825Y-5.165
X12.9449Y-6.915
X13.038Y-9.165
X13.1325Y-5.065
X13.8954Y-6.265
X13.8954Y-7.015
X13.8954Y-9.265
X14.1454Y-6.165
X14.1454Y-6.915
X14.1454Y-9.165
X14.6454Y-6.265
X14.6454Y-7.015
X14.6454Y-8.515
X14.6454Y-9.265
X14.8954Y-6.165
X14.8954Y-6.915
X14.8954Y-8.415
X14.8954Y-9.165
X15.3954Y-6.265
X15.3954Y-7.015
X15.3954Y-9.265
X15.6454Y-6.165
X15.6454Y-6.915
X15.6454Y-9.165
T0
M30
