M48
; DRILL file {KiCad 7.0.1} date Sat Sep 21 18:30:58 2024
; FORMAT={-:-/ absolute / inch / decimal}
; #@! TF.CreationDate,2024-09-21T18:30:58-05:00
; #@! TF.GenerationSoftware,Kicad,Pcbnew,7.0.1
; #@! TF.FileFunction,NonPlated,1,2,NPTH
FMAT,2
INCH
; #@! TA.AperFunction,NonPlated,NPTH,ComponentDrill
T1C0.1570
%
G90
G05
T1
X2.5325Y-5.265
X2.5325Y-6.365
X2.626Y-9.365
X2.7197Y-7.115
X2.8135Y-7.865
X3.001Y-8.615
X3.2825Y-6.365
X3.5634Y-9.365
X3.6575Y-7.115
X3.8445Y-7.865
X4.0325Y-5.265
X4.0325Y-6.365
X4.2195Y-8.615
X4.4075Y-7.115
X4.5008Y-9.365
X4.5945Y-7.865
X4.7825Y-5.265
X4.7825Y-6.365
X4.9695Y-8.615
X5.1575Y-7.115
X5.3445Y-7.865
X5.5325Y-5.265
X5.5325Y-6.365
X5.7195Y-8.615
X5.9075Y-7.115
X6.0945Y-7.865
X6.2825Y-5.265
X6.2825Y-6.365
X6.4695Y-8.615
X6.6575Y-7.115
X6.8445Y-7.865
X7.0325Y-6.365
X7.2195Y-8.615
X7.3132Y-9.365
X7.4075Y-5.265
X7.4075Y-7.115
X7.5945Y-7.865
X7.7825Y-6.365
X7.9695Y-8.615
X8.1575Y-5.265
X8.1575Y-7.115
X8.3445Y-7.865
X8.5325Y-6.365
X8.7195Y-8.615
X8.9075Y-5.265
X8.9075Y-7.115
X9.0945Y-7.865
X9.2825Y-6.365
X9.4695Y-8.615
X9.6575Y-5.265
X9.6575Y-7.115
X9.8445Y-7.865
X10.0325Y-6.365
X10.1258Y-9.365
X10.2195Y-8.615
X10.4075Y-7.115
X10.5945Y-7.865
X10.7825Y-5.265
X10.7825Y-6.365
X10.9695Y-8.615
X11.0632Y-9.365
X11.1575Y-7.115
X11.3445Y-7.865
X11.5325Y-5.265
X11.5325Y-6.365
X11.9075Y-7.115
X12.0006Y-9.365
X12.2825Y-5.265
X12.3756Y-8.615
X12.5632Y-7.865
X12.6575Y-6.365
X12.8449Y-7.115
X12.938Y-9.365
X13.0325Y-5.265
X14.1115Y-5.265
X14.1115Y-6.365
X14.1115Y-7.115
X14.1115Y-9.365
X14.8615Y-5.265
X14.8615Y-6.365
X14.8615Y-7.115
X14.8615Y-8.615
X14.8615Y-9.365
X15.6115Y-5.265
X15.6115Y-6.365
X15.6115Y-7.115
X15.6115Y-9.365
X16.691Y-6.363
X16.691Y-7.113
X16.691Y-7.863
X16.691Y-8.613
X17.067Y-9.363
X17.441Y-6.363
X17.441Y-7.113
X17.441Y-7.863
X17.441Y-8.613
X18.191Y-6.363
X18.191Y-7.113
X18.191Y-7.863
X18.191Y-8.613
X18.191Y-9.363
X18.9445Y-6.362
X18.9445Y-7.487
X18.9445Y-8.984
T0
M30
