%TF.GenerationSoftware,KiCad,Pcbnew,7.0.1*%
%TF.CreationDate,2024-09-21T18:30:58-05:00*%
%TF.ProjectId,C128DKEYBOARD,43313238-444b-4455-9942-4f4152442e6b,3.3*%
%TF.SameCoordinates,Original*%
%TF.FileFunction,Drillmap*%
%TF.FilePolarity,Positive*%
%FSLAX45Y45*%
G04 Gerber Fmt 4.5, Leading zero omitted, Abs format (unit mm)*
G04 Created by KiCad (PCBNEW 7.0.1) date 2024-09-21 18:30:58*
%MOMM*%
%LPD*%
G01*
G04 APERTURE LIST*
%ADD10C,0.150000*%
%ADD11C,0.200000*%
%ADD12C,0.040000*%
%ADD13C,0.080000*%
%ADD14C,0.090000*%
%ADD15C,0.100000*%
%ADD16C,0.149860*%
G04 APERTURE END LIST*
D10*
X5421630Y-12321540D02*
X11608830Y-12321600D01*
X45111730Y-12322280D02*
X13406430Y-12321540D01*
X5358130Y-25097740D02*
X5326380Y-25097740D01*
X45111730Y-12322280D02*
X49109630Y-12321540D01*
X49109630Y-12639040D02*
X49109630Y-12575540D01*
X11608830Y-12321600D02*
X13406430Y-12321540D01*
X5326380Y-25021540D02*
X5326380Y-25097740D01*
X5421630Y-12321540D02*
X5358130Y-12321540D01*
X49109630Y-25097740D02*
X49109630Y-12639040D01*
X5358130Y-25097740D02*
X49109630Y-25097740D01*
X49109630Y-12321540D02*
X49109630Y-12575540D01*
X5326380Y-12321540D02*
X5326380Y-25021540D01*
X5326380Y-12321540D02*
X5358130Y-12321540D01*
D11*
D12*
X10792230Y-20888850D02*
X10832230Y-20928850D01*
X10832230Y-20888850D02*
X10792230Y-20928850D01*
X11561780Y-19623470D02*
X11601780Y-19663470D01*
X11601780Y-19623470D02*
X11561780Y-19663470D01*
X17780130Y-19613060D02*
X17820130Y-19653060D01*
X17820130Y-19613060D02*
X17780130Y-19653060D01*
X20670490Y-15744170D02*
X20710490Y-15784170D01*
X20710490Y-15744170D02*
X20670490Y-15784170D01*
X23085610Y-14585410D02*
X23125610Y-14625410D01*
X23125610Y-14585410D02*
X23085610Y-14625410D01*
X23331840Y-14419480D02*
X23371840Y-14459480D01*
X23371840Y-14419480D02*
X23331840Y-14459480D01*
X27970660Y-20186970D02*
X28010660Y-20226970D01*
X28010660Y-20186970D02*
X27970660Y-20226970D01*
X29300580Y-18489510D02*
X29340580Y-18529510D01*
X29340580Y-18489510D02*
X29300580Y-18529510D01*
X29641470Y-16568080D02*
X29681470Y-16608080D01*
X29681470Y-16568080D02*
X29641470Y-16608080D01*
X29713000Y-15275410D02*
X29753000Y-15315410D01*
X29753000Y-15275410D02*
X29713000Y-15315410D01*
X29726680Y-16490060D02*
X29766680Y-16530060D01*
X29766680Y-16490060D02*
X29726680Y-16530060D01*
X32922560Y-22228460D02*
X32962560Y-22268460D01*
X32962560Y-22228460D02*
X32922560Y-22268460D01*
X35442210Y-19689180D02*
X35482210Y-19729180D01*
X35482210Y-19689180D02*
X35442210Y-19729180D01*
X35507630Y-22028430D02*
X35547630Y-22068430D01*
X35547630Y-22028430D02*
X35507630Y-22068430D01*
X35634240Y-13598870D02*
X35674240Y-13638870D01*
X35674240Y-13598870D02*
X35634240Y-13638870D01*
X36041720Y-13698610D02*
X36081720Y-13738610D01*
X36081720Y-13698610D02*
X36041720Y-13738610D01*
X37233310Y-13971770D02*
X37273310Y-14011770D01*
X37273310Y-13971770D02*
X37233310Y-14011770D01*
X38508060Y-15246520D02*
X38548060Y-15286520D01*
X38548060Y-15246520D02*
X38508060Y-15286520D01*
X41874750Y-13264160D02*
X41914750Y-13304160D01*
X41914750Y-13264160D02*
X41874750Y-13304160D01*
X42560150Y-12858360D02*
X42600150Y-12898360D01*
X42600150Y-12858360D02*
X42560150Y-12898360D01*
X43558160Y-14310980D02*
X43598160Y-14350980D01*
X43598160Y-14310980D02*
X43558160Y-14350980D01*
X43605360Y-13796550D02*
X43645360Y-13836550D01*
X43645360Y-13796550D02*
X43605360Y-13836550D01*
X43960100Y-14864400D02*
X44000100Y-14904400D01*
X44000100Y-14864400D02*
X43960100Y-14904400D01*
X44125200Y-14521500D02*
X44165200Y-14561500D01*
X44165200Y-14521500D02*
X44125200Y-14561500D01*
X46124410Y-12780540D02*
X46164410Y-12820540D01*
X46164410Y-12780540D02*
X46124410Y-12820540D01*
X46205450Y-14308720D02*
X46245450Y-14348720D01*
X46245450Y-14308720D02*
X46205450Y-14348720D01*
X46931300Y-17246660D02*
X46971300Y-17286660D01*
X46971300Y-17246660D02*
X46931300Y-17286660D01*
X46978170Y-14140650D02*
X47018170Y-14180650D01*
X47018170Y-14140650D02*
X46978170Y-14180650D01*
X47025310Y-14245160D02*
X47065310Y-14285160D01*
X47065310Y-14245160D02*
X47025310Y-14285160D01*
D13*
X40857720Y-13938380D02*
G75*
G03*
X40857720Y-13938380I-40000J0D01*
G01*
X40867960Y-14406880D02*
G75*
G03*
X40867960Y-14406880I-40000J0D01*
G01*
X41269280Y-12923520D02*
G75*
G03*
X41269280Y-12923520I-40000J0D01*
G01*
X41619720Y-13938380D02*
G75*
G03*
X41619720Y-13938380I-40000J0D01*
G01*
X41629960Y-14406880D02*
G75*
G03*
X41629960Y-14406880I-40000J0D01*
G01*
X41934720Y-13938380D02*
G75*
G03*
X41934720Y-13938380I-40000J0D01*
G01*
X41957620Y-14411960D02*
G75*
G03*
X41957620Y-14411960I-40000J0D01*
G01*
X42031280Y-12923520D02*
G75*
G03*
X42031280Y-12923520I-40000J0D01*
G01*
X42456920Y-12918440D02*
G75*
G03*
X42456920Y-12918440I-40000J0D01*
G01*
X42696720Y-13938380D02*
G75*
G03*
X42696720Y-13938380I-40000J0D01*
G01*
X42719620Y-14411960D02*
G75*
G03*
X42719620Y-14411960I-40000J0D01*
G01*
X42956920Y-12918440D02*
G75*
G03*
X42956920Y-12918440I-40000J0D01*
G01*
X43009180Y-14419580D02*
G75*
G03*
X43009180Y-14419580I-40000J0D01*
G01*
X43011720Y-13938380D02*
G75*
G03*
X43011720Y-13938380I-40000J0D01*
G01*
X43771180Y-14419580D02*
G75*
G03*
X43771180Y-14419580I-40000J0D01*
G01*
X43773720Y-13938380D02*
G75*
G03*
X43773720Y-13938380I-40000J0D01*
G01*
X44472720Y-13986780D02*
G75*
G03*
X44472720Y-13986780I-40000J0D01*
G01*
X44472720Y-14748780D02*
G75*
G03*
X44472720Y-14748780I-40000J0D01*
G01*
X44726720Y-13986780D02*
G75*
G03*
X44726720Y-13986780I-40000J0D01*
G01*
X44726720Y-14748780D02*
G75*
G03*
X44726720Y-14748780I-40000J0D01*
G01*
X44980720Y-13986780D02*
G75*
G03*
X44980720Y-13986780I-40000J0D01*
G01*
X44980720Y-14748780D02*
G75*
G03*
X44980720Y-14748780I-40000J0D01*
G01*
X45234720Y-13986780D02*
G75*
G03*
X45234720Y-13986780I-40000J0D01*
G01*
X45234720Y-14748780D02*
G75*
G03*
X45234720Y-14748780I-40000J0D01*
G01*
X45488720Y-13986780D02*
G75*
G03*
X45488720Y-13986780I-40000J0D01*
G01*
X45488720Y-14748780D02*
G75*
G03*
X45488720Y-14748780I-40000J0D01*
G01*
X45742720Y-13986780D02*
G75*
G03*
X45742720Y-13986780I-40000J0D01*
G01*
X45742720Y-14748780D02*
G75*
G03*
X45742720Y-14748780I-40000J0D01*
G01*
X45996720Y-13986780D02*
G75*
G03*
X45996720Y-13986780I-40000J0D01*
G01*
X45996720Y-14748780D02*
G75*
G03*
X45996720Y-14748780I-40000J0D01*
G01*
X46250720Y-13986780D02*
G75*
G03*
X46250720Y-13986780I-40000J0D01*
G01*
X46250720Y-14748780D02*
G75*
G03*
X46250720Y-14748780I-40000J0D01*
G01*
X46504720Y-13986780D02*
G75*
G03*
X46504720Y-13986780I-40000J0D01*
G01*
X46504720Y-14748780D02*
G75*
G03*
X46504720Y-14748780I-40000J0D01*
G01*
X46758720Y-13986780D02*
G75*
G03*
X46758720Y-13986780I-40000J0D01*
G01*
X46758720Y-14748780D02*
G75*
G03*
X46758720Y-14748780I-40000J0D01*
G01*
X47975880Y-13171940D02*
G75*
G03*
X47975880Y-13171940I-40000J0D01*
G01*
X47975880Y-13425940D02*
G75*
G03*
X47975880Y-13425940I-40000J0D01*
G01*
X47975880Y-13679940D02*
G75*
G03*
X47975880Y-13679940I-40000J0D01*
G01*
X47975880Y-13933940D02*
G75*
G03*
X47975880Y-13933940I-40000J0D01*
G01*
X47975880Y-14187940D02*
G75*
G03*
X47975880Y-14187940I-40000J0D01*
G01*
X47975880Y-14441940D02*
G75*
G03*
X47975880Y-14441940I-40000J0D01*
G01*
X47975880Y-14695940D02*
G75*
G03*
X47975880Y-14695940I-40000J0D01*
G01*
X48737880Y-13171940D02*
G75*
G03*
X48737880Y-13171940I-40000J0D01*
G01*
X48737880Y-13425940D02*
G75*
G03*
X48737880Y-13425940I-40000J0D01*
G01*
X48737880Y-13679940D02*
G75*
G03*
X48737880Y-13679940I-40000J0D01*
G01*
X48737880Y-13933940D02*
G75*
G03*
X48737880Y-13933940I-40000J0D01*
G01*
X48737880Y-14187940D02*
G75*
G03*
X48737880Y-14187940I-40000J0D01*
G01*
X48737880Y-14441940D02*
G75*
G03*
X48737880Y-14441940I-40000J0D01*
G01*
X48737880Y-14695940D02*
G75*
G03*
X48737880Y-14695940I-40000J0D01*
G01*
D14*
X6311400Y-13800540D02*
X6311400Y-13890540D01*
X6266400Y-13845540D02*
X6356400Y-13845540D01*
X6565400Y-13800540D02*
X6565400Y-13890540D01*
X6520400Y-13845540D02*
X6610400Y-13845540D01*
X8932180Y-24219620D02*
X8932180Y-24309620D01*
X8887180Y-24264620D02*
X8977180Y-24264620D01*
X9186180Y-24219620D02*
X9186180Y-24309620D01*
X9141180Y-24264620D02*
X9231180Y-24264620D01*
X22511520Y-13808160D02*
X22511520Y-13898160D01*
X22466520Y-13853160D02*
X22556520Y-13853160D01*
X22765520Y-13808160D02*
X22765520Y-13898160D01*
X22720520Y-13853160D02*
X22810520Y-13853160D01*
X25587460Y-24212000D02*
X25587460Y-24302000D01*
X25542460Y-24257000D02*
X25632460Y-24257000D01*
X25841460Y-24212000D02*
X25841460Y-24302000D01*
X25796460Y-24257000D02*
X25886460Y-24257000D01*
D15*
X44026816Y-13562986D02*
X44026816Y-13492274D01*
X43956104Y-13492274D01*
X43956104Y-13562986D01*
X44026816Y-13562986D01*
X44165316Y-13308986D02*
X44165316Y-13238274D01*
X44094604Y-13238274D01*
X44094604Y-13308986D01*
X44165316Y-13308986D01*
X44303816Y-13562986D02*
X44303816Y-13492274D01*
X44233104Y-13492274D01*
X44233104Y-13562986D01*
X44303816Y-13562986D01*
X44442316Y-13308986D02*
X44442316Y-13238274D01*
X44371604Y-13238274D01*
X44371604Y-13308986D01*
X44442316Y-13308986D01*
X44580816Y-13562986D02*
X44580816Y-13492274D01*
X44510104Y-13492274D01*
X44510104Y-13562986D01*
X44580816Y-13562986D01*
X44719316Y-13308986D02*
X44719316Y-13238274D01*
X44648604Y-13238274D01*
X44648604Y-13308986D01*
X44719316Y-13308986D01*
X44857816Y-13562986D02*
X44857816Y-13492274D01*
X44787104Y-13492274D01*
X44787104Y-13562986D01*
X44857816Y-13562986D01*
X44996316Y-13308986D02*
X44996316Y-13238274D01*
X44925604Y-13238274D01*
X44925604Y-13308986D01*
X44996316Y-13308986D01*
X45134816Y-13562986D02*
X45134816Y-13492274D01*
X45064104Y-13492274D01*
X45064104Y-13562986D01*
X45134816Y-13562986D01*
X45273316Y-13308986D02*
X45273316Y-13238274D01*
X45202604Y-13238274D01*
X45202604Y-13308986D01*
X45273316Y-13308986D01*
X45411816Y-13562986D02*
X45411816Y-13492274D01*
X45341104Y-13492274D01*
X45341104Y-13562986D01*
X45411816Y-13562986D01*
X45550316Y-13308986D02*
X45550316Y-13238274D01*
X45479604Y-13238274D01*
X45479604Y-13308986D01*
X45550316Y-13308986D01*
X45688816Y-13562986D02*
X45688816Y-13492274D01*
X45618104Y-13492274D01*
X45618104Y-13562986D01*
X45688816Y-13562986D01*
X45827316Y-13308986D02*
X45827316Y-13238274D01*
X45756604Y-13238274D01*
X45756604Y-13308986D01*
X45827316Y-13308986D01*
X45965816Y-13562986D02*
X45965816Y-13492274D01*
X45895104Y-13492274D01*
X45895104Y-13562986D01*
X45965816Y-13562986D01*
X46104316Y-13308986D02*
X46104316Y-13238274D01*
X46033604Y-13238274D01*
X46033604Y-13308986D01*
X46104316Y-13308986D01*
X46242816Y-13562986D02*
X46242816Y-13492274D01*
X46172104Y-13492274D01*
X46172104Y-13562986D01*
X46242816Y-13562986D01*
X46381316Y-13308986D02*
X46381316Y-13238274D01*
X46310604Y-13238274D01*
X46310604Y-13308986D01*
X46381316Y-13308986D01*
X46519816Y-13562986D02*
X46519816Y-13492274D01*
X46449104Y-13492274D01*
X46449104Y-13562986D01*
X46519816Y-13562986D01*
X46658316Y-13308986D02*
X46658316Y-13238274D01*
X46587604Y-13238274D01*
X46587604Y-13308986D01*
X46658316Y-13308986D01*
X46796816Y-13562986D02*
X46796816Y-13492274D01*
X46726104Y-13492274D01*
X46726104Y-13562986D01*
X46796816Y-13562986D01*
X46935316Y-13308986D02*
X46935316Y-13238274D01*
X46864604Y-13238274D01*
X46864604Y-13308986D01*
X46935316Y-13308986D01*
X47073816Y-13562986D02*
X47073816Y-13492274D01*
X47003104Y-13492274D01*
X47003104Y-13562986D01*
X47073816Y-13562986D01*
X47212316Y-13308986D02*
X47212316Y-13238274D01*
X47141604Y-13238274D01*
X47141604Y-13308986D01*
X47212316Y-13308986D01*
X47350816Y-13562986D02*
X47350816Y-13492274D01*
X47280104Y-13492274D01*
X47280104Y-13562986D01*
X47350816Y-13562986D01*
D16*
X6051550Y-13194030D02*
X6126480Y-13119100D01*
X6051550Y-13044170D01*
X5976620Y-13119100D01*
X6051550Y-13194030D01*
X6051550Y-15988030D02*
X6126480Y-15913100D01*
X6051550Y-15838170D01*
X5976620Y-15913100D01*
X6051550Y-15988030D01*
X6289050Y-23608030D02*
X6363980Y-23533100D01*
X6289050Y-23458170D01*
X6214120Y-23533100D01*
X6289050Y-23608030D01*
X6527050Y-17893030D02*
X6601980Y-17818100D01*
X6527050Y-17743170D01*
X6452120Y-17818100D01*
X6527050Y-17893030D01*
X6686550Y-12940030D02*
X6761480Y-12865100D01*
X6686550Y-12790170D01*
X6611620Y-12865100D01*
X6686550Y-12940030D01*
X6686550Y-15734030D02*
X6761480Y-15659100D01*
X6686550Y-15584170D01*
X6611620Y-15659100D01*
X6686550Y-15734030D01*
X6765350Y-19798030D02*
X6840280Y-19723100D01*
X6765350Y-19648170D01*
X6690420Y-19723100D01*
X6765350Y-19798030D01*
X6924050Y-23354030D02*
X6998980Y-23279100D01*
X6924050Y-23204170D01*
X6849120Y-23279100D01*
X6924050Y-23354030D01*
X7162050Y-17639030D02*
X7236980Y-17564100D01*
X7162050Y-17489170D01*
X7087120Y-17564100D01*
X7162050Y-17639030D01*
X7241550Y-21703030D02*
X7316480Y-21628100D01*
X7241550Y-21553170D01*
X7166620Y-21628100D01*
X7241550Y-21703030D01*
X7400350Y-19544030D02*
X7475280Y-19469100D01*
X7400350Y-19394170D01*
X7325420Y-19469100D01*
X7400350Y-19544030D01*
X7876550Y-21449030D02*
X7951480Y-21374100D01*
X7876550Y-21299170D01*
X7801620Y-21374100D01*
X7876550Y-21449030D01*
X7956550Y-15988030D02*
X8031480Y-15913100D01*
X7956550Y-15838170D01*
X7881620Y-15913100D01*
X7956550Y-15988030D01*
X8591550Y-15734030D02*
X8666480Y-15659100D01*
X8591550Y-15584170D01*
X8516620Y-15659100D01*
X8591550Y-15734030D01*
X8670050Y-23608030D02*
X8744980Y-23533100D01*
X8670050Y-23458170D01*
X8595120Y-23533100D01*
X8670050Y-23608030D01*
X8909050Y-17893030D02*
X8983980Y-17818100D01*
X8909050Y-17743170D01*
X8834120Y-17818100D01*
X8909050Y-17893030D01*
X9305050Y-23354030D02*
X9379980Y-23279100D01*
X9305050Y-23204170D01*
X9230120Y-23279100D01*
X9305050Y-23354030D01*
X9384050Y-19798030D02*
X9458980Y-19723100D01*
X9384050Y-19648170D01*
X9309120Y-19723100D01*
X9384050Y-19798030D01*
X9544050Y-17639030D02*
X9618980Y-17564100D01*
X9544050Y-17489170D01*
X9469120Y-17564100D01*
X9544050Y-17639030D01*
X9861550Y-13194030D02*
X9936480Y-13119100D01*
X9861550Y-13044170D01*
X9786620Y-13119100D01*
X9861550Y-13194030D01*
X9861550Y-15988030D02*
X9936480Y-15913100D01*
X9861550Y-15838170D01*
X9786620Y-15913100D01*
X9861550Y-15988030D01*
X10019050Y-19544030D02*
X10093980Y-19469100D01*
X10019050Y-19394170D01*
X9944120Y-19469100D01*
X10019050Y-19544030D01*
X10336550Y-21703030D02*
X10411480Y-21628100D01*
X10336550Y-21553170D01*
X10261620Y-21628100D01*
X10336550Y-21703030D01*
X10496550Y-12940030D02*
X10571480Y-12865100D01*
X10496550Y-12790170D01*
X10421620Y-12865100D01*
X10496550Y-12940030D01*
X10496550Y-15734030D02*
X10571480Y-15659100D01*
X10496550Y-15584170D01*
X10421620Y-15659100D01*
X10496550Y-15734030D01*
X10814050Y-17893030D02*
X10888980Y-17818100D01*
X10814050Y-17743170D01*
X10739120Y-17818100D01*
X10814050Y-17893030D01*
X10971550Y-21449030D02*
X11046480Y-21374100D01*
X10971550Y-21299170D01*
X10896620Y-21374100D01*
X10971550Y-21449030D01*
X11051050Y-23608030D02*
X11125980Y-23533100D01*
X11051050Y-23458170D01*
X10976120Y-23533100D01*
X11051050Y-23608030D01*
X11289050Y-19798030D02*
X11363980Y-19723100D01*
X11289050Y-19648170D01*
X11214120Y-19723100D01*
X11289050Y-19798030D01*
X11449050Y-17639030D02*
X11523980Y-17564100D01*
X11449050Y-17489170D01*
X11374120Y-17564100D01*
X11449050Y-17639030D01*
X11686050Y-23354030D02*
X11760980Y-23279100D01*
X11686050Y-23204170D01*
X11611120Y-23279100D01*
X11686050Y-23354030D01*
X11766550Y-13194030D02*
X11841480Y-13119100D01*
X11766550Y-13044170D01*
X11691620Y-13119100D01*
X11766550Y-13194030D01*
X11766550Y-15988030D02*
X11841480Y-15913100D01*
X11766550Y-15838170D01*
X11691620Y-15913100D01*
X11766550Y-15988030D01*
X11924050Y-19544030D02*
X11998980Y-19469100D01*
X11924050Y-19394170D01*
X11849120Y-19469100D01*
X11924050Y-19544030D01*
X12241550Y-21703030D02*
X12316480Y-21628100D01*
X12241550Y-21553170D01*
X12166620Y-21628100D01*
X12241550Y-21703030D01*
X12401550Y-12940030D02*
X12476480Y-12865100D01*
X12401550Y-12790170D01*
X12326620Y-12865100D01*
X12401550Y-12940030D01*
X12401550Y-15734030D02*
X12476480Y-15659100D01*
X12401550Y-15584170D01*
X12326620Y-15659100D01*
X12401550Y-15734030D01*
X12719050Y-17893030D02*
X12793980Y-17818100D01*
X12719050Y-17743170D01*
X12644120Y-17818100D01*
X12719050Y-17893030D01*
X12876550Y-21449030D02*
X12951480Y-21374100D01*
X12876550Y-21299170D01*
X12801620Y-21374100D01*
X12876550Y-21449030D01*
X13194050Y-19798030D02*
X13268980Y-19723100D01*
X13194050Y-19648170D01*
X13119120Y-19723100D01*
X13194050Y-19798030D01*
X13354050Y-17639030D02*
X13428980Y-17564100D01*
X13354050Y-17489170D01*
X13279120Y-17564100D01*
X13354050Y-17639030D01*
X13671550Y-13194030D02*
X13746480Y-13119100D01*
X13671550Y-13044170D01*
X13596620Y-13119100D01*
X13671550Y-13194030D01*
X13671550Y-15988030D02*
X13746480Y-15913100D01*
X13671550Y-15838170D01*
X13596620Y-15913100D01*
X13671550Y-15988030D01*
X13829050Y-19544030D02*
X13903980Y-19469100D01*
X13829050Y-19394170D01*
X13754120Y-19469100D01*
X13829050Y-19544030D01*
X14146550Y-21703030D02*
X14221480Y-21628100D01*
X14146550Y-21553170D01*
X14071620Y-21628100D01*
X14146550Y-21703030D01*
X14306550Y-12940030D02*
X14381480Y-12865100D01*
X14306550Y-12790170D01*
X14231620Y-12865100D01*
X14306550Y-12940030D01*
X14306550Y-15734030D02*
X14381480Y-15659100D01*
X14306550Y-15584170D01*
X14231620Y-15659100D01*
X14306550Y-15734030D01*
X14624050Y-17893030D02*
X14698980Y-17818100D01*
X14624050Y-17743170D01*
X14549120Y-17818100D01*
X14624050Y-17893030D01*
X14781550Y-21449030D02*
X14856480Y-21374100D01*
X14781550Y-21299170D01*
X14706620Y-21374100D01*
X14781550Y-21449030D01*
X15099050Y-19798030D02*
X15173980Y-19723100D01*
X15099050Y-19648170D01*
X15024120Y-19723100D01*
X15099050Y-19798030D01*
X15259050Y-17639030D02*
X15333980Y-17564100D01*
X15259050Y-17489170D01*
X15184120Y-17564100D01*
X15259050Y-17639030D01*
X15576550Y-13194030D02*
X15651480Y-13119100D01*
X15576550Y-13044170D01*
X15501620Y-13119100D01*
X15576550Y-13194030D01*
X15576550Y-15988030D02*
X15651480Y-15913100D01*
X15576550Y-15838170D01*
X15501620Y-15913100D01*
X15576550Y-15988030D01*
X15734050Y-19544030D02*
X15808980Y-19469100D01*
X15734050Y-19394170D01*
X15659120Y-19469100D01*
X15734050Y-19544030D01*
X16051550Y-21703030D02*
X16126480Y-21628100D01*
X16051550Y-21553170D01*
X15976620Y-21628100D01*
X16051550Y-21703030D01*
X16211550Y-12940030D02*
X16286480Y-12865100D01*
X16211550Y-12790170D01*
X16136620Y-12865100D01*
X16211550Y-12940030D01*
X16211550Y-15734030D02*
X16286480Y-15659100D01*
X16211550Y-15584170D01*
X16136620Y-15659100D01*
X16211550Y-15734030D01*
X16529050Y-17893030D02*
X16603980Y-17818100D01*
X16529050Y-17743170D01*
X16454120Y-17818100D01*
X16529050Y-17893030D01*
X16686550Y-21449030D02*
X16761480Y-21374100D01*
X16686550Y-21299170D01*
X16611620Y-21374100D01*
X16686550Y-21449030D01*
X17004050Y-19798030D02*
X17078980Y-19723100D01*
X17004050Y-19648170D01*
X16929120Y-19723100D01*
X17004050Y-19798030D01*
X17164050Y-17639030D02*
X17238980Y-17564100D01*
X17164050Y-17489170D01*
X17089120Y-17564100D01*
X17164050Y-17639030D01*
X17481550Y-15988030D02*
X17556480Y-15913100D01*
X17481550Y-15838170D01*
X17406620Y-15913100D01*
X17481550Y-15988030D01*
X17639050Y-19544030D02*
X17713980Y-19469100D01*
X17639050Y-19394170D01*
X17564120Y-19469100D01*
X17639050Y-19544030D01*
X17956550Y-21703030D02*
X18031480Y-21628100D01*
X17956550Y-21553170D01*
X17881620Y-21628100D01*
X17956550Y-21703030D01*
X18116550Y-15734030D02*
X18191480Y-15659100D01*
X18116550Y-15584170D01*
X18041620Y-15659100D01*
X18116550Y-15734030D01*
X18194550Y-23608030D02*
X18269480Y-23533100D01*
X18194550Y-23458170D01*
X18119620Y-23533100D01*
X18194550Y-23608030D01*
X18434050Y-13194030D02*
X18508980Y-13119100D01*
X18434050Y-13044170D01*
X18359120Y-13119100D01*
X18434050Y-13194030D01*
X18434050Y-17893030D02*
X18508980Y-17818100D01*
X18434050Y-17743170D01*
X18359120Y-17818100D01*
X18434050Y-17893030D01*
X18591550Y-21449030D02*
X18666480Y-21374100D01*
X18591550Y-21299170D01*
X18516620Y-21374100D01*
X18591550Y-21449030D01*
X18829550Y-23354030D02*
X18904480Y-23279100D01*
X18829550Y-23204170D01*
X18754620Y-23279100D01*
X18829550Y-23354030D01*
X18909050Y-19798030D02*
X18983980Y-19723100D01*
X18909050Y-19648170D01*
X18834120Y-19723100D01*
X18909050Y-19798030D01*
X19069050Y-12940030D02*
X19143980Y-12865100D01*
X19069050Y-12790170D01*
X18994120Y-12865100D01*
X19069050Y-12940030D01*
X19069050Y-17639030D02*
X19143980Y-17564100D01*
X19069050Y-17489170D01*
X18994120Y-17564100D01*
X19069050Y-17639030D01*
X19386550Y-15988030D02*
X19461480Y-15913100D01*
X19386550Y-15838170D01*
X19311620Y-15913100D01*
X19386550Y-15988030D01*
X19544050Y-19544030D02*
X19618980Y-19469100D01*
X19544050Y-19394170D01*
X19469120Y-19469100D01*
X19544050Y-19544030D01*
X19861550Y-21703030D02*
X19936480Y-21628100D01*
X19861550Y-21553170D01*
X19786620Y-21628100D01*
X19861550Y-21703030D01*
X20021550Y-15734030D02*
X20096480Y-15659100D01*
X20021550Y-15584170D01*
X19946620Y-15659100D01*
X20021550Y-15734030D01*
X20339050Y-13194030D02*
X20413980Y-13119100D01*
X20339050Y-13044170D01*
X20264120Y-13119100D01*
X20339050Y-13194030D01*
X20339050Y-17893030D02*
X20413980Y-17818100D01*
X20339050Y-17743170D01*
X20264120Y-17818100D01*
X20339050Y-17893030D01*
X20496550Y-21449030D02*
X20571480Y-21374100D01*
X20496550Y-21299170D01*
X20421620Y-21374100D01*
X20496550Y-21449030D01*
X20814050Y-19798030D02*
X20888980Y-19723100D01*
X20814050Y-19648170D01*
X20739120Y-19723100D01*
X20814050Y-19798030D01*
X20974050Y-12940030D02*
X21048980Y-12865100D01*
X20974050Y-12790170D01*
X20899120Y-12865100D01*
X20974050Y-12940030D01*
X20974050Y-17639030D02*
X21048980Y-17564100D01*
X20974050Y-17489170D01*
X20899120Y-17564100D01*
X20974050Y-17639030D01*
X21291550Y-15988030D02*
X21366480Y-15913100D01*
X21291550Y-15838170D01*
X21216620Y-15913100D01*
X21291550Y-15988030D01*
X21449050Y-19544030D02*
X21523980Y-19469100D01*
X21449050Y-19394170D01*
X21374120Y-19469100D01*
X21449050Y-19544030D01*
X21766550Y-21703030D02*
X21841480Y-21628100D01*
X21766550Y-21553170D01*
X21691620Y-21628100D01*
X21766550Y-21703030D01*
X21926550Y-15734030D02*
X22001480Y-15659100D01*
X21926550Y-15584170D01*
X21851620Y-15659100D01*
X21926550Y-15734030D01*
X22244050Y-13194030D02*
X22318980Y-13119100D01*
X22244050Y-13044170D01*
X22169120Y-13119100D01*
X22244050Y-13194030D01*
X22244050Y-17893030D02*
X22318980Y-17818100D01*
X22244050Y-17743170D01*
X22169120Y-17818100D01*
X22244050Y-17893030D01*
X22401550Y-21449030D02*
X22476480Y-21374100D01*
X22401550Y-21299170D01*
X22326620Y-21374100D01*
X22401550Y-21449030D01*
X22719050Y-19798030D02*
X22793980Y-19723100D01*
X22719050Y-19648170D01*
X22644120Y-19723100D01*
X22719050Y-19798030D01*
X22879050Y-12940030D02*
X22953980Y-12865100D01*
X22879050Y-12790170D01*
X22804120Y-12865100D01*
X22879050Y-12940030D01*
X22879050Y-17639030D02*
X22953980Y-17564100D01*
X22879050Y-17489170D01*
X22804120Y-17564100D01*
X22879050Y-17639030D01*
X23196550Y-15988030D02*
X23271480Y-15913100D01*
X23196550Y-15838170D01*
X23121620Y-15913100D01*
X23196550Y-15988030D01*
X23354050Y-19544030D02*
X23428980Y-19469100D01*
X23354050Y-19394170D01*
X23279120Y-19469100D01*
X23354050Y-19544030D01*
X23671550Y-21703030D02*
X23746480Y-21628100D01*
X23671550Y-21553170D01*
X23596620Y-21628100D01*
X23671550Y-21703030D01*
X23831550Y-15734030D02*
X23906480Y-15659100D01*
X23831550Y-15584170D01*
X23756620Y-15659100D01*
X23831550Y-15734030D01*
X24149050Y-13194030D02*
X24223980Y-13119100D01*
X24149050Y-13044170D01*
X24074120Y-13119100D01*
X24149050Y-13194030D01*
X24149050Y-17893030D02*
X24223980Y-17818100D01*
X24149050Y-17743170D01*
X24074120Y-17818100D01*
X24149050Y-17893030D01*
X24306550Y-21449030D02*
X24381480Y-21374100D01*
X24306550Y-21299170D01*
X24231620Y-21374100D01*
X24306550Y-21449030D01*
X24624050Y-19798030D02*
X24698980Y-19723100D01*
X24624050Y-19648170D01*
X24549120Y-19723100D01*
X24624050Y-19798030D01*
X24784050Y-12940030D02*
X24858980Y-12865100D01*
X24784050Y-12790170D01*
X24709120Y-12865100D01*
X24784050Y-12940030D01*
X24784050Y-17639030D02*
X24858980Y-17564100D01*
X24784050Y-17489170D01*
X24709120Y-17564100D01*
X24784050Y-17639030D01*
X25101550Y-15988030D02*
X25176480Y-15913100D01*
X25101550Y-15838170D01*
X25026620Y-15913100D01*
X25101550Y-15988030D01*
X25259050Y-19544030D02*
X25333980Y-19469100D01*
X25259050Y-19394170D01*
X25184120Y-19469100D01*
X25259050Y-19544030D01*
X25338550Y-23608030D02*
X25413480Y-23533100D01*
X25338550Y-23458170D01*
X25263620Y-23533100D01*
X25338550Y-23608030D01*
X25576550Y-21703030D02*
X25651480Y-21628100D01*
X25576550Y-21553170D01*
X25501620Y-21628100D01*
X25576550Y-21703030D01*
X25736550Y-15734030D02*
X25811480Y-15659100D01*
X25736550Y-15584170D01*
X25661620Y-15659100D01*
X25736550Y-15734030D01*
X25973550Y-23354030D02*
X26048480Y-23279100D01*
X25973550Y-23204170D01*
X25898620Y-23279100D01*
X25973550Y-23354030D01*
X26054050Y-17893030D02*
X26128980Y-17818100D01*
X26054050Y-17743170D01*
X25979120Y-17818100D01*
X26054050Y-17893030D01*
X26211550Y-21449030D02*
X26286480Y-21374100D01*
X26211550Y-21299170D01*
X26136620Y-21374100D01*
X26211550Y-21449030D01*
X26529050Y-19798030D02*
X26603980Y-19723100D01*
X26529050Y-19648170D01*
X26454120Y-19723100D01*
X26529050Y-19798030D01*
X26689050Y-17639030D02*
X26763980Y-17564100D01*
X26689050Y-17489170D01*
X26614120Y-17564100D01*
X26689050Y-17639030D01*
X27006550Y-13194030D02*
X27081480Y-13119100D01*
X27006550Y-13044170D01*
X26931620Y-13119100D01*
X27006550Y-13194030D01*
X27006550Y-15988030D02*
X27081480Y-15913100D01*
X27006550Y-15838170D01*
X26931620Y-15913100D01*
X27006550Y-15988030D01*
X27164050Y-19544030D02*
X27238980Y-19469100D01*
X27164050Y-19394170D01*
X27089120Y-19469100D01*
X27164050Y-19544030D01*
X27481550Y-21703030D02*
X27556480Y-21628100D01*
X27481550Y-21553170D01*
X27406620Y-21628100D01*
X27481550Y-21703030D01*
X27641550Y-12940030D02*
X27716480Y-12865100D01*
X27641550Y-12790170D01*
X27566620Y-12865100D01*
X27641550Y-12940030D01*
X27641550Y-15734030D02*
X27716480Y-15659100D01*
X27641550Y-15584170D01*
X27566620Y-15659100D01*
X27641550Y-15734030D01*
X27719550Y-23608030D02*
X27794480Y-23533100D01*
X27719550Y-23458170D01*
X27644620Y-23533100D01*
X27719550Y-23608030D01*
X27959050Y-17893030D02*
X28033980Y-17818100D01*
X27959050Y-17743170D01*
X27884120Y-17818100D01*
X27959050Y-17893030D01*
X28116550Y-21449030D02*
X28191480Y-21374100D01*
X28116550Y-21299170D01*
X28041620Y-21374100D01*
X28116550Y-21449030D01*
X28354550Y-23354030D02*
X28429480Y-23279100D01*
X28354550Y-23204170D01*
X28279620Y-23279100D01*
X28354550Y-23354030D01*
X28434050Y-19798030D02*
X28508980Y-19723100D01*
X28434050Y-19648170D01*
X28359120Y-19723100D01*
X28434050Y-19798030D01*
X28594050Y-17639030D02*
X28668980Y-17564100D01*
X28594050Y-17489170D01*
X28519120Y-17564100D01*
X28594050Y-17639030D01*
X28911550Y-13194030D02*
X28986480Y-13119100D01*
X28911550Y-13044170D01*
X28836620Y-13119100D01*
X28911550Y-13194030D01*
X28911550Y-15988030D02*
X28986480Y-15913100D01*
X28911550Y-15838170D01*
X28836620Y-15913100D01*
X28911550Y-15988030D01*
X29069050Y-19544030D02*
X29143980Y-19469100D01*
X29069050Y-19394170D01*
X28994120Y-19469100D01*
X29069050Y-19544030D01*
X29546550Y-12940030D02*
X29621480Y-12865100D01*
X29546550Y-12790170D01*
X29471620Y-12865100D01*
X29546550Y-12940030D01*
X29546550Y-15734030D02*
X29621480Y-15659100D01*
X29546550Y-15584170D01*
X29471620Y-15659100D01*
X29546550Y-15734030D01*
X29864050Y-17893030D02*
X29938980Y-17818100D01*
X29864050Y-17743170D01*
X29789120Y-17818100D01*
X29864050Y-17893030D01*
X30100550Y-23608030D02*
X30175480Y-23533100D01*
X30100550Y-23458170D01*
X30025620Y-23533100D01*
X30100550Y-23608030D01*
X30499050Y-17639030D02*
X30573980Y-17564100D01*
X30499050Y-17489170D01*
X30424120Y-17564100D01*
X30499050Y-17639030D01*
X30735550Y-23354030D02*
X30810480Y-23279100D01*
X30735550Y-23204170D01*
X30660620Y-23279100D01*
X30735550Y-23354030D01*
X30816550Y-13194030D02*
X30891480Y-13119100D01*
X30816550Y-13044170D01*
X30741620Y-13119100D01*
X30816550Y-13194030D01*
X31053050Y-21703030D02*
X31127980Y-21628100D01*
X31053050Y-21553170D01*
X30978120Y-21628100D01*
X31053050Y-21703030D01*
X31451550Y-12940030D02*
X31526480Y-12865100D01*
X31451550Y-12790170D01*
X31376620Y-12865100D01*
X31451550Y-12940030D01*
X31529550Y-19798030D02*
X31604480Y-19723100D01*
X31529550Y-19648170D01*
X31454620Y-19723100D01*
X31529550Y-19798030D01*
X31688050Y-21449030D02*
X31762980Y-21374100D01*
X31688050Y-21299170D01*
X31613120Y-21374100D01*
X31688050Y-21449030D01*
X31769050Y-15988030D02*
X31843980Y-15913100D01*
X31769050Y-15838170D01*
X31694120Y-15913100D01*
X31769050Y-15988030D01*
X32164550Y-19544030D02*
X32239480Y-19469100D01*
X32164550Y-19394170D01*
X32089620Y-19469100D01*
X32164550Y-19544030D01*
X32245050Y-17893030D02*
X32319980Y-17818100D01*
X32245050Y-17743170D01*
X32170120Y-17818100D01*
X32245050Y-17893030D01*
X32404050Y-15734030D02*
X32478980Y-15659100D01*
X32404050Y-15584170D01*
X32329120Y-15659100D01*
X32404050Y-15734030D01*
X32481550Y-23608030D02*
X32556480Y-23533100D01*
X32481550Y-23458170D01*
X32406620Y-23533100D01*
X32481550Y-23608030D01*
X32721550Y-13194030D02*
X32796480Y-13119100D01*
X32721550Y-13044170D01*
X32646620Y-13119100D01*
X32721550Y-13194030D01*
X32880050Y-17639030D02*
X32954980Y-17564100D01*
X32880050Y-17489170D01*
X32805120Y-17564100D01*
X32880050Y-17639030D01*
X33116550Y-23354030D02*
X33191480Y-23279100D01*
X33116550Y-23204170D01*
X33041620Y-23279100D01*
X33116550Y-23354030D01*
X33356550Y-12940030D02*
X33431480Y-12865100D01*
X33356550Y-12790170D01*
X33281620Y-12865100D01*
X33356550Y-12940030D01*
X35462210Y-13194030D02*
X35537140Y-13119100D01*
X35462210Y-13044170D01*
X35387280Y-13119100D01*
X35462210Y-13194030D01*
X35462210Y-15988030D02*
X35537140Y-15913100D01*
X35462210Y-15838170D01*
X35387280Y-15913100D01*
X35462210Y-15988030D01*
X35462210Y-17893030D02*
X35537140Y-17818100D01*
X35462210Y-17743170D01*
X35387280Y-17818100D01*
X35462210Y-17893030D01*
X35462210Y-23608030D02*
X35537140Y-23533100D01*
X35462210Y-23458170D01*
X35387280Y-23533100D01*
X35462210Y-23608030D01*
X36097210Y-12940030D02*
X36172140Y-12865100D01*
X36097210Y-12790170D01*
X36022280Y-12865100D01*
X36097210Y-12940030D01*
X36097210Y-15734030D02*
X36172140Y-15659100D01*
X36097210Y-15584170D01*
X36022280Y-15659100D01*
X36097210Y-15734030D01*
X36097210Y-17639030D02*
X36172140Y-17564100D01*
X36097210Y-17489170D01*
X36022280Y-17564100D01*
X36097210Y-17639030D01*
X36097210Y-23354030D02*
X36172140Y-23279100D01*
X36097210Y-23204170D01*
X36022280Y-23279100D01*
X36097210Y-23354030D01*
X37367210Y-13194030D02*
X37442140Y-13119100D01*
X37367210Y-13044170D01*
X37292280Y-13119100D01*
X37367210Y-13194030D01*
X37367210Y-15988030D02*
X37442140Y-15913100D01*
X37367210Y-15838170D01*
X37292280Y-15913100D01*
X37367210Y-15988030D01*
X37367210Y-17893030D02*
X37442140Y-17818100D01*
X37367210Y-17743170D01*
X37292280Y-17818100D01*
X37367210Y-17893030D01*
X37367210Y-21703030D02*
X37442140Y-21628100D01*
X37367210Y-21553170D01*
X37292280Y-21628100D01*
X37367210Y-21703030D01*
X37367210Y-23608030D02*
X37442140Y-23533100D01*
X37367210Y-23458170D01*
X37292280Y-23533100D01*
X37367210Y-23608030D01*
X38002210Y-12940030D02*
X38077140Y-12865100D01*
X38002210Y-12790170D01*
X37927280Y-12865100D01*
X38002210Y-12940030D01*
X38002210Y-15734030D02*
X38077140Y-15659100D01*
X38002210Y-15584170D01*
X37927280Y-15659100D01*
X38002210Y-15734030D01*
X38002210Y-17639030D02*
X38077140Y-17564100D01*
X38002210Y-17489170D01*
X37927280Y-17564100D01*
X38002210Y-17639030D01*
X38002210Y-21449030D02*
X38077140Y-21374100D01*
X38002210Y-21299170D01*
X37927280Y-21374100D01*
X38002210Y-21449030D01*
X38002210Y-23354030D02*
X38077140Y-23279100D01*
X38002210Y-23204170D01*
X37927280Y-23279100D01*
X38002210Y-23354030D01*
X39272210Y-13194030D02*
X39347140Y-13119100D01*
X39272210Y-13044170D01*
X39197280Y-13119100D01*
X39272210Y-13194030D01*
X39272210Y-15988030D02*
X39347140Y-15913100D01*
X39272210Y-15838170D01*
X39197280Y-15913100D01*
X39272210Y-15988030D01*
X39272210Y-17893030D02*
X39347140Y-17818100D01*
X39272210Y-17743170D01*
X39197280Y-17818100D01*
X39272210Y-17893030D01*
X39272210Y-23608030D02*
X39347140Y-23533100D01*
X39272210Y-23458170D01*
X39197280Y-23533100D01*
X39272210Y-23608030D01*
X39907210Y-12940030D02*
X39982140Y-12865100D01*
X39907210Y-12790170D01*
X39832280Y-12865100D01*
X39907210Y-12940030D01*
X39907210Y-15734030D02*
X39982140Y-15659100D01*
X39907210Y-15584170D01*
X39832280Y-15659100D01*
X39907210Y-15734030D01*
X39907210Y-17639030D02*
X39982140Y-17564100D01*
X39907210Y-17489170D01*
X39832280Y-17564100D01*
X39907210Y-17639030D01*
X39907210Y-23354030D02*
X39982140Y-23279100D01*
X39907210Y-23204170D01*
X39832280Y-23279100D01*
X39907210Y-23354030D01*
X42014140Y-15982950D02*
X42089070Y-15908020D01*
X42014140Y-15833090D01*
X41939210Y-15908020D01*
X42014140Y-15982950D01*
X42014140Y-17887950D02*
X42089070Y-17813020D01*
X42014140Y-17738090D01*
X41939210Y-17813020D01*
X42014140Y-17887950D01*
X42014140Y-19792950D02*
X42089070Y-19718020D01*
X42014140Y-19643090D01*
X41939210Y-19718020D01*
X42014140Y-19792950D01*
X42014140Y-21697950D02*
X42089070Y-21623020D01*
X42014140Y-21548090D01*
X41939210Y-21623020D01*
X42014140Y-21697950D01*
X42649140Y-15728950D02*
X42724070Y-15654020D01*
X42649140Y-15579090D01*
X42574210Y-15654020D01*
X42649140Y-15728950D01*
X42649140Y-17633950D02*
X42724070Y-17559020D01*
X42649140Y-17484090D01*
X42574210Y-17559020D01*
X42649140Y-17633950D01*
X42649140Y-19538950D02*
X42724070Y-19464020D01*
X42649140Y-19389090D01*
X42574210Y-19464020D01*
X42649140Y-19538950D01*
X42649140Y-21443950D02*
X42724070Y-21369020D01*
X42649140Y-21294090D01*
X42574210Y-21369020D01*
X42649140Y-21443950D01*
X42969180Y-23602950D02*
X43044110Y-23528020D01*
X42969180Y-23453090D01*
X42894250Y-23528020D01*
X42969180Y-23602950D01*
X43604180Y-23348950D02*
X43679110Y-23274020D01*
X43604180Y-23199090D01*
X43529250Y-23274020D01*
X43604180Y-23348950D01*
X43919140Y-15982950D02*
X43994070Y-15908020D01*
X43919140Y-15833090D01*
X43844210Y-15908020D01*
X43919140Y-15982950D01*
X43919140Y-17887950D02*
X43994070Y-17813020D01*
X43919140Y-17738090D01*
X43844210Y-17813020D01*
X43919140Y-17887950D01*
X43919140Y-19792950D02*
X43994070Y-19718020D01*
X43919140Y-19643090D01*
X43844210Y-19718020D01*
X43919140Y-19792950D01*
X43919140Y-21697950D02*
X43994070Y-21623020D01*
X43919140Y-21548090D01*
X43844210Y-21623020D01*
X43919140Y-21697950D01*
X44554140Y-15728950D02*
X44629070Y-15654020D01*
X44554140Y-15579090D01*
X44479210Y-15654020D01*
X44554140Y-15728950D01*
X44554140Y-17633950D02*
X44629070Y-17559020D01*
X44554140Y-17484090D01*
X44479210Y-17559020D01*
X44554140Y-17633950D01*
X44554140Y-19538950D02*
X44629070Y-19464020D01*
X44554140Y-19389090D01*
X44479210Y-19464020D01*
X44554140Y-19538950D01*
X44554140Y-21443950D02*
X44629070Y-21369020D01*
X44554140Y-21294090D01*
X44479210Y-21369020D01*
X44554140Y-21443950D01*
X45824140Y-15982950D02*
X45899070Y-15908020D01*
X45824140Y-15833090D01*
X45749210Y-15908020D01*
X45824140Y-15982950D01*
X45824140Y-17887950D02*
X45899070Y-17813020D01*
X45824140Y-17738090D01*
X45749210Y-17813020D01*
X45824140Y-17887950D01*
X45824140Y-19792950D02*
X45899070Y-19718020D01*
X45824140Y-19643090D01*
X45749210Y-19718020D01*
X45824140Y-19792950D01*
X45824140Y-21697950D02*
X45899070Y-21623020D01*
X45824140Y-21548090D01*
X45749210Y-21623020D01*
X45824140Y-21697950D01*
X45824140Y-23602950D02*
X45899070Y-23528020D01*
X45824140Y-23453090D01*
X45749210Y-23528020D01*
X45824140Y-23602950D01*
X46459140Y-15728950D02*
X46534070Y-15654020D01*
X46459140Y-15579090D01*
X46384210Y-15654020D01*
X46459140Y-15728950D01*
X46459140Y-17633950D02*
X46534070Y-17559020D01*
X46459140Y-17484090D01*
X46384210Y-17559020D01*
X46459140Y-17633950D01*
X46459140Y-19538950D02*
X46534070Y-19464020D01*
X46459140Y-19389090D01*
X46384210Y-19464020D01*
X46459140Y-19538950D01*
X46459140Y-21443950D02*
X46534070Y-21369020D01*
X46459140Y-21294090D01*
X46384210Y-21369020D01*
X46459140Y-21443950D01*
X46459140Y-23348950D02*
X46534070Y-23274020D01*
X46459140Y-23199090D01*
X46384210Y-23274020D01*
X46459140Y-23348950D01*
X47738030Y-15980410D02*
X47812960Y-15905480D01*
X47738030Y-15830550D01*
X47663100Y-15905480D01*
X47738030Y-15980410D01*
X48373030Y-15726410D02*
X48447960Y-15651480D01*
X48373030Y-15576550D01*
X48298100Y-15651480D01*
X48373030Y-15726410D01*
X48373030Y-18710910D02*
X48447960Y-18635980D01*
X48373030Y-18561050D01*
X48298100Y-18635980D01*
X48373030Y-18710910D01*
X48373030Y-22513290D02*
X48447960Y-22438360D01*
X48373030Y-22363430D01*
X48298100Y-22438360D01*
X48373030Y-22513290D01*
X48627030Y-19345910D02*
X48701960Y-19270980D01*
X48627030Y-19196050D01*
X48552100Y-19270980D01*
X48627030Y-19345910D01*
X48627030Y-23148290D02*
X48701960Y-23073360D01*
X48627030Y-22998430D01*
X48552100Y-23073360D01*
X48627030Y-23148290D01*
D11*
X5566499Y-25417764D02*
X5566499Y-25217764D01*
X5566499Y-25217764D02*
X5614118Y-25217764D01*
X5614118Y-25217764D02*
X5642689Y-25227288D01*
X5642689Y-25227288D02*
X5661737Y-25246335D01*
X5661737Y-25246335D02*
X5671261Y-25265383D01*
X5671261Y-25265383D02*
X5680785Y-25303478D01*
X5680785Y-25303478D02*
X5680785Y-25332049D01*
X5680785Y-25332049D02*
X5671261Y-25370145D01*
X5671261Y-25370145D02*
X5661737Y-25389192D01*
X5661737Y-25389192D02*
X5642689Y-25408240D01*
X5642689Y-25408240D02*
X5614118Y-25417764D01*
X5614118Y-25417764D02*
X5566499Y-25417764D01*
X5766499Y-25417764D02*
X5766499Y-25284430D01*
X5766499Y-25322526D02*
X5776023Y-25303478D01*
X5776023Y-25303478D02*
X5785547Y-25293954D01*
X5785547Y-25293954D02*
X5804594Y-25284430D01*
X5804594Y-25284430D02*
X5823642Y-25284430D01*
X5890308Y-25417764D02*
X5890308Y-25284430D01*
X5890308Y-25217764D02*
X5880785Y-25227288D01*
X5880785Y-25227288D02*
X5890308Y-25236811D01*
X5890308Y-25236811D02*
X5899832Y-25227288D01*
X5899832Y-25227288D02*
X5890308Y-25217764D01*
X5890308Y-25217764D02*
X5890308Y-25236811D01*
X6014118Y-25417764D02*
X5995070Y-25408240D01*
X5995070Y-25408240D02*
X5985547Y-25389192D01*
X5985547Y-25389192D02*
X5985547Y-25217764D01*
X6118880Y-25417764D02*
X6099832Y-25408240D01*
X6099832Y-25408240D02*
X6090308Y-25389192D01*
X6090308Y-25389192D02*
X6090308Y-25217764D01*
X6347451Y-25417764D02*
X6347451Y-25217764D01*
X6347451Y-25217764D02*
X6414118Y-25360621D01*
X6414118Y-25360621D02*
X6480785Y-25217764D01*
X6480785Y-25217764D02*
X6480785Y-25417764D01*
X6661737Y-25417764D02*
X6661737Y-25313002D01*
X6661737Y-25313002D02*
X6652213Y-25293954D01*
X6652213Y-25293954D02*
X6633166Y-25284430D01*
X6633166Y-25284430D02*
X6595070Y-25284430D01*
X6595070Y-25284430D02*
X6576023Y-25293954D01*
X6661737Y-25408240D02*
X6642689Y-25417764D01*
X6642689Y-25417764D02*
X6595070Y-25417764D01*
X6595070Y-25417764D02*
X6576023Y-25408240D01*
X6576023Y-25408240D02*
X6566499Y-25389192D01*
X6566499Y-25389192D02*
X6566499Y-25370145D01*
X6566499Y-25370145D02*
X6576023Y-25351097D01*
X6576023Y-25351097D02*
X6595070Y-25341573D01*
X6595070Y-25341573D02*
X6642689Y-25341573D01*
X6642689Y-25341573D02*
X6661737Y-25332049D01*
X6756975Y-25284430D02*
X6756975Y-25484430D01*
X6756975Y-25293954D02*
X6776023Y-25284430D01*
X6776023Y-25284430D02*
X6814118Y-25284430D01*
X6814118Y-25284430D02*
X6833166Y-25293954D01*
X6833166Y-25293954D02*
X6842689Y-25303478D01*
X6842689Y-25303478D02*
X6852213Y-25322526D01*
X6852213Y-25322526D02*
X6852213Y-25379668D01*
X6852213Y-25379668D02*
X6842689Y-25398716D01*
X6842689Y-25398716D02*
X6833166Y-25408240D01*
X6833166Y-25408240D02*
X6814118Y-25417764D01*
X6814118Y-25417764D02*
X6776023Y-25417764D01*
X6776023Y-25417764D02*
X6756975Y-25408240D01*
X6937928Y-25398716D02*
X6947451Y-25408240D01*
X6947451Y-25408240D02*
X6937928Y-25417764D01*
X6937928Y-25417764D02*
X6928404Y-25408240D01*
X6928404Y-25408240D02*
X6937928Y-25398716D01*
X6937928Y-25398716D02*
X6937928Y-25417764D01*
X6937928Y-25293954D02*
X6947451Y-25303478D01*
X6947451Y-25303478D02*
X6937928Y-25313002D01*
X6937928Y-25313002D02*
X6928404Y-25303478D01*
X6928404Y-25303478D02*
X6937928Y-25293954D01*
X6937928Y-25293954D02*
X6937928Y-25313002D01*
D12*
X5278880Y-25725240D02*
X5318880Y-25765240D01*
X5318880Y-25725240D02*
X5278880Y-25765240D01*
D11*
X5604594Y-25637764D02*
X5623642Y-25637764D01*
X5623642Y-25637764D02*
X5642689Y-25647288D01*
X5642689Y-25647288D02*
X5652213Y-25656811D01*
X5652213Y-25656811D02*
X5661737Y-25675859D01*
X5661737Y-25675859D02*
X5671261Y-25713954D01*
X5671261Y-25713954D02*
X5671261Y-25761573D01*
X5671261Y-25761573D02*
X5661737Y-25799668D01*
X5661737Y-25799668D02*
X5652213Y-25818716D01*
X5652213Y-25818716D02*
X5642689Y-25828240D01*
X5642689Y-25828240D02*
X5623642Y-25837764D01*
X5623642Y-25837764D02*
X5604594Y-25837764D01*
X5604594Y-25837764D02*
X5585547Y-25828240D01*
X5585547Y-25828240D02*
X5576023Y-25818716D01*
X5576023Y-25818716D02*
X5566499Y-25799668D01*
X5566499Y-25799668D02*
X5556975Y-25761573D01*
X5556975Y-25761573D02*
X5556975Y-25713954D01*
X5556975Y-25713954D02*
X5566499Y-25675859D01*
X5566499Y-25675859D02*
X5576023Y-25656811D01*
X5576023Y-25656811D02*
X5585547Y-25647288D01*
X5585547Y-25647288D02*
X5604594Y-25637764D01*
X5756975Y-25818716D02*
X5766499Y-25828240D01*
X5766499Y-25828240D02*
X5756975Y-25837764D01*
X5756975Y-25837764D02*
X5747451Y-25828240D01*
X5747451Y-25828240D02*
X5756975Y-25818716D01*
X5756975Y-25818716D02*
X5756975Y-25837764D01*
X5937928Y-25704430D02*
X5937928Y-25837764D01*
X5890308Y-25628240D02*
X5842689Y-25771097D01*
X5842689Y-25771097D02*
X5966499Y-25771097D01*
X6080785Y-25637764D02*
X6099832Y-25637764D01*
X6099832Y-25637764D02*
X6118880Y-25647288D01*
X6118880Y-25647288D02*
X6128404Y-25656811D01*
X6128404Y-25656811D02*
X6137928Y-25675859D01*
X6137928Y-25675859D02*
X6147451Y-25713954D01*
X6147451Y-25713954D02*
X6147451Y-25761573D01*
X6147451Y-25761573D02*
X6137928Y-25799668D01*
X6137928Y-25799668D02*
X6128404Y-25818716D01*
X6128404Y-25818716D02*
X6118880Y-25828240D01*
X6118880Y-25828240D02*
X6099832Y-25837764D01*
X6099832Y-25837764D02*
X6080785Y-25837764D01*
X6080785Y-25837764D02*
X6061737Y-25828240D01*
X6061737Y-25828240D02*
X6052213Y-25818716D01*
X6052213Y-25818716D02*
X6042689Y-25799668D01*
X6042689Y-25799668D02*
X6033166Y-25761573D01*
X6033166Y-25761573D02*
X6033166Y-25713954D01*
X6033166Y-25713954D02*
X6042689Y-25675859D01*
X6042689Y-25675859D02*
X6052213Y-25656811D01*
X6052213Y-25656811D02*
X6061737Y-25647288D01*
X6061737Y-25647288D02*
X6080785Y-25637764D01*
X6271261Y-25637764D02*
X6290309Y-25637764D01*
X6290309Y-25637764D02*
X6309356Y-25647288D01*
X6309356Y-25647288D02*
X6318880Y-25656811D01*
X6318880Y-25656811D02*
X6328404Y-25675859D01*
X6328404Y-25675859D02*
X6337928Y-25713954D01*
X6337928Y-25713954D02*
X6337928Y-25761573D01*
X6337928Y-25761573D02*
X6328404Y-25799668D01*
X6328404Y-25799668D02*
X6318880Y-25818716D01*
X6318880Y-25818716D02*
X6309356Y-25828240D01*
X6309356Y-25828240D02*
X6290309Y-25837764D01*
X6290309Y-25837764D02*
X6271261Y-25837764D01*
X6271261Y-25837764D02*
X6252213Y-25828240D01*
X6252213Y-25828240D02*
X6242689Y-25818716D01*
X6242689Y-25818716D02*
X6233166Y-25799668D01*
X6233166Y-25799668D02*
X6223642Y-25761573D01*
X6223642Y-25761573D02*
X6223642Y-25713954D01*
X6223642Y-25713954D02*
X6233166Y-25675859D01*
X6233166Y-25675859D02*
X6242689Y-25656811D01*
X6242689Y-25656811D02*
X6252213Y-25647288D01*
X6252213Y-25647288D02*
X6271261Y-25637764D01*
X6423642Y-25837764D02*
X6423642Y-25704430D01*
X6423642Y-25723478D02*
X6433166Y-25713954D01*
X6433166Y-25713954D02*
X6452213Y-25704430D01*
X6452213Y-25704430D02*
X6480785Y-25704430D01*
X6480785Y-25704430D02*
X6499832Y-25713954D01*
X6499832Y-25713954D02*
X6509356Y-25733002D01*
X6509356Y-25733002D02*
X6509356Y-25837764D01*
X6509356Y-25733002D02*
X6518880Y-25713954D01*
X6518880Y-25713954D02*
X6537928Y-25704430D01*
X6537928Y-25704430D02*
X6566499Y-25704430D01*
X6566499Y-25704430D02*
X6585547Y-25713954D01*
X6585547Y-25713954D02*
X6595070Y-25733002D01*
X6595070Y-25733002D02*
X6595070Y-25837764D01*
X6690309Y-25837764D02*
X6690309Y-25704430D01*
X6690309Y-25723478D02*
X6699832Y-25713954D01*
X6699832Y-25713954D02*
X6718880Y-25704430D01*
X6718880Y-25704430D02*
X6747451Y-25704430D01*
X6747451Y-25704430D02*
X6766499Y-25713954D01*
X6766499Y-25713954D02*
X6776023Y-25733002D01*
X6776023Y-25733002D02*
X6776023Y-25837764D01*
X6776023Y-25733002D02*
X6785547Y-25713954D01*
X6785547Y-25713954D02*
X6804594Y-25704430D01*
X6804594Y-25704430D02*
X6833166Y-25704430D01*
X6833166Y-25704430D02*
X6852213Y-25713954D01*
X6852213Y-25713954D02*
X6861737Y-25733002D01*
X6861737Y-25733002D02*
X6861737Y-25837764D01*
X7252213Y-25628240D02*
X7080785Y-25885383D01*
X7509356Y-25637764D02*
X7528404Y-25637764D01*
X7528404Y-25637764D02*
X7547452Y-25647288D01*
X7547452Y-25647288D02*
X7556975Y-25656811D01*
X7556975Y-25656811D02*
X7566499Y-25675859D01*
X7566499Y-25675859D02*
X7576023Y-25713954D01*
X7576023Y-25713954D02*
X7576023Y-25761573D01*
X7576023Y-25761573D02*
X7566499Y-25799668D01*
X7566499Y-25799668D02*
X7556975Y-25818716D01*
X7556975Y-25818716D02*
X7547452Y-25828240D01*
X7547452Y-25828240D02*
X7528404Y-25837764D01*
X7528404Y-25837764D02*
X7509356Y-25837764D01*
X7509356Y-25837764D02*
X7490309Y-25828240D01*
X7490309Y-25828240D02*
X7480785Y-25818716D01*
X7480785Y-25818716D02*
X7471261Y-25799668D01*
X7471261Y-25799668D02*
X7461737Y-25761573D01*
X7461737Y-25761573D02*
X7461737Y-25713954D01*
X7461737Y-25713954D02*
X7471261Y-25675859D01*
X7471261Y-25675859D02*
X7480785Y-25656811D01*
X7480785Y-25656811D02*
X7490309Y-25647288D01*
X7490309Y-25647288D02*
X7509356Y-25637764D01*
X7661737Y-25818716D02*
X7671261Y-25828240D01*
X7671261Y-25828240D02*
X7661737Y-25837764D01*
X7661737Y-25837764D02*
X7652213Y-25828240D01*
X7652213Y-25828240D02*
X7661737Y-25818716D01*
X7661737Y-25818716D02*
X7661737Y-25837764D01*
X7795071Y-25637764D02*
X7814118Y-25637764D01*
X7814118Y-25637764D02*
X7833166Y-25647288D01*
X7833166Y-25647288D02*
X7842690Y-25656811D01*
X7842690Y-25656811D02*
X7852213Y-25675859D01*
X7852213Y-25675859D02*
X7861737Y-25713954D01*
X7861737Y-25713954D02*
X7861737Y-25761573D01*
X7861737Y-25761573D02*
X7852213Y-25799668D01*
X7852213Y-25799668D02*
X7842690Y-25818716D01*
X7842690Y-25818716D02*
X7833166Y-25828240D01*
X7833166Y-25828240D02*
X7814118Y-25837764D01*
X7814118Y-25837764D02*
X7795071Y-25837764D01*
X7795071Y-25837764D02*
X7776023Y-25828240D01*
X7776023Y-25828240D02*
X7766499Y-25818716D01*
X7766499Y-25818716D02*
X7756975Y-25799668D01*
X7756975Y-25799668D02*
X7747452Y-25761573D01*
X7747452Y-25761573D02*
X7747452Y-25713954D01*
X7747452Y-25713954D02*
X7756975Y-25675859D01*
X7756975Y-25675859D02*
X7766499Y-25656811D01*
X7766499Y-25656811D02*
X7776023Y-25647288D01*
X7776023Y-25647288D02*
X7795071Y-25637764D01*
X8052213Y-25837764D02*
X7937928Y-25837764D01*
X7995071Y-25837764D02*
X7995071Y-25637764D01*
X7995071Y-25637764D02*
X7976023Y-25666335D01*
X7976023Y-25666335D02*
X7956975Y-25685383D01*
X7956975Y-25685383D02*
X7937928Y-25694907D01*
X8233166Y-25637764D02*
X8137928Y-25637764D01*
X8137928Y-25637764D02*
X8128404Y-25733002D01*
X8128404Y-25733002D02*
X8137928Y-25723478D01*
X8137928Y-25723478D02*
X8156975Y-25713954D01*
X8156975Y-25713954D02*
X8204594Y-25713954D01*
X8204594Y-25713954D02*
X8223642Y-25723478D01*
X8223642Y-25723478D02*
X8233166Y-25733002D01*
X8233166Y-25733002D02*
X8242690Y-25752049D01*
X8242690Y-25752049D02*
X8242690Y-25799668D01*
X8242690Y-25799668D02*
X8233166Y-25818716D01*
X8233166Y-25818716D02*
X8223642Y-25828240D01*
X8223642Y-25828240D02*
X8204594Y-25837764D01*
X8204594Y-25837764D02*
X8156975Y-25837764D01*
X8156975Y-25837764D02*
X8137928Y-25828240D01*
X8137928Y-25828240D02*
X8128404Y-25818716D01*
X8309356Y-25637764D02*
X8442690Y-25637764D01*
X8442690Y-25637764D02*
X8356975Y-25837764D01*
X8509356Y-25637764D02*
X8509356Y-25675859D01*
X8585547Y-25637764D02*
X8585547Y-25675859D01*
X8880785Y-25913954D02*
X8871261Y-25904430D01*
X8871261Y-25904430D02*
X8852214Y-25875859D01*
X8852214Y-25875859D02*
X8842690Y-25856811D01*
X8842690Y-25856811D02*
X8833166Y-25828240D01*
X8833166Y-25828240D02*
X8823642Y-25780621D01*
X8823642Y-25780621D02*
X8823642Y-25742526D01*
X8823642Y-25742526D02*
X8833166Y-25694907D01*
X8833166Y-25694907D02*
X8842690Y-25666335D01*
X8842690Y-25666335D02*
X8852214Y-25647288D01*
X8852214Y-25647288D02*
X8871261Y-25618716D01*
X8871261Y-25618716D02*
X8880785Y-25609192D01*
X8947452Y-25656811D02*
X8956976Y-25647288D01*
X8956976Y-25647288D02*
X8976023Y-25637764D01*
X8976023Y-25637764D02*
X9023642Y-25637764D01*
X9023642Y-25637764D02*
X9042690Y-25647288D01*
X9042690Y-25647288D02*
X9052214Y-25656811D01*
X9052214Y-25656811D02*
X9061737Y-25675859D01*
X9061737Y-25675859D02*
X9061737Y-25694907D01*
X9061737Y-25694907D02*
X9052214Y-25723478D01*
X9052214Y-25723478D02*
X8937928Y-25837764D01*
X8937928Y-25837764D02*
X9061737Y-25837764D01*
X9156976Y-25837764D02*
X9195071Y-25837764D01*
X9195071Y-25837764D02*
X9214118Y-25828240D01*
X9214118Y-25828240D02*
X9223642Y-25818716D01*
X9223642Y-25818716D02*
X9242690Y-25790145D01*
X9242690Y-25790145D02*
X9252214Y-25752049D01*
X9252214Y-25752049D02*
X9252214Y-25675859D01*
X9252214Y-25675859D02*
X9242690Y-25656811D01*
X9242690Y-25656811D02*
X9233166Y-25647288D01*
X9233166Y-25647288D02*
X9214118Y-25637764D01*
X9214118Y-25637764D02*
X9176023Y-25637764D01*
X9176023Y-25637764D02*
X9156976Y-25647288D01*
X9156976Y-25647288D02*
X9147452Y-25656811D01*
X9147452Y-25656811D02*
X9137928Y-25675859D01*
X9137928Y-25675859D02*
X9137928Y-25723478D01*
X9137928Y-25723478D02*
X9147452Y-25742526D01*
X9147452Y-25742526D02*
X9156976Y-25752049D01*
X9156976Y-25752049D02*
X9176023Y-25761573D01*
X9176023Y-25761573D02*
X9214118Y-25761573D01*
X9214118Y-25761573D02*
X9233166Y-25752049D01*
X9233166Y-25752049D02*
X9242690Y-25742526D01*
X9242690Y-25742526D02*
X9252214Y-25723478D01*
X9490309Y-25837764D02*
X9490309Y-25637764D01*
X9576023Y-25837764D02*
X9576023Y-25733002D01*
X9576023Y-25733002D02*
X9566499Y-25713954D01*
X9566499Y-25713954D02*
X9547452Y-25704430D01*
X9547452Y-25704430D02*
X9518880Y-25704430D01*
X9518880Y-25704430D02*
X9499833Y-25713954D01*
X9499833Y-25713954D02*
X9490309Y-25723478D01*
X9699833Y-25837764D02*
X9680785Y-25828240D01*
X9680785Y-25828240D02*
X9671261Y-25818716D01*
X9671261Y-25818716D02*
X9661738Y-25799668D01*
X9661738Y-25799668D02*
X9661738Y-25742526D01*
X9661738Y-25742526D02*
X9671261Y-25723478D01*
X9671261Y-25723478D02*
X9680785Y-25713954D01*
X9680785Y-25713954D02*
X9699833Y-25704430D01*
X9699833Y-25704430D02*
X9728404Y-25704430D01*
X9728404Y-25704430D02*
X9747452Y-25713954D01*
X9747452Y-25713954D02*
X9756976Y-25723478D01*
X9756976Y-25723478D02*
X9766499Y-25742526D01*
X9766499Y-25742526D02*
X9766499Y-25799668D01*
X9766499Y-25799668D02*
X9756976Y-25818716D01*
X9756976Y-25818716D02*
X9747452Y-25828240D01*
X9747452Y-25828240D02*
X9728404Y-25837764D01*
X9728404Y-25837764D02*
X9699833Y-25837764D01*
X9880785Y-25837764D02*
X9861738Y-25828240D01*
X9861738Y-25828240D02*
X9852214Y-25809192D01*
X9852214Y-25809192D02*
X9852214Y-25637764D01*
X10033166Y-25828240D02*
X10014119Y-25837764D01*
X10014119Y-25837764D02*
X9976023Y-25837764D01*
X9976023Y-25837764D02*
X9956976Y-25828240D01*
X9956976Y-25828240D02*
X9947452Y-25809192D01*
X9947452Y-25809192D02*
X9947452Y-25733002D01*
X9947452Y-25733002D02*
X9956976Y-25713954D01*
X9956976Y-25713954D02*
X9976023Y-25704430D01*
X9976023Y-25704430D02*
X10014119Y-25704430D01*
X10014119Y-25704430D02*
X10033166Y-25713954D01*
X10033166Y-25713954D02*
X10042690Y-25733002D01*
X10042690Y-25733002D02*
X10042690Y-25752049D01*
X10042690Y-25752049D02*
X9947452Y-25771097D01*
X10118880Y-25828240D02*
X10137928Y-25837764D01*
X10137928Y-25837764D02*
X10176023Y-25837764D01*
X10176023Y-25837764D02*
X10195071Y-25828240D01*
X10195071Y-25828240D02*
X10204595Y-25809192D01*
X10204595Y-25809192D02*
X10204595Y-25799668D01*
X10204595Y-25799668D02*
X10195071Y-25780621D01*
X10195071Y-25780621D02*
X10176023Y-25771097D01*
X10176023Y-25771097D02*
X10147452Y-25771097D01*
X10147452Y-25771097D02*
X10128404Y-25761573D01*
X10128404Y-25761573D02*
X10118880Y-25742526D01*
X10118880Y-25742526D02*
X10118880Y-25733002D01*
X10118880Y-25733002D02*
X10128404Y-25713954D01*
X10128404Y-25713954D02*
X10147452Y-25704430D01*
X10147452Y-25704430D02*
X10176023Y-25704430D01*
X10176023Y-25704430D02*
X10195071Y-25713954D01*
X10271261Y-25913954D02*
X10280785Y-25904430D01*
X10280785Y-25904430D02*
X10299833Y-25875859D01*
X10299833Y-25875859D02*
X10309357Y-25856811D01*
X10309357Y-25856811D02*
X10318880Y-25828240D01*
X10318880Y-25828240D02*
X10328404Y-25780621D01*
X10328404Y-25780621D02*
X10328404Y-25742526D01*
X10328404Y-25742526D02*
X10318880Y-25694907D01*
X10318880Y-25694907D02*
X10309357Y-25666335D01*
X10309357Y-25666335D02*
X10299833Y-25647288D01*
X10299833Y-25647288D02*
X10280785Y-25618716D01*
X10280785Y-25618716D02*
X10271261Y-25609192D01*
D13*
X5318880Y-26009240D02*
G75*
G03*
X5318880Y-26009240I-40000J0D01*
G01*
D11*
X5604594Y-25901764D02*
X5623642Y-25901764D01*
X5623642Y-25901764D02*
X5642689Y-25911288D01*
X5642689Y-25911288D02*
X5652213Y-25920811D01*
X5652213Y-25920811D02*
X5661737Y-25939859D01*
X5661737Y-25939859D02*
X5671261Y-25977954D01*
X5671261Y-25977954D02*
X5671261Y-26025573D01*
X5671261Y-26025573D02*
X5661737Y-26063668D01*
X5661737Y-26063668D02*
X5652213Y-26082716D01*
X5652213Y-26082716D02*
X5642689Y-26092240D01*
X5642689Y-26092240D02*
X5623642Y-26101764D01*
X5623642Y-26101764D02*
X5604594Y-26101764D01*
X5604594Y-26101764D02*
X5585547Y-26092240D01*
X5585547Y-26092240D02*
X5576023Y-26082716D01*
X5576023Y-26082716D02*
X5566499Y-26063668D01*
X5566499Y-26063668D02*
X5556975Y-26025573D01*
X5556975Y-26025573D02*
X5556975Y-25977954D01*
X5556975Y-25977954D02*
X5566499Y-25939859D01*
X5566499Y-25939859D02*
X5576023Y-25920811D01*
X5576023Y-25920811D02*
X5585547Y-25911288D01*
X5585547Y-25911288D02*
X5604594Y-25901764D01*
X5756975Y-26082716D02*
X5766499Y-26092240D01*
X5766499Y-26092240D02*
X5756975Y-26101764D01*
X5756975Y-26101764D02*
X5747451Y-26092240D01*
X5747451Y-26092240D02*
X5756975Y-26082716D01*
X5756975Y-26082716D02*
X5756975Y-26101764D01*
X5880785Y-25987478D02*
X5861737Y-25977954D01*
X5861737Y-25977954D02*
X5852213Y-25968430D01*
X5852213Y-25968430D02*
X5842689Y-25949383D01*
X5842689Y-25949383D02*
X5842689Y-25939859D01*
X5842689Y-25939859D02*
X5852213Y-25920811D01*
X5852213Y-25920811D02*
X5861737Y-25911288D01*
X5861737Y-25911288D02*
X5880785Y-25901764D01*
X5880785Y-25901764D02*
X5918880Y-25901764D01*
X5918880Y-25901764D02*
X5937928Y-25911288D01*
X5937928Y-25911288D02*
X5947451Y-25920811D01*
X5947451Y-25920811D02*
X5956975Y-25939859D01*
X5956975Y-25939859D02*
X5956975Y-25949383D01*
X5956975Y-25949383D02*
X5947451Y-25968430D01*
X5947451Y-25968430D02*
X5937928Y-25977954D01*
X5937928Y-25977954D02*
X5918880Y-25987478D01*
X5918880Y-25987478D02*
X5880785Y-25987478D01*
X5880785Y-25987478D02*
X5861737Y-25997002D01*
X5861737Y-25997002D02*
X5852213Y-26006526D01*
X5852213Y-26006526D02*
X5842689Y-26025573D01*
X5842689Y-26025573D02*
X5842689Y-26063668D01*
X5842689Y-26063668D02*
X5852213Y-26082716D01*
X5852213Y-26082716D02*
X5861737Y-26092240D01*
X5861737Y-26092240D02*
X5880785Y-26101764D01*
X5880785Y-26101764D02*
X5918880Y-26101764D01*
X5918880Y-26101764D02*
X5937928Y-26092240D01*
X5937928Y-26092240D02*
X5947451Y-26082716D01*
X5947451Y-26082716D02*
X5956975Y-26063668D01*
X5956975Y-26063668D02*
X5956975Y-26025573D01*
X5956975Y-26025573D02*
X5947451Y-26006526D01*
X5947451Y-26006526D02*
X5937928Y-25997002D01*
X5937928Y-25997002D02*
X5918880Y-25987478D01*
X6080785Y-25901764D02*
X6099832Y-25901764D01*
X6099832Y-25901764D02*
X6118880Y-25911288D01*
X6118880Y-25911288D02*
X6128404Y-25920811D01*
X6128404Y-25920811D02*
X6137928Y-25939859D01*
X6137928Y-25939859D02*
X6147451Y-25977954D01*
X6147451Y-25977954D02*
X6147451Y-26025573D01*
X6147451Y-26025573D02*
X6137928Y-26063668D01*
X6137928Y-26063668D02*
X6128404Y-26082716D01*
X6128404Y-26082716D02*
X6118880Y-26092240D01*
X6118880Y-26092240D02*
X6099832Y-26101764D01*
X6099832Y-26101764D02*
X6080785Y-26101764D01*
X6080785Y-26101764D02*
X6061737Y-26092240D01*
X6061737Y-26092240D02*
X6052213Y-26082716D01*
X6052213Y-26082716D02*
X6042689Y-26063668D01*
X6042689Y-26063668D02*
X6033166Y-26025573D01*
X6033166Y-26025573D02*
X6033166Y-25977954D01*
X6033166Y-25977954D02*
X6042689Y-25939859D01*
X6042689Y-25939859D02*
X6052213Y-25920811D01*
X6052213Y-25920811D02*
X6061737Y-25911288D01*
X6061737Y-25911288D02*
X6080785Y-25901764D01*
X6271261Y-25901764D02*
X6290309Y-25901764D01*
X6290309Y-25901764D02*
X6309356Y-25911288D01*
X6309356Y-25911288D02*
X6318880Y-25920811D01*
X6318880Y-25920811D02*
X6328404Y-25939859D01*
X6328404Y-25939859D02*
X6337928Y-25977954D01*
X6337928Y-25977954D02*
X6337928Y-26025573D01*
X6337928Y-26025573D02*
X6328404Y-26063668D01*
X6328404Y-26063668D02*
X6318880Y-26082716D01*
X6318880Y-26082716D02*
X6309356Y-26092240D01*
X6309356Y-26092240D02*
X6290309Y-26101764D01*
X6290309Y-26101764D02*
X6271261Y-26101764D01*
X6271261Y-26101764D02*
X6252213Y-26092240D01*
X6252213Y-26092240D02*
X6242689Y-26082716D01*
X6242689Y-26082716D02*
X6233166Y-26063668D01*
X6233166Y-26063668D02*
X6223642Y-26025573D01*
X6223642Y-26025573D02*
X6223642Y-25977954D01*
X6223642Y-25977954D02*
X6233166Y-25939859D01*
X6233166Y-25939859D02*
X6242689Y-25920811D01*
X6242689Y-25920811D02*
X6252213Y-25911288D01*
X6252213Y-25911288D02*
X6271261Y-25901764D01*
X6423642Y-26101764D02*
X6423642Y-25968430D01*
X6423642Y-25987478D02*
X6433166Y-25977954D01*
X6433166Y-25977954D02*
X6452213Y-25968430D01*
X6452213Y-25968430D02*
X6480785Y-25968430D01*
X6480785Y-25968430D02*
X6499832Y-25977954D01*
X6499832Y-25977954D02*
X6509356Y-25997002D01*
X6509356Y-25997002D02*
X6509356Y-26101764D01*
X6509356Y-25997002D02*
X6518880Y-25977954D01*
X6518880Y-25977954D02*
X6537928Y-25968430D01*
X6537928Y-25968430D02*
X6566499Y-25968430D01*
X6566499Y-25968430D02*
X6585547Y-25977954D01*
X6585547Y-25977954D02*
X6595070Y-25997002D01*
X6595070Y-25997002D02*
X6595070Y-26101764D01*
X6690309Y-26101764D02*
X6690309Y-25968430D01*
X6690309Y-25987478D02*
X6699832Y-25977954D01*
X6699832Y-25977954D02*
X6718880Y-25968430D01*
X6718880Y-25968430D02*
X6747451Y-25968430D01*
X6747451Y-25968430D02*
X6766499Y-25977954D01*
X6766499Y-25977954D02*
X6776023Y-25997002D01*
X6776023Y-25997002D02*
X6776023Y-26101764D01*
X6776023Y-25997002D02*
X6785547Y-25977954D01*
X6785547Y-25977954D02*
X6804594Y-25968430D01*
X6804594Y-25968430D02*
X6833166Y-25968430D01*
X6833166Y-25968430D02*
X6852213Y-25977954D01*
X6852213Y-25977954D02*
X6861737Y-25997002D01*
X6861737Y-25997002D02*
X6861737Y-26101764D01*
X7252213Y-25892240D02*
X7080785Y-26149383D01*
X7509356Y-25901764D02*
X7528404Y-25901764D01*
X7528404Y-25901764D02*
X7547452Y-25911288D01*
X7547452Y-25911288D02*
X7556975Y-25920811D01*
X7556975Y-25920811D02*
X7566499Y-25939859D01*
X7566499Y-25939859D02*
X7576023Y-25977954D01*
X7576023Y-25977954D02*
X7576023Y-26025573D01*
X7576023Y-26025573D02*
X7566499Y-26063668D01*
X7566499Y-26063668D02*
X7556975Y-26082716D01*
X7556975Y-26082716D02*
X7547452Y-26092240D01*
X7547452Y-26092240D02*
X7528404Y-26101764D01*
X7528404Y-26101764D02*
X7509356Y-26101764D01*
X7509356Y-26101764D02*
X7490309Y-26092240D01*
X7490309Y-26092240D02*
X7480785Y-26082716D01*
X7480785Y-26082716D02*
X7471261Y-26063668D01*
X7471261Y-26063668D02*
X7461737Y-26025573D01*
X7461737Y-26025573D02*
X7461737Y-25977954D01*
X7461737Y-25977954D02*
X7471261Y-25939859D01*
X7471261Y-25939859D02*
X7480785Y-25920811D01*
X7480785Y-25920811D02*
X7490309Y-25911288D01*
X7490309Y-25911288D02*
X7509356Y-25901764D01*
X7661737Y-26082716D02*
X7671261Y-26092240D01*
X7671261Y-26092240D02*
X7661737Y-26101764D01*
X7661737Y-26101764D02*
X7652213Y-26092240D01*
X7652213Y-26092240D02*
X7661737Y-26082716D01*
X7661737Y-26082716D02*
X7661737Y-26101764D01*
X7795071Y-25901764D02*
X7814118Y-25901764D01*
X7814118Y-25901764D02*
X7833166Y-25911288D01*
X7833166Y-25911288D02*
X7842690Y-25920811D01*
X7842690Y-25920811D02*
X7852213Y-25939859D01*
X7852213Y-25939859D02*
X7861737Y-25977954D01*
X7861737Y-25977954D02*
X7861737Y-26025573D01*
X7861737Y-26025573D02*
X7852213Y-26063668D01*
X7852213Y-26063668D02*
X7842690Y-26082716D01*
X7842690Y-26082716D02*
X7833166Y-26092240D01*
X7833166Y-26092240D02*
X7814118Y-26101764D01*
X7814118Y-26101764D02*
X7795071Y-26101764D01*
X7795071Y-26101764D02*
X7776023Y-26092240D01*
X7776023Y-26092240D02*
X7766499Y-26082716D01*
X7766499Y-26082716D02*
X7756975Y-26063668D01*
X7756975Y-26063668D02*
X7747452Y-26025573D01*
X7747452Y-26025573D02*
X7747452Y-25977954D01*
X7747452Y-25977954D02*
X7756975Y-25939859D01*
X7756975Y-25939859D02*
X7766499Y-25920811D01*
X7766499Y-25920811D02*
X7776023Y-25911288D01*
X7776023Y-25911288D02*
X7795071Y-25901764D01*
X7928404Y-25901764D02*
X8052213Y-25901764D01*
X8052213Y-25901764D02*
X7985547Y-25977954D01*
X7985547Y-25977954D02*
X8014118Y-25977954D01*
X8014118Y-25977954D02*
X8033166Y-25987478D01*
X8033166Y-25987478D02*
X8042690Y-25997002D01*
X8042690Y-25997002D02*
X8052213Y-26016049D01*
X8052213Y-26016049D02*
X8052213Y-26063668D01*
X8052213Y-26063668D02*
X8042690Y-26082716D01*
X8042690Y-26082716D02*
X8033166Y-26092240D01*
X8033166Y-26092240D02*
X8014118Y-26101764D01*
X8014118Y-26101764D02*
X7956975Y-26101764D01*
X7956975Y-26101764D02*
X7937928Y-26092240D01*
X7937928Y-26092240D02*
X7928404Y-26082716D01*
X8242690Y-26101764D02*
X8128404Y-26101764D01*
X8185547Y-26101764D02*
X8185547Y-25901764D01*
X8185547Y-25901764D02*
X8166499Y-25930335D01*
X8166499Y-25930335D02*
X8147452Y-25949383D01*
X8147452Y-25949383D02*
X8128404Y-25958907D01*
X8423642Y-25901764D02*
X8328404Y-25901764D01*
X8328404Y-25901764D02*
X8318880Y-25997002D01*
X8318880Y-25997002D02*
X8328404Y-25987478D01*
X8328404Y-25987478D02*
X8347452Y-25977954D01*
X8347452Y-25977954D02*
X8395071Y-25977954D01*
X8395071Y-25977954D02*
X8414118Y-25987478D01*
X8414118Y-25987478D02*
X8423642Y-25997002D01*
X8423642Y-25997002D02*
X8433166Y-26016049D01*
X8433166Y-26016049D02*
X8433166Y-26063668D01*
X8433166Y-26063668D02*
X8423642Y-26082716D01*
X8423642Y-26082716D02*
X8414118Y-26092240D01*
X8414118Y-26092240D02*
X8395071Y-26101764D01*
X8395071Y-26101764D02*
X8347452Y-26101764D01*
X8347452Y-26101764D02*
X8328404Y-26092240D01*
X8328404Y-26092240D02*
X8318880Y-26082716D01*
X8509356Y-25901764D02*
X8509356Y-25939859D01*
X8585547Y-25901764D02*
X8585547Y-25939859D01*
X8880785Y-26177954D02*
X8871261Y-26168430D01*
X8871261Y-26168430D02*
X8852214Y-26139859D01*
X8852214Y-26139859D02*
X8842690Y-26120811D01*
X8842690Y-26120811D02*
X8833166Y-26092240D01*
X8833166Y-26092240D02*
X8823642Y-26044621D01*
X8823642Y-26044621D02*
X8823642Y-26006526D01*
X8823642Y-26006526D02*
X8833166Y-25958907D01*
X8833166Y-25958907D02*
X8842690Y-25930335D01*
X8842690Y-25930335D02*
X8852214Y-25911288D01*
X8852214Y-25911288D02*
X8871261Y-25882716D01*
X8871261Y-25882716D02*
X8880785Y-25873192D01*
X9052214Y-25901764D02*
X8956976Y-25901764D01*
X8956976Y-25901764D02*
X8947452Y-25997002D01*
X8947452Y-25997002D02*
X8956976Y-25987478D01*
X8956976Y-25987478D02*
X8976023Y-25977954D01*
X8976023Y-25977954D02*
X9023642Y-25977954D01*
X9023642Y-25977954D02*
X9042690Y-25987478D01*
X9042690Y-25987478D02*
X9052214Y-25997002D01*
X9052214Y-25997002D02*
X9061737Y-26016049D01*
X9061737Y-26016049D02*
X9061737Y-26063668D01*
X9061737Y-26063668D02*
X9052214Y-26082716D01*
X9052214Y-26082716D02*
X9042690Y-26092240D01*
X9042690Y-26092240D02*
X9023642Y-26101764D01*
X9023642Y-26101764D02*
X8976023Y-26101764D01*
X8976023Y-26101764D02*
X8956976Y-26092240D01*
X8956976Y-26092240D02*
X8947452Y-26082716D01*
X9185547Y-25901764D02*
X9204595Y-25901764D01*
X9204595Y-25901764D02*
X9223642Y-25911288D01*
X9223642Y-25911288D02*
X9233166Y-25920811D01*
X9233166Y-25920811D02*
X9242690Y-25939859D01*
X9242690Y-25939859D02*
X9252214Y-25977954D01*
X9252214Y-25977954D02*
X9252214Y-26025573D01*
X9252214Y-26025573D02*
X9242690Y-26063668D01*
X9242690Y-26063668D02*
X9233166Y-26082716D01*
X9233166Y-26082716D02*
X9223642Y-26092240D01*
X9223642Y-26092240D02*
X9204595Y-26101764D01*
X9204595Y-26101764D02*
X9185547Y-26101764D01*
X9185547Y-26101764D02*
X9166499Y-26092240D01*
X9166499Y-26092240D02*
X9156976Y-26082716D01*
X9156976Y-26082716D02*
X9147452Y-26063668D01*
X9147452Y-26063668D02*
X9137928Y-26025573D01*
X9137928Y-26025573D02*
X9137928Y-25977954D01*
X9137928Y-25977954D02*
X9147452Y-25939859D01*
X9147452Y-25939859D02*
X9156976Y-25920811D01*
X9156976Y-25920811D02*
X9166499Y-25911288D01*
X9166499Y-25911288D02*
X9185547Y-25901764D01*
X9490309Y-26101764D02*
X9490309Y-25901764D01*
X9576023Y-26101764D02*
X9576023Y-25997002D01*
X9576023Y-25997002D02*
X9566499Y-25977954D01*
X9566499Y-25977954D02*
X9547452Y-25968430D01*
X9547452Y-25968430D02*
X9518880Y-25968430D01*
X9518880Y-25968430D02*
X9499833Y-25977954D01*
X9499833Y-25977954D02*
X9490309Y-25987478D01*
X9699833Y-26101764D02*
X9680785Y-26092240D01*
X9680785Y-26092240D02*
X9671261Y-26082716D01*
X9671261Y-26082716D02*
X9661738Y-26063668D01*
X9661738Y-26063668D02*
X9661738Y-26006526D01*
X9661738Y-26006526D02*
X9671261Y-25987478D01*
X9671261Y-25987478D02*
X9680785Y-25977954D01*
X9680785Y-25977954D02*
X9699833Y-25968430D01*
X9699833Y-25968430D02*
X9728404Y-25968430D01*
X9728404Y-25968430D02*
X9747452Y-25977954D01*
X9747452Y-25977954D02*
X9756976Y-25987478D01*
X9756976Y-25987478D02*
X9766499Y-26006526D01*
X9766499Y-26006526D02*
X9766499Y-26063668D01*
X9766499Y-26063668D02*
X9756976Y-26082716D01*
X9756976Y-26082716D02*
X9747452Y-26092240D01*
X9747452Y-26092240D02*
X9728404Y-26101764D01*
X9728404Y-26101764D02*
X9699833Y-26101764D01*
X9880785Y-26101764D02*
X9861738Y-26092240D01*
X9861738Y-26092240D02*
X9852214Y-26073192D01*
X9852214Y-26073192D02*
X9852214Y-25901764D01*
X10033166Y-26092240D02*
X10014119Y-26101764D01*
X10014119Y-26101764D02*
X9976023Y-26101764D01*
X9976023Y-26101764D02*
X9956976Y-26092240D01*
X9956976Y-26092240D02*
X9947452Y-26073192D01*
X9947452Y-26073192D02*
X9947452Y-25997002D01*
X9947452Y-25997002D02*
X9956976Y-25977954D01*
X9956976Y-25977954D02*
X9976023Y-25968430D01*
X9976023Y-25968430D02*
X10014119Y-25968430D01*
X10014119Y-25968430D02*
X10033166Y-25977954D01*
X10033166Y-25977954D02*
X10042690Y-25997002D01*
X10042690Y-25997002D02*
X10042690Y-26016049D01*
X10042690Y-26016049D02*
X9947452Y-26035097D01*
X10118880Y-26092240D02*
X10137928Y-26101764D01*
X10137928Y-26101764D02*
X10176023Y-26101764D01*
X10176023Y-26101764D02*
X10195071Y-26092240D01*
X10195071Y-26092240D02*
X10204595Y-26073192D01*
X10204595Y-26073192D02*
X10204595Y-26063668D01*
X10204595Y-26063668D02*
X10195071Y-26044621D01*
X10195071Y-26044621D02*
X10176023Y-26035097D01*
X10176023Y-26035097D02*
X10147452Y-26035097D01*
X10147452Y-26035097D02*
X10128404Y-26025573D01*
X10128404Y-26025573D02*
X10118880Y-26006526D01*
X10118880Y-26006526D02*
X10118880Y-25997002D01*
X10118880Y-25997002D02*
X10128404Y-25977954D01*
X10128404Y-25977954D02*
X10147452Y-25968430D01*
X10147452Y-25968430D02*
X10176023Y-25968430D01*
X10176023Y-25968430D02*
X10195071Y-25977954D01*
X10271261Y-26177954D02*
X10280785Y-26168430D01*
X10280785Y-26168430D02*
X10299833Y-26139859D01*
X10299833Y-26139859D02*
X10309357Y-26120811D01*
X10309357Y-26120811D02*
X10318880Y-26092240D01*
X10318880Y-26092240D02*
X10328404Y-26044621D01*
X10328404Y-26044621D02*
X10328404Y-26006526D01*
X10328404Y-26006526D02*
X10318880Y-25958907D01*
X10318880Y-25958907D02*
X10309357Y-25930335D01*
X10309357Y-25930335D02*
X10299833Y-25911288D01*
X10299833Y-25911288D02*
X10280785Y-25882716D01*
X10280785Y-25882716D02*
X10271261Y-25873192D01*
D14*
X5273880Y-26228240D02*
X5273880Y-26318240D01*
X5228880Y-26273240D02*
X5318880Y-26273240D01*
D11*
X5604594Y-26165764D02*
X5623642Y-26165764D01*
X5623642Y-26165764D02*
X5642689Y-26175288D01*
X5642689Y-26175288D02*
X5652213Y-26184811D01*
X5652213Y-26184811D02*
X5661737Y-26203859D01*
X5661737Y-26203859D02*
X5671261Y-26241954D01*
X5671261Y-26241954D02*
X5671261Y-26289573D01*
X5671261Y-26289573D02*
X5661737Y-26327668D01*
X5661737Y-26327668D02*
X5652213Y-26346716D01*
X5652213Y-26346716D02*
X5642689Y-26356240D01*
X5642689Y-26356240D02*
X5623642Y-26365764D01*
X5623642Y-26365764D02*
X5604594Y-26365764D01*
X5604594Y-26365764D02*
X5585547Y-26356240D01*
X5585547Y-26356240D02*
X5576023Y-26346716D01*
X5576023Y-26346716D02*
X5566499Y-26327668D01*
X5566499Y-26327668D02*
X5556975Y-26289573D01*
X5556975Y-26289573D02*
X5556975Y-26241954D01*
X5556975Y-26241954D02*
X5566499Y-26203859D01*
X5566499Y-26203859D02*
X5576023Y-26184811D01*
X5576023Y-26184811D02*
X5585547Y-26175288D01*
X5585547Y-26175288D02*
X5604594Y-26165764D01*
X5756975Y-26346716D02*
X5766499Y-26356240D01*
X5766499Y-26356240D02*
X5756975Y-26365764D01*
X5756975Y-26365764D02*
X5747451Y-26356240D01*
X5747451Y-26356240D02*
X5756975Y-26346716D01*
X5756975Y-26346716D02*
X5756975Y-26365764D01*
X5861737Y-26365764D02*
X5899832Y-26365764D01*
X5899832Y-26365764D02*
X5918880Y-26356240D01*
X5918880Y-26356240D02*
X5928404Y-26346716D01*
X5928404Y-26346716D02*
X5947451Y-26318145D01*
X5947451Y-26318145D02*
X5956975Y-26280049D01*
X5956975Y-26280049D02*
X5956975Y-26203859D01*
X5956975Y-26203859D02*
X5947451Y-26184811D01*
X5947451Y-26184811D02*
X5937928Y-26175288D01*
X5937928Y-26175288D02*
X5918880Y-26165764D01*
X5918880Y-26165764D02*
X5880785Y-26165764D01*
X5880785Y-26165764D02*
X5861737Y-26175288D01*
X5861737Y-26175288D02*
X5852213Y-26184811D01*
X5852213Y-26184811D02*
X5842689Y-26203859D01*
X5842689Y-26203859D02*
X5842689Y-26251478D01*
X5842689Y-26251478D02*
X5852213Y-26270526D01*
X5852213Y-26270526D02*
X5861737Y-26280049D01*
X5861737Y-26280049D02*
X5880785Y-26289573D01*
X5880785Y-26289573D02*
X5918880Y-26289573D01*
X5918880Y-26289573D02*
X5937928Y-26280049D01*
X5937928Y-26280049D02*
X5947451Y-26270526D01*
X5947451Y-26270526D02*
X5956975Y-26251478D01*
X6080785Y-26165764D02*
X6099832Y-26165764D01*
X6099832Y-26165764D02*
X6118880Y-26175288D01*
X6118880Y-26175288D02*
X6128404Y-26184811D01*
X6128404Y-26184811D02*
X6137928Y-26203859D01*
X6137928Y-26203859D02*
X6147451Y-26241954D01*
X6147451Y-26241954D02*
X6147451Y-26289573D01*
X6147451Y-26289573D02*
X6137928Y-26327668D01*
X6137928Y-26327668D02*
X6128404Y-26346716D01*
X6128404Y-26346716D02*
X6118880Y-26356240D01*
X6118880Y-26356240D02*
X6099832Y-26365764D01*
X6099832Y-26365764D02*
X6080785Y-26365764D01*
X6080785Y-26365764D02*
X6061737Y-26356240D01*
X6061737Y-26356240D02*
X6052213Y-26346716D01*
X6052213Y-26346716D02*
X6042689Y-26327668D01*
X6042689Y-26327668D02*
X6033166Y-26289573D01*
X6033166Y-26289573D02*
X6033166Y-26241954D01*
X6033166Y-26241954D02*
X6042689Y-26203859D01*
X6042689Y-26203859D02*
X6052213Y-26184811D01*
X6052213Y-26184811D02*
X6061737Y-26175288D01*
X6061737Y-26175288D02*
X6080785Y-26165764D01*
X6271261Y-26165764D02*
X6290309Y-26165764D01*
X6290309Y-26165764D02*
X6309356Y-26175288D01*
X6309356Y-26175288D02*
X6318880Y-26184811D01*
X6318880Y-26184811D02*
X6328404Y-26203859D01*
X6328404Y-26203859D02*
X6337928Y-26241954D01*
X6337928Y-26241954D02*
X6337928Y-26289573D01*
X6337928Y-26289573D02*
X6328404Y-26327668D01*
X6328404Y-26327668D02*
X6318880Y-26346716D01*
X6318880Y-26346716D02*
X6309356Y-26356240D01*
X6309356Y-26356240D02*
X6290309Y-26365764D01*
X6290309Y-26365764D02*
X6271261Y-26365764D01*
X6271261Y-26365764D02*
X6252213Y-26356240D01*
X6252213Y-26356240D02*
X6242689Y-26346716D01*
X6242689Y-26346716D02*
X6233166Y-26327668D01*
X6233166Y-26327668D02*
X6223642Y-26289573D01*
X6223642Y-26289573D02*
X6223642Y-26241954D01*
X6223642Y-26241954D02*
X6233166Y-26203859D01*
X6233166Y-26203859D02*
X6242689Y-26184811D01*
X6242689Y-26184811D02*
X6252213Y-26175288D01*
X6252213Y-26175288D02*
X6271261Y-26165764D01*
X6423642Y-26365764D02*
X6423642Y-26232430D01*
X6423642Y-26251478D02*
X6433166Y-26241954D01*
X6433166Y-26241954D02*
X6452213Y-26232430D01*
X6452213Y-26232430D02*
X6480785Y-26232430D01*
X6480785Y-26232430D02*
X6499832Y-26241954D01*
X6499832Y-26241954D02*
X6509356Y-26261002D01*
X6509356Y-26261002D02*
X6509356Y-26365764D01*
X6509356Y-26261002D02*
X6518880Y-26241954D01*
X6518880Y-26241954D02*
X6537928Y-26232430D01*
X6537928Y-26232430D02*
X6566499Y-26232430D01*
X6566499Y-26232430D02*
X6585547Y-26241954D01*
X6585547Y-26241954D02*
X6595070Y-26261002D01*
X6595070Y-26261002D02*
X6595070Y-26365764D01*
X6690309Y-26365764D02*
X6690309Y-26232430D01*
X6690309Y-26251478D02*
X6699832Y-26241954D01*
X6699832Y-26241954D02*
X6718880Y-26232430D01*
X6718880Y-26232430D02*
X6747451Y-26232430D01*
X6747451Y-26232430D02*
X6766499Y-26241954D01*
X6766499Y-26241954D02*
X6776023Y-26261002D01*
X6776023Y-26261002D02*
X6776023Y-26365764D01*
X6776023Y-26261002D02*
X6785547Y-26241954D01*
X6785547Y-26241954D02*
X6804594Y-26232430D01*
X6804594Y-26232430D02*
X6833166Y-26232430D01*
X6833166Y-26232430D02*
X6852213Y-26241954D01*
X6852213Y-26241954D02*
X6861737Y-26261002D01*
X6861737Y-26261002D02*
X6861737Y-26365764D01*
X7252213Y-26156240D02*
X7080785Y-26413383D01*
X7509356Y-26165764D02*
X7528404Y-26165764D01*
X7528404Y-26165764D02*
X7547452Y-26175288D01*
X7547452Y-26175288D02*
X7556975Y-26184811D01*
X7556975Y-26184811D02*
X7566499Y-26203859D01*
X7566499Y-26203859D02*
X7576023Y-26241954D01*
X7576023Y-26241954D02*
X7576023Y-26289573D01*
X7576023Y-26289573D02*
X7566499Y-26327668D01*
X7566499Y-26327668D02*
X7556975Y-26346716D01*
X7556975Y-26346716D02*
X7547452Y-26356240D01*
X7547452Y-26356240D02*
X7528404Y-26365764D01*
X7528404Y-26365764D02*
X7509356Y-26365764D01*
X7509356Y-26365764D02*
X7490309Y-26356240D01*
X7490309Y-26356240D02*
X7480785Y-26346716D01*
X7480785Y-26346716D02*
X7471261Y-26327668D01*
X7471261Y-26327668D02*
X7461737Y-26289573D01*
X7461737Y-26289573D02*
X7461737Y-26241954D01*
X7461737Y-26241954D02*
X7471261Y-26203859D01*
X7471261Y-26203859D02*
X7480785Y-26184811D01*
X7480785Y-26184811D02*
X7490309Y-26175288D01*
X7490309Y-26175288D02*
X7509356Y-26165764D01*
X7661737Y-26346716D02*
X7671261Y-26356240D01*
X7671261Y-26356240D02*
X7661737Y-26365764D01*
X7661737Y-26365764D02*
X7652213Y-26356240D01*
X7652213Y-26356240D02*
X7661737Y-26346716D01*
X7661737Y-26346716D02*
X7661737Y-26365764D01*
X7795071Y-26165764D02*
X7814118Y-26165764D01*
X7814118Y-26165764D02*
X7833166Y-26175288D01*
X7833166Y-26175288D02*
X7842690Y-26184811D01*
X7842690Y-26184811D02*
X7852213Y-26203859D01*
X7852213Y-26203859D02*
X7861737Y-26241954D01*
X7861737Y-26241954D02*
X7861737Y-26289573D01*
X7861737Y-26289573D02*
X7852213Y-26327668D01*
X7852213Y-26327668D02*
X7842690Y-26346716D01*
X7842690Y-26346716D02*
X7833166Y-26356240D01*
X7833166Y-26356240D02*
X7814118Y-26365764D01*
X7814118Y-26365764D02*
X7795071Y-26365764D01*
X7795071Y-26365764D02*
X7776023Y-26356240D01*
X7776023Y-26356240D02*
X7766499Y-26346716D01*
X7766499Y-26346716D02*
X7756975Y-26327668D01*
X7756975Y-26327668D02*
X7747452Y-26289573D01*
X7747452Y-26289573D02*
X7747452Y-26241954D01*
X7747452Y-26241954D02*
X7756975Y-26203859D01*
X7756975Y-26203859D02*
X7766499Y-26184811D01*
X7766499Y-26184811D02*
X7776023Y-26175288D01*
X7776023Y-26175288D02*
X7795071Y-26165764D01*
X7928404Y-26165764D02*
X8052213Y-26165764D01*
X8052213Y-26165764D02*
X7985547Y-26241954D01*
X7985547Y-26241954D02*
X8014118Y-26241954D01*
X8014118Y-26241954D02*
X8033166Y-26251478D01*
X8033166Y-26251478D02*
X8042690Y-26261002D01*
X8042690Y-26261002D02*
X8052213Y-26280049D01*
X8052213Y-26280049D02*
X8052213Y-26327668D01*
X8052213Y-26327668D02*
X8042690Y-26346716D01*
X8042690Y-26346716D02*
X8033166Y-26356240D01*
X8033166Y-26356240D02*
X8014118Y-26365764D01*
X8014118Y-26365764D02*
X7956975Y-26365764D01*
X7956975Y-26365764D02*
X7937928Y-26356240D01*
X7937928Y-26356240D02*
X7928404Y-26346716D01*
X8233166Y-26165764D02*
X8137928Y-26165764D01*
X8137928Y-26165764D02*
X8128404Y-26261002D01*
X8128404Y-26261002D02*
X8137928Y-26251478D01*
X8137928Y-26251478D02*
X8156975Y-26241954D01*
X8156975Y-26241954D02*
X8204594Y-26241954D01*
X8204594Y-26241954D02*
X8223642Y-26251478D01*
X8223642Y-26251478D02*
X8233166Y-26261002D01*
X8233166Y-26261002D02*
X8242690Y-26280049D01*
X8242690Y-26280049D02*
X8242690Y-26327668D01*
X8242690Y-26327668D02*
X8233166Y-26346716D01*
X8233166Y-26346716D02*
X8223642Y-26356240D01*
X8223642Y-26356240D02*
X8204594Y-26365764D01*
X8204594Y-26365764D02*
X8156975Y-26365764D01*
X8156975Y-26365764D02*
X8137928Y-26356240D01*
X8137928Y-26356240D02*
X8128404Y-26346716D01*
X8414118Y-26232430D02*
X8414118Y-26365764D01*
X8366499Y-26156240D02*
X8318880Y-26299097D01*
X8318880Y-26299097D02*
X8442690Y-26299097D01*
X8509356Y-26165764D02*
X8509356Y-26203859D01*
X8585547Y-26165764D02*
X8585547Y-26203859D01*
X8880785Y-26441954D02*
X8871261Y-26432430D01*
X8871261Y-26432430D02*
X8852214Y-26403859D01*
X8852214Y-26403859D02*
X8842690Y-26384811D01*
X8842690Y-26384811D02*
X8833166Y-26356240D01*
X8833166Y-26356240D02*
X8823642Y-26308621D01*
X8823642Y-26308621D02*
X8823642Y-26270526D01*
X8823642Y-26270526D02*
X8833166Y-26222907D01*
X8833166Y-26222907D02*
X8842690Y-26194335D01*
X8842690Y-26194335D02*
X8852214Y-26175288D01*
X8852214Y-26175288D02*
X8871261Y-26146716D01*
X8871261Y-26146716D02*
X8880785Y-26137192D01*
X8985547Y-26251478D02*
X8966499Y-26241954D01*
X8966499Y-26241954D02*
X8956976Y-26232430D01*
X8956976Y-26232430D02*
X8947452Y-26213383D01*
X8947452Y-26213383D02*
X8947452Y-26203859D01*
X8947452Y-26203859D02*
X8956976Y-26184811D01*
X8956976Y-26184811D02*
X8966499Y-26175288D01*
X8966499Y-26175288D02*
X8985547Y-26165764D01*
X8985547Y-26165764D02*
X9023642Y-26165764D01*
X9023642Y-26165764D02*
X9042690Y-26175288D01*
X9042690Y-26175288D02*
X9052214Y-26184811D01*
X9052214Y-26184811D02*
X9061737Y-26203859D01*
X9061737Y-26203859D02*
X9061737Y-26213383D01*
X9061737Y-26213383D02*
X9052214Y-26232430D01*
X9052214Y-26232430D02*
X9042690Y-26241954D01*
X9042690Y-26241954D02*
X9023642Y-26251478D01*
X9023642Y-26251478D02*
X8985547Y-26251478D01*
X8985547Y-26251478D02*
X8966499Y-26261002D01*
X8966499Y-26261002D02*
X8956976Y-26270526D01*
X8956976Y-26270526D02*
X8947452Y-26289573D01*
X8947452Y-26289573D02*
X8947452Y-26327668D01*
X8947452Y-26327668D02*
X8956976Y-26346716D01*
X8956976Y-26346716D02*
X8966499Y-26356240D01*
X8966499Y-26356240D02*
X8985547Y-26365764D01*
X8985547Y-26365764D02*
X9023642Y-26365764D01*
X9023642Y-26365764D02*
X9042690Y-26356240D01*
X9042690Y-26356240D02*
X9052214Y-26346716D01*
X9052214Y-26346716D02*
X9061737Y-26327668D01*
X9061737Y-26327668D02*
X9061737Y-26289573D01*
X9061737Y-26289573D02*
X9052214Y-26270526D01*
X9052214Y-26270526D02*
X9042690Y-26261002D01*
X9042690Y-26261002D02*
X9023642Y-26251478D01*
X9299833Y-26365764D02*
X9299833Y-26165764D01*
X9385547Y-26365764D02*
X9385547Y-26261002D01*
X9385547Y-26261002D02*
X9376023Y-26241954D01*
X9376023Y-26241954D02*
X9356976Y-26232430D01*
X9356976Y-26232430D02*
X9328404Y-26232430D01*
X9328404Y-26232430D02*
X9309357Y-26241954D01*
X9309357Y-26241954D02*
X9299833Y-26251478D01*
X9509357Y-26365764D02*
X9490309Y-26356240D01*
X9490309Y-26356240D02*
X9480785Y-26346716D01*
X9480785Y-26346716D02*
X9471261Y-26327668D01*
X9471261Y-26327668D02*
X9471261Y-26270526D01*
X9471261Y-26270526D02*
X9480785Y-26251478D01*
X9480785Y-26251478D02*
X9490309Y-26241954D01*
X9490309Y-26241954D02*
X9509357Y-26232430D01*
X9509357Y-26232430D02*
X9537928Y-26232430D01*
X9537928Y-26232430D02*
X9556976Y-26241954D01*
X9556976Y-26241954D02*
X9566499Y-26251478D01*
X9566499Y-26251478D02*
X9576023Y-26270526D01*
X9576023Y-26270526D02*
X9576023Y-26327668D01*
X9576023Y-26327668D02*
X9566499Y-26346716D01*
X9566499Y-26346716D02*
X9556976Y-26356240D01*
X9556976Y-26356240D02*
X9537928Y-26365764D01*
X9537928Y-26365764D02*
X9509357Y-26365764D01*
X9690309Y-26365764D02*
X9671261Y-26356240D01*
X9671261Y-26356240D02*
X9661738Y-26337192D01*
X9661738Y-26337192D02*
X9661738Y-26165764D01*
X9842690Y-26356240D02*
X9823642Y-26365764D01*
X9823642Y-26365764D02*
X9785547Y-26365764D01*
X9785547Y-26365764D02*
X9766499Y-26356240D01*
X9766499Y-26356240D02*
X9756976Y-26337192D01*
X9756976Y-26337192D02*
X9756976Y-26261002D01*
X9756976Y-26261002D02*
X9766499Y-26241954D01*
X9766499Y-26241954D02*
X9785547Y-26232430D01*
X9785547Y-26232430D02*
X9823642Y-26232430D01*
X9823642Y-26232430D02*
X9842690Y-26241954D01*
X9842690Y-26241954D02*
X9852214Y-26261002D01*
X9852214Y-26261002D02*
X9852214Y-26280049D01*
X9852214Y-26280049D02*
X9756976Y-26299097D01*
X9928404Y-26356240D02*
X9947452Y-26365764D01*
X9947452Y-26365764D02*
X9985547Y-26365764D01*
X9985547Y-26365764D02*
X10004595Y-26356240D01*
X10004595Y-26356240D02*
X10014119Y-26337192D01*
X10014119Y-26337192D02*
X10014119Y-26327668D01*
X10014119Y-26327668D02*
X10004595Y-26308621D01*
X10004595Y-26308621D02*
X9985547Y-26299097D01*
X9985547Y-26299097D02*
X9956976Y-26299097D01*
X9956976Y-26299097D02*
X9937928Y-26289573D01*
X9937928Y-26289573D02*
X9928404Y-26270526D01*
X9928404Y-26270526D02*
X9928404Y-26261002D01*
X9928404Y-26261002D02*
X9937928Y-26241954D01*
X9937928Y-26241954D02*
X9956976Y-26232430D01*
X9956976Y-26232430D02*
X9985547Y-26232430D01*
X9985547Y-26232430D02*
X10004595Y-26241954D01*
X10080785Y-26441954D02*
X10090309Y-26432430D01*
X10090309Y-26432430D02*
X10109357Y-26403859D01*
X10109357Y-26403859D02*
X10118880Y-26384811D01*
X10118880Y-26384811D02*
X10128404Y-26356240D01*
X10128404Y-26356240D02*
X10137928Y-26308621D01*
X10137928Y-26308621D02*
X10137928Y-26270526D01*
X10137928Y-26270526D02*
X10128404Y-26222907D01*
X10128404Y-26222907D02*
X10118880Y-26194335D01*
X10118880Y-26194335D02*
X10109357Y-26175288D01*
X10109357Y-26175288D02*
X10090309Y-26146716D01*
X10090309Y-26146716D02*
X10080785Y-26137192D01*
D15*
X5304236Y-26572596D02*
X5304236Y-26501884D01*
X5233524Y-26501884D01*
X5233524Y-26572596D01*
X5304236Y-26572596D01*
D11*
X5671261Y-26629764D02*
X5556975Y-26629764D01*
X5614118Y-26629764D02*
X5614118Y-26429764D01*
X5614118Y-26429764D02*
X5595070Y-26458335D01*
X5595070Y-26458335D02*
X5576023Y-26477383D01*
X5576023Y-26477383D02*
X5556975Y-26486907D01*
X5756975Y-26610716D02*
X5766499Y-26620240D01*
X5766499Y-26620240D02*
X5756975Y-26629764D01*
X5756975Y-26629764D02*
X5747451Y-26620240D01*
X5747451Y-26620240D02*
X5756975Y-26610716D01*
X5756975Y-26610716D02*
X5756975Y-26629764D01*
X5890308Y-26429764D02*
X5909356Y-26429764D01*
X5909356Y-26429764D02*
X5928404Y-26439288D01*
X5928404Y-26439288D02*
X5937928Y-26448811D01*
X5937928Y-26448811D02*
X5947451Y-26467859D01*
X5947451Y-26467859D02*
X5956975Y-26505954D01*
X5956975Y-26505954D02*
X5956975Y-26553573D01*
X5956975Y-26553573D02*
X5947451Y-26591668D01*
X5947451Y-26591668D02*
X5937928Y-26610716D01*
X5937928Y-26610716D02*
X5928404Y-26620240D01*
X5928404Y-26620240D02*
X5909356Y-26629764D01*
X5909356Y-26629764D02*
X5890308Y-26629764D01*
X5890308Y-26629764D02*
X5871261Y-26620240D01*
X5871261Y-26620240D02*
X5861737Y-26610716D01*
X5861737Y-26610716D02*
X5852213Y-26591668D01*
X5852213Y-26591668D02*
X5842689Y-26553573D01*
X5842689Y-26553573D02*
X5842689Y-26505954D01*
X5842689Y-26505954D02*
X5852213Y-26467859D01*
X5852213Y-26467859D02*
X5861737Y-26448811D01*
X5861737Y-26448811D02*
X5871261Y-26439288D01*
X5871261Y-26439288D02*
X5890308Y-26429764D01*
X6080785Y-26429764D02*
X6099832Y-26429764D01*
X6099832Y-26429764D02*
X6118880Y-26439288D01*
X6118880Y-26439288D02*
X6128404Y-26448811D01*
X6128404Y-26448811D02*
X6137928Y-26467859D01*
X6137928Y-26467859D02*
X6147451Y-26505954D01*
X6147451Y-26505954D02*
X6147451Y-26553573D01*
X6147451Y-26553573D02*
X6137928Y-26591668D01*
X6137928Y-26591668D02*
X6128404Y-26610716D01*
X6128404Y-26610716D02*
X6118880Y-26620240D01*
X6118880Y-26620240D02*
X6099832Y-26629764D01*
X6099832Y-26629764D02*
X6080785Y-26629764D01*
X6080785Y-26629764D02*
X6061737Y-26620240D01*
X6061737Y-26620240D02*
X6052213Y-26610716D01*
X6052213Y-26610716D02*
X6042689Y-26591668D01*
X6042689Y-26591668D02*
X6033166Y-26553573D01*
X6033166Y-26553573D02*
X6033166Y-26505954D01*
X6033166Y-26505954D02*
X6042689Y-26467859D01*
X6042689Y-26467859D02*
X6052213Y-26448811D01*
X6052213Y-26448811D02*
X6061737Y-26439288D01*
X6061737Y-26439288D02*
X6080785Y-26429764D01*
X6271261Y-26429764D02*
X6290309Y-26429764D01*
X6290309Y-26429764D02*
X6309356Y-26439288D01*
X6309356Y-26439288D02*
X6318880Y-26448811D01*
X6318880Y-26448811D02*
X6328404Y-26467859D01*
X6328404Y-26467859D02*
X6337928Y-26505954D01*
X6337928Y-26505954D02*
X6337928Y-26553573D01*
X6337928Y-26553573D02*
X6328404Y-26591668D01*
X6328404Y-26591668D02*
X6318880Y-26610716D01*
X6318880Y-26610716D02*
X6309356Y-26620240D01*
X6309356Y-26620240D02*
X6290309Y-26629764D01*
X6290309Y-26629764D02*
X6271261Y-26629764D01*
X6271261Y-26629764D02*
X6252213Y-26620240D01*
X6252213Y-26620240D02*
X6242689Y-26610716D01*
X6242689Y-26610716D02*
X6233166Y-26591668D01*
X6233166Y-26591668D02*
X6223642Y-26553573D01*
X6223642Y-26553573D02*
X6223642Y-26505954D01*
X6223642Y-26505954D02*
X6233166Y-26467859D01*
X6233166Y-26467859D02*
X6242689Y-26448811D01*
X6242689Y-26448811D02*
X6252213Y-26439288D01*
X6252213Y-26439288D02*
X6271261Y-26429764D01*
X6423642Y-26629764D02*
X6423642Y-26496430D01*
X6423642Y-26515478D02*
X6433166Y-26505954D01*
X6433166Y-26505954D02*
X6452213Y-26496430D01*
X6452213Y-26496430D02*
X6480785Y-26496430D01*
X6480785Y-26496430D02*
X6499832Y-26505954D01*
X6499832Y-26505954D02*
X6509356Y-26525002D01*
X6509356Y-26525002D02*
X6509356Y-26629764D01*
X6509356Y-26525002D02*
X6518880Y-26505954D01*
X6518880Y-26505954D02*
X6537928Y-26496430D01*
X6537928Y-26496430D02*
X6566499Y-26496430D01*
X6566499Y-26496430D02*
X6585547Y-26505954D01*
X6585547Y-26505954D02*
X6595070Y-26525002D01*
X6595070Y-26525002D02*
X6595070Y-26629764D01*
X6690309Y-26629764D02*
X6690309Y-26496430D01*
X6690309Y-26515478D02*
X6699832Y-26505954D01*
X6699832Y-26505954D02*
X6718880Y-26496430D01*
X6718880Y-26496430D02*
X6747451Y-26496430D01*
X6747451Y-26496430D02*
X6766499Y-26505954D01*
X6766499Y-26505954D02*
X6776023Y-26525002D01*
X6776023Y-26525002D02*
X6776023Y-26629764D01*
X6776023Y-26525002D02*
X6785547Y-26505954D01*
X6785547Y-26505954D02*
X6804594Y-26496430D01*
X6804594Y-26496430D02*
X6833166Y-26496430D01*
X6833166Y-26496430D02*
X6852213Y-26505954D01*
X6852213Y-26505954D02*
X6861737Y-26525002D01*
X6861737Y-26525002D02*
X6861737Y-26629764D01*
X7252213Y-26420240D02*
X7080785Y-26677383D01*
X7509356Y-26429764D02*
X7528404Y-26429764D01*
X7528404Y-26429764D02*
X7547452Y-26439288D01*
X7547452Y-26439288D02*
X7556975Y-26448811D01*
X7556975Y-26448811D02*
X7566499Y-26467859D01*
X7566499Y-26467859D02*
X7576023Y-26505954D01*
X7576023Y-26505954D02*
X7576023Y-26553573D01*
X7576023Y-26553573D02*
X7566499Y-26591668D01*
X7566499Y-26591668D02*
X7556975Y-26610716D01*
X7556975Y-26610716D02*
X7547452Y-26620240D01*
X7547452Y-26620240D02*
X7528404Y-26629764D01*
X7528404Y-26629764D02*
X7509356Y-26629764D01*
X7509356Y-26629764D02*
X7490309Y-26620240D01*
X7490309Y-26620240D02*
X7480785Y-26610716D01*
X7480785Y-26610716D02*
X7471261Y-26591668D01*
X7471261Y-26591668D02*
X7461737Y-26553573D01*
X7461737Y-26553573D02*
X7461737Y-26505954D01*
X7461737Y-26505954D02*
X7471261Y-26467859D01*
X7471261Y-26467859D02*
X7480785Y-26448811D01*
X7480785Y-26448811D02*
X7490309Y-26439288D01*
X7490309Y-26439288D02*
X7509356Y-26429764D01*
X7661737Y-26610716D02*
X7671261Y-26620240D01*
X7671261Y-26620240D02*
X7661737Y-26629764D01*
X7661737Y-26629764D02*
X7652213Y-26620240D01*
X7652213Y-26620240D02*
X7661737Y-26610716D01*
X7661737Y-26610716D02*
X7661737Y-26629764D01*
X7795071Y-26429764D02*
X7814118Y-26429764D01*
X7814118Y-26429764D02*
X7833166Y-26439288D01*
X7833166Y-26439288D02*
X7842690Y-26448811D01*
X7842690Y-26448811D02*
X7852213Y-26467859D01*
X7852213Y-26467859D02*
X7861737Y-26505954D01*
X7861737Y-26505954D02*
X7861737Y-26553573D01*
X7861737Y-26553573D02*
X7852213Y-26591668D01*
X7852213Y-26591668D02*
X7842690Y-26610716D01*
X7842690Y-26610716D02*
X7833166Y-26620240D01*
X7833166Y-26620240D02*
X7814118Y-26629764D01*
X7814118Y-26629764D02*
X7795071Y-26629764D01*
X7795071Y-26629764D02*
X7776023Y-26620240D01*
X7776023Y-26620240D02*
X7766499Y-26610716D01*
X7766499Y-26610716D02*
X7756975Y-26591668D01*
X7756975Y-26591668D02*
X7747452Y-26553573D01*
X7747452Y-26553573D02*
X7747452Y-26505954D01*
X7747452Y-26505954D02*
X7756975Y-26467859D01*
X7756975Y-26467859D02*
X7766499Y-26448811D01*
X7766499Y-26448811D02*
X7776023Y-26439288D01*
X7776023Y-26439288D02*
X7795071Y-26429764D01*
X7928404Y-26429764D02*
X8052213Y-26429764D01*
X8052213Y-26429764D02*
X7985547Y-26505954D01*
X7985547Y-26505954D02*
X8014118Y-26505954D01*
X8014118Y-26505954D02*
X8033166Y-26515478D01*
X8033166Y-26515478D02*
X8042690Y-26525002D01*
X8042690Y-26525002D02*
X8052213Y-26544049D01*
X8052213Y-26544049D02*
X8052213Y-26591668D01*
X8052213Y-26591668D02*
X8042690Y-26610716D01*
X8042690Y-26610716D02*
X8033166Y-26620240D01*
X8033166Y-26620240D02*
X8014118Y-26629764D01*
X8014118Y-26629764D02*
X7956975Y-26629764D01*
X7956975Y-26629764D02*
X7937928Y-26620240D01*
X7937928Y-26620240D02*
X7928404Y-26610716D01*
X8147452Y-26629764D02*
X8185547Y-26629764D01*
X8185547Y-26629764D02*
X8204594Y-26620240D01*
X8204594Y-26620240D02*
X8214118Y-26610716D01*
X8214118Y-26610716D02*
X8233166Y-26582145D01*
X8233166Y-26582145D02*
X8242690Y-26544049D01*
X8242690Y-26544049D02*
X8242690Y-26467859D01*
X8242690Y-26467859D02*
X8233166Y-26448811D01*
X8233166Y-26448811D02*
X8223642Y-26439288D01*
X8223642Y-26439288D02*
X8204594Y-26429764D01*
X8204594Y-26429764D02*
X8166499Y-26429764D01*
X8166499Y-26429764D02*
X8147452Y-26439288D01*
X8147452Y-26439288D02*
X8137928Y-26448811D01*
X8137928Y-26448811D02*
X8128404Y-26467859D01*
X8128404Y-26467859D02*
X8128404Y-26515478D01*
X8128404Y-26515478D02*
X8137928Y-26534526D01*
X8137928Y-26534526D02*
X8147452Y-26544049D01*
X8147452Y-26544049D02*
X8166499Y-26553573D01*
X8166499Y-26553573D02*
X8204594Y-26553573D01*
X8204594Y-26553573D02*
X8223642Y-26544049D01*
X8223642Y-26544049D02*
X8233166Y-26534526D01*
X8233166Y-26534526D02*
X8242690Y-26515478D01*
X8414118Y-26496430D02*
X8414118Y-26629764D01*
X8366499Y-26420240D02*
X8318880Y-26563097D01*
X8318880Y-26563097D02*
X8442690Y-26563097D01*
X8509356Y-26429764D02*
X8509356Y-26467859D01*
X8585547Y-26429764D02*
X8585547Y-26467859D01*
X8880785Y-26705954D02*
X8871261Y-26696430D01*
X8871261Y-26696430D02*
X8852214Y-26667859D01*
X8852214Y-26667859D02*
X8842690Y-26648811D01*
X8842690Y-26648811D02*
X8833166Y-26620240D01*
X8833166Y-26620240D02*
X8823642Y-26572621D01*
X8823642Y-26572621D02*
X8823642Y-26534526D01*
X8823642Y-26534526D02*
X8833166Y-26486907D01*
X8833166Y-26486907D02*
X8842690Y-26458335D01*
X8842690Y-26458335D02*
X8852214Y-26439288D01*
X8852214Y-26439288D02*
X8871261Y-26410716D01*
X8871261Y-26410716D02*
X8880785Y-26401192D01*
X8947452Y-26448811D02*
X8956976Y-26439288D01*
X8956976Y-26439288D02*
X8976023Y-26429764D01*
X8976023Y-26429764D02*
X9023642Y-26429764D01*
X9023642Y-26429764D02*
X9042690Y-26439288D01*
X9042690Y-26439288D02*
X9052214Y-26448811D01*
X9052214Y-26448811D02*
X9061737Y-26467859D01*
X9061737Y-26467859D02*
X9061737Y-26486907D01*
X9061737Y-26486907D02*
X9052214Y-26515478D01*
X9052214Y-26515478D02*
X8937928Y-26629764D01*
X8937928Y-26629764D02*
X9061737Y-26629764D01*
X9242690Y-26429764D02*
X9147452Y-26429764D01*
X9147452Y-26429764D02*
X9137928Y-26525002D01*
X9137928Y-26525002D02*
X9147452Y-26515478D01*
X9147452Y-26515478D02*
X9166499Y-26505954D01*
X9166499Y-26505954D02*
X9214118Y-26505954D01*
X9214118Y-26505954D02*
X9233166Y-26515478D01*
X9233166Y-26515478D02*
X9242690Y-26525002D01*
X9242690Y-26525002D02*
X9252214Y-26544049D01*
X9252214Y-26544049D02*
X9252214Y-26591668D01*
X9252214Y-26591668D02*
X9242690Y-26610716D01*
X9242690Y-26610716D02*
X9233166Y-26620240D01*
X9233166Y-26620240D02*
X9214118Y-26629764D01*
X9214118Y-26629764D02*
X9166499Y-26629764D01*
X9166499Y-26629764D02*
X9147452Y-26620240D01*
X9147452Y-26620240D02*
X9137928Y-26610716D01*
X9490309Y-26629764D02*
X9490309Y-26429764D01*
X9576023Y-26629764D02*
X9576023Y-26525002D01*
X9576023Y-26525002D02*
X9566499Y-26505954D01*
X9566499Y-26505954D02*
X9547452Y-26496430D01*
X9547452Y-26496430D02*
X9518880Y-26496430D01*
X9518880Y-26496430D02*
X9499833Y-26505954D01*
X9499833Y-26505954D02*
X9490309Y-26515478D01*
X9699833Y-26629764D02*
X9680785Y-26620240D01*
X9680785Y-26620240D02*
X9671261Y-26610716D01*
X9671261Y-26610716D02*
X9661738Y-26591668D01*
X9661738Y-26591668D02*
X9661738Y-26534526D01*
X9661738Y-26534526D02*
X9671261Y-26515478D01*
X9671261Y-26515478D02*
X9680785Y-26505954D01*
X9680785Y-26505954D02*
X9699833Y-26496430D01*
X9699833Y-26496430D02*
X9728404Y-26496430D01*
X9728404Y-26496430D02*
X9747452Y-26505954D01*
X9747452Y-26505954D02*
X9756976Y-26515478D01*
X9756976Y-26515478D02*
X9766499Y-26534526D01*
X9766499Y-26534526D02*
X9766499Y-26591668D01*
X9766499Y-26591668D02*
X9756976Y-26610716D01*
X9756976Y-26610716D02*
X9747452Y-26620240D01*
X9747452Y-26620240D02*
X9728404Y-26629764D01*
X9728404Y-26629764D02*
X9699833Y-26629764D01*
X9880785Y-26629764D02*
X9861738Y-26620240D01*
X9861738Y-26620240D02*
X9852214Y-26601192D01*
X9852214Y-26601192D02*
X9852214Y-26429764D01*
X10033166Y-26620240D02*
X10014119Y-26629764D01*
X10014119Y-26629764D02*
X9976023Y-26629764D01*
X9976023Y-26629764D02*
X9956976Y-26620240D01*
X9956976Y-26620240D02*
X9947452Y-26601192D01*
X9947452Y-26601192D02*
X9947452Y-26525002D01*
X9947452Y-26525002D02*
X9956976Y-26505954D01*
X9956976Y-26505954D02*
X9976023Y-26496430D01*
X9976023Y-26496430D02*
X10014119Y-26496430D01*
X10014119Y-26496430D02*
X10033166Y-26505954D01*
X10033166Y-26505954D02*
X10042690Y-26525002D01*
X10042690Y-26525002D02*
X10042690Y-26544049D01*
X10042690Y-26544049D02*
X9947452Y-26563097D01*
X10118880Y-26620240D02*
X10137928Y-26629764D01*
X10137928Y-26629764D02*
X10176023Y-26629764D01*
X10176023Y-26629764D02*
X10195071Y-26620240D01*
X10195071Y-26620240D02*
X10204595Y-26601192D01*
X10204595Y-26601192D02*
X10204595Y-26591668D01*
X10204595Y-26591668D02*
X10195071Y-26572621D01*
X10195071Y-26572621D02*
X10176023Y-26563097D01*
X10176023Y-26563097D02*
X10147452Y-26563097D01*
X10147452Y-26563097D02*
X10128404Y-26553573D01*
X10128404Y-26553573D02*
X10118880Y-26534526D01*
X10118880Y-26534526D02*
X10118880Y-26525002D01*
X10118880Y-26525002D02*
X10128404Y-26505954D01*
X10128404Y-26505954D02*
X10147452Y-26496430D01*
X10147452Y-26496430D02*
X10176023Y-26496430D01*
X10176023Y-26496430D02*
X10195071Y-26505954D01*
X10271261Y-26705954D02*
X10280785Y-26696430D01*
X10280785Y-26696430D02*
X10299833Y-26667859D01*
X10299833Y-26667859D02*
X10309357Y-26648811D01*
X10309357Y-26648811D02*
X10318880Y-26620240D01*
X10318880Y-26620240D02*
X10328404Y-26572621D01*
X10328404Y-26572621D02*
X10328404Y-26534526D01*
X10328404Y-26534526D02*
X10318880Y-26486907D01*
X10318880Y-26486907D02*
X10309357Y-26458335D01*
X10309357Y-26458335D02*
X10299833Y-26439288D01*
X10299833Y-26439288D02*
X10280785Y-26410716D01*
X10280785Y-26410716D02*
X10271261Y-26401192D01*
D16*
X5243950Y-26876170D02*
X5318880Y-26801240D01*
X5243950Y-26726310D01*
X5169020Y-26801240D01*
X5243950Y-26876170D01*
D11*
X5671261Y-26893764D02*
X5556975Y-26893764D01*
X5614118Y-26893764D02*
X5614118Y-26693764D01*
X5614118Y-26693764D02*
X5595070Y-26722335D01*
X5595070Y-26722335D02*
X5576023Y-26741383D01*
X5576023Y-26741383D02*
X5556975Y-26750907D01*
X5756975Y-26874716D02*
X5766499Y-26884240D01*
X5766499Y-26884240D02*
X5756975Y-26893764D01*
X5756975Y-26893764D02*
X5747451Y-26884240D01*
X5747451Y-26884240D02*
X5756975Y-26874716D01*
X5756975Y-26874716D02*
X5756975Y-26893764D01*
X5937928Y-26760430D02*
X5937928Y-26893764D01*
X5890308Y-26684240D02*
X5842689Y-26827097D01*
X5842689Y-26827097D02*
X5966499Y-26827097D01*
X6052213Y-26893764D02*
X6090308Y-26893764D01*
X6090308Y-26893764D02*
X6109356Y-26884240D01*
X6109356Y-26884240D02*
X6118880Y-26874716D01*
X6118880Y-26874716D02*
X6137928Y-26846145D01*
X6137928Y-26846145D02*
X6147451Y-26808049D01*
X6147451Y-26808049D02*
X6147451Y-26731859D01*
X6147451Y-26731859D02*
X6137928Y-26712811D01*
X6137928Y-26712811D02*
X6128404Y-26703288D01*
X6128404Y-26703288D02*
X6109356Y-26693764D01*
X6109356Y-26693764D02*
X6071261Y-26693764D01*
X6071261Y-26693764D02*
X6052213Y-26703288D01*
X6052213Y-26703288D02*
X6042689Y-26712811D01*
X6042689Y-26712811D02*
X6033166Y-26731859D01*
X6033166Y-26731859D02*
X6033166Y-26779478D01*
X6033166Y-26779478D02*
X6042689Y-26798526D01*
X6042689Y-26798526D02*
X6052213Y-26808049D01*
X6052213Y-26808049D02*
X6071261Y-26817573D01*
X6071261Y-26817573D02*
X6109356Y-26817573D01*
X6109356Y-26817573D02*
X6128404Y-26808049D01*
X6128404Y-26808049D02*
X6137928Y-26798526D01*
X6137928Y-26798526D02*
X6147451Y-26779478D01*
X6242689Y-26893764D02*
X6280785Y-26893764D01*
X6280785Y-26893764D02*
X6299832Y-26884240D01*
X6299832Y-26884240D02*
X6309356Y-26874716D01*
X6309356Y-26874716D02*
X6328404Y-26846145D01*
X6328404Y-26846145D02*
X6337928Y-26808049D01*
X6337928Y-26808049D02*
X6337928Y-26731859D01*
X6337928Y-26731859D02*
X6328404Y-26712811D01*
X6328404Y-26712811D02*
X6318880Y-26703288D01*
X6318880Y-26703288D02*
X6299832Y-26693764D01*
X6299832Y-26693764D02*
X6261737Y-26693764D01*
X6261737Y-26693764D02*
X6242689Y-26703288D01*
X6242689Y-26703288D02*
X6233166Y-26712811D01*
X6233166Y-26712811D02*
X6223642Y-26731859D01*
X6223642Y-26731859D02*
X6223642Y-26779478D01*
X6223642Y-26779478D02*
X6233166Y-26798526D01*
X6233166Y-26798526D02*
X6242689Y-26808049D01*
X6242689Y-26808049D02*
X6261737Y-26817573D01*
X6261737Y-26817573D02*
X6299832Y-26817573D01*
X6299832Y-26817573D02*
X6318880Y-26808049D01*
X6318880Y-26808049D02*
X6328404Y-26798526D01*
X6328404Y-26798526D02*
X6337928Y-26779478D01*
X6423642Y-26893764D02*
X6423642Y-26760430D01*
X6423642Y-26779478D02*
X6433166Y-26769954D01*
X6433166Y-26769954D02*
X6452213Y-26760430D01*
X6452213Y-26760430D02*
X6480785Y-26760430D01*
X6480785Y-26760430D02*
X6499832Y-26769954D01*
X6499832Y-26769954D02*
X6509356Y-26789002D01*
X6509356Y-26789002D02*
X6509356Y-26893764D01*
X6509356Y-26789002D02*
X6518880Y-26769954D01*
X6518880Y-26769954D02*
X6537928Y-26760430D01*
X6537928Y-26760430D02*
X6566499Y-26760430D01*
X6566499Y-26760430D02*
X6585547Y-26769954D01*
X6585547Y-26769954D02*
X6595070Y-26789002D01*
X6595070Y-26789002D02*
X6595070Y-26893764D01*
X6690309Y-26893764D02*
X6690309Y-26760430D01*
X6690309Y-26779478D02*
X6699832Y-26769954D01*
X6699832Y-26769954D02*
X6718880Y-26760430D01*
X6718880Y-26760430D02*
X6747451Y-26760430D01*
X6747451Y-26760430D02*
X6766499Y-26769954D01*
X6766499Y-26769954D02*
X6776023Y-26789002D01*
X6776023Y-26789002D02*
X6776023Y-26893764D01*
X6776023Y-26789002D02*
X6785547Y-26769954D01*
X6785547Y-26769954D02*
X6804594Y-26760430D01*
X6804594Y-26760430D02*
X6833166Y-26760430D01*
X6833166Y-26760430D02*
X6852213Y-26769954D01*
X6852213Y-26769954D02*
X6861737Y-26789002D01*
X6861737Y-26789002D02*
X6861737Y-26893764D01*
X7252213Y-26684240D02*
X7080785Y-26941383D01*
X7509356Y-26693764D02*
X7528404Y-26693764D01*
X7528404Y-26693764D02*
X7547452Y-26703288D01*
X7547452Y-26703288D02*
X7556975Y-26712811D01*
X7556975Y-26712811D02*
X7566499Y-26731859D01*
X7566499Y-26731859D02*
X7576023Y-26769954D01*
X7576023Y-26769954D02*
X7576023Y-26817573D01*
X7576023Y-26817573D02*
X7566499Y-26855668D01*
X7566499Y-26855668D02*
X7556975Y-26874716D01*
X7556975Y-26874716D02*
X7547452Y-26884240D01*
X7547452Y-26884240D02*
X7528404Y-26893764D01*
X7528404Y-26893764D02*
X7509356Y-26893764D01*
X7509356Y-26893764D02*
X7490309Y-26884240D01*
X7490309Y-26884240D02*
X7480785Y-26874716D01*
X7480785Y-26874716D02*
X7471261Y-26855668D01*
X7471261Y-26855668D02*
X7461737Y-26817573D01*
X7461737Y-26817573D02*
X7461737Y-26769954D01*
X7461737Y-26769954D02*
X7471261Y-26731859D01*
X7471261Y-26731859D02*
X7480785Y-26712811D01*
X7480785Y-26712811D02*
X7490309Y-26703288D01*
X7490309Y-26703288D02*
X7509356Y-26693764D01*
X7661737Y-26874716D02*
X7671261Y-26884240D01*
X7671261Y-26884240D02*
X7661737Y-26893764D01*
X7661737Y-26893764D02*
X7652213Y-26884240D01*
X7652213Y-26884240D02*
X7661737Y-26874716D01*
X7661737Y-26874716D02*
X7661737Y-26893764D01*
X7795071Y-26693764D02*
X7814118Y-26693764D01*
X7814118Y-26693764D02*
X7833166Y-26703288D01*
X7833166Y-26703288D02*
X7842690Y-26712811D01*
X7842690Y-26712811D02*
X7852213Y-26731859D01*
X7852213Y-26731859D02*
X7861737Y-26769954D01*
X7861737Y-26769954D02*
X7861737Y-26817573D01*
X7861737Y-26817573D02*
X7852213Y-26855668D01*
X7852213Y-26855668D02*
X7842690Y-26874716D01*
X7842690Y-26874716D02*
X7833166Y-26884240D01*
X7833166Y-26884240D02*
X7814118Y-26893764D01*
X7814118Y-26893764D02*
X7795071Y-26893764D01*
X7795071Y-26893764D02*
X7776023Y-26884240D01*
X7776023Y-26884240D02*
X7766499Y-26874716D01*
X7766499Y-26874716D02*
X7756975Y-26855668D01*
X7756975Y-26855668D02*
X7747452Y-26817573D01*
X7747452Y-26817573D02*
X7747452Y-26769954D01*
X7747452Y-26769954D02*
X7756975Y-26731859D01*
X7756975Y-26731859D02*
X7766499Y-26712811D01*
X7766499Y-26712811D02*
X7776023Y-26703288D01*
X7776023Y-26703288D02*
X7795071Y-26693764D01*
X8042690Y-26693764D02*
X7947452Y-26693764D01*
X7947452Y-26693764D02*
X7937928Y-26789002D01*
X7937928Y-26789002D02*
X7947452Y-26779478D01*
X7947452Y-26779478D02*
X7966499Y-26769954D01*
X7966499Y-26769954D02*
X8014118Y-26769954D01*
X8014118Y-26769954D02*
X8033166Y-26779478D01*
X8033166Y-26779478D02*
X8042690Y-26789002D01*
X8042690Y-26789002D02*
X8052213Y-26808049D01*
X8052213Y-26808049D02*
X8052213Y-26855668D01*
X8052213Y-26855668D02*
X8042690Y-26874716D01*
X8042690Y-26874716D02*
X8033166Y-26884240D01*
X8033166Y-26884240D02*
X8014118Y-26893764D01*
X8014118Y-26893764D02*
X7966499Y-26893764D01*
X7966499Y-26893764D02*
X7947452Y-26884240D01*
X7947452Y-26884240D02*
X7937928Y-26874716D01*
X8147452Y-26893764D02*
X8185547Y-26893764D01*
X8185547Y-26893764D02*
X8204594Y-26884240D01*
X8204594Y-26884240D02*
X8214118Y-26874716D01*
X8214118Y-26874716D02*
X8233166Y-26846145D01*
X8233166Y-26846145D02*
X8242690Y-26808049D01*
X8242690Y-26808049D02*
X8242690Y-26731859D01*
X8242690Y-26731859D02*
X8233166Y-26712811D01*
X8233166Y-26712811D02*
X8223642Y-26703288D01*
X8223642Y-26703288D02*
X8204594Y-26693764D01*
X8204594Y-26693764D02*
X8166499Y-26693764D01*
X8166499Y-26693764D02*
X8147452Y-26703288D01*
X8147452Y-26703288D02*
X8137928Y-26712811D01*
X8137928Y-26712811D02*
X8128404Y-26731859D01*
X8128404Y-26731859D02*
X8128404Y-26779478D01*
X8128404Y-26779478D02*
X8137928Y-26798526D01*
X8137928Y-26798526D02*
X8147452Y-26808049D01*
X8147452Y-26808049D02*
X8166499Y-26817573D01*
X8166499Y-26817573D02*
X8204594Y-26817573D01*
X8204594Y-26817573D02*
X8223642Y-26808049D01*
X8223642Y-26808049D02*
X8233166Y-26798526D01*
X8233166Y-26798526D02*
X8242690Y-26779478D01*
X8366499Y-26693764D02*
X8385547Y-26693764D01*
X8385547Y-26693764D02*
X8404595Y-26703288D01*
X8404595Y-26703288D02*
X8414118Y-26712811D01*
X8414118Y-26712811D02*
X8423642Y-26731859D01*
X8423642Y-26731859D02*
X8433166Y-26769954D01*
X8433166Y-26769954D02*
X8433166Y-26817573D01*
X8433166Y-26817573D02*
X8423642Y-26855668D01*
X8423642Y-26855668D02*
X8414118Y-26874716D01*
X8414118Y-26874716D02*
X8404595Y-26884240D01*
X8404595Y-26884240D02*
X8385547Y-26893764D01*
X8385547Y-26893764D02*
X8366499Y-26893764D01*
X8366499Y-26893764D02*
X8347452Y-26884240D01*
X8347452Y-26884240D02*
X8337928Y-26874716D01*
X8337928Y-26874716D02*
X8328404Y-26855668D01*
X8328404Y-26855668D02*
X8318880Y-26817573D01*
X8318880Y-26817573D02*
X8318880Y-26769954D01*
X8318880Y-26769954D02*
X8328404Y-26731859D01*
X8328404Y-26731859D02*
X8337928Y-26712811D01*
X8337928Y-26712811D02*
X8347452Y-26703288D01*
X8347452Y-26703288D02*
X8366499Y-26693764D01*
X8509356Y-26693764D02*
X8509356Y-26731859D01*
X8585547Y-26693764D02*
X8585547Y-26731859D01*
X8880785Y-26969954D02*
X8871261Y-26960430D01*
X8871261Y-26960430D02*
X8852214Y-26931859D01*
X8852214Y-26931859D02*
X8842690Y-26912811D01*
X8842690Y-26912811D02*
X8833166Y-26884240D01*
X8833166Y-26884240D02*
X8823642Y-26836621D01*
X8823642Y-26836621D02*
X8823642Y-26798526D01*
X8823642Y-26798526D02*
X8833166Y-26750907D01*
X8833166Y-26750907D02*
X8842690Y-26722335D01*
X8842690Y-26722335D02*
X8852214Y-26703288D01*
X8852214Y-26703288D02*
X8871261Y-26674716D01*
X8871261Y-26674716D02*
X8880785Y-26665192D01*
X8947452Y-26712811D02*
X8956976Y-26703288D01*
X8956976Y-26703288D02*
X8976023Y-26693764D01*
X8976023Y-26693764D02*
X9023642Y-26693764D01*
X9023642Y-26693764D02*
X9042690Y-26703288D01*
X9042690Y-26703288D02*
X9052214Y-26712811D01*
X9052214Y-26712811D02*
X9061737Y-26731859D01*
X9061737Y-26731859D02*
X9061737Y-26750907D01*
X9061737Y-26750907D02*
X9052214Y-26779478D01*
X9052214Y-26779478D02*
X8937928Y-26893764D01*
X8937928Y-26893764D02*
X9061737Y-26893764D01*
X9185547Y-26693764D02*
X9204595Y-26693764D01*
X9204595Y-26693764D02*
X9223642Y-26703288D01*
X9223642Y-26703288D02*
X9233166Y-26712811D01*
X9233166Y-26712811D02*
X9242690Y-26731859D01*
X9242690Y-26731859D02*
X9252214Y-26769954D01*
X9252214Y-26769954D02*
X9252214Y-26817573D01*
X9252214Y-26817573D02*
X9242690Y-26855668D01*
X9242690Y-26855668D02*
X9233166Y-26874716D01*
X9233166Y-26874716D02*
X9223642Y-26884240D01*
X9223642Y-26884240D02*
X9204595Y-26893764D01*
X9204595Y-26893764D02*
X9185547Y-26893764D01*
X9185547Y-26893764D02*
X9166499Y-26884240D01*
X9166499Y-26884240D02*
X9156976Y-26874716D01*
X9156976Y-26874716D02*
X9147452Y-26855668D01*
X9147452Y-26855668D02*
X9137928Y-26817573D01*
X9137928Y-26817573D02*
X9137928Y-26769954D01*
X9137928Y-26769954D02*
X9147452Y-26731859D01*
X9147452Y-26731859D02*
X9156976Y-26712811D01*
X9156976Y-26712811D02*
X9166499Y-26703288D01*
X9166499Y-26703288D02*
X9185547Y-26693764D01*
X9366499Y-26779478D02*
X9347452Y-26769954D01*
X9347452Y-26769954D02*
X9337928Y-26760430D01*
X9337928Y-26760430D02*
X9328404Y-26741383D01*
X9328404Y-26741383D02*
X9328404Y-26731859D01*
X9328404Y-26731859D02*
X9337928Y-26712811D01*
X9337928Y-26712811D02*
X9347452Y-26703288D01*
X9347452Y-26703288D02*
X9366499Y-26693764D01*
X9366499Y-26693764D02*
X9404595Y-26693764D01*
X9404595Y-26693764D02*
X9423642Y-26703288D01*
X9423642Y-26703288D02*
X9433166Y-26712811D01*
X9433166Y-26712811D02*
X9442690Y-26731859D01*
X9442690Y-26731859D02*
X9442690Y-26741383D01*
X9442690Y-26741383D02*
X9433166Y-26760430D01*
X9433166Y-26760430D02*
X9423642Y-26769954D01*
X9423642Y-26769954D02*
X9404595Y-26779478D01*
X9404595Y-26779478D02*
X9366499Y-26779478D01*
X9366499Y-26779478D02*
X9347452Y-26789002D01*
X9347452Y-26789002D02*
X9337928Y-26798526D01*
X9337928Y-26798526D02*
X9328404Y-26817573D01*
X9328404Y-26817573D02*
X9328404Y-26855668D01*
X9328404Y-26855668D02*
X9337928Y-26874716D01*
X9337928Y-26874716D02*
X9347452Y-26884240D01*
X9347452Y-26884240D02*
X9366499Y-26893764D01*
X9366499Y-26893764D02*
X9404595Y-26893764D01*
X9404595Y-26893764D02*
X9423642Y-26884240D01*
X9423642Y-26884240D02*
X9433166Y-26874716D01*
X9433166Y-26874716D02*
X9442690Y-26855668D01*
X9442690Y-26855668D02*
X9442690Y-26817573D01*
X9442690Y-26817573D02*
X9433166Y-26798526D01*
X9433166Y-26798526D02*
X9423642Y-26789002D01*
X9423642Y-26789002D02*
X9404595Y-26779478D01*
X9680785Y-26893764D02*
X9680785Y-26693764D01*
X9766499Y-26893764D02*
X9766499Y-26789002D01*
X9766499Y-26789002D02*
X9756976Y-26769954D01*
X9756976Y-26769954D02*
X9737928Y-26760430D01*
X9737928Y-26760430D02*
X9709357Y-26760430D01*
X9709357Y-26760430D02*
X9690309Y-26769954D01*
X9690309Y-26769954D02*
X9680785Y-26779478D01*
X9890309Y-26893764D02*
X9871261Y-26884240D01*
X9871261Y-26884240D02*
X9861738Y-26874716D01*
X9861738Y-26874716D02*
X9852214Y-26855668D01*
X9852214Y-26855668D02*
X9852214Y-26798526D01*
X9852214Y-26798526D02*
X9861738Y-26779478D01*
X9861738Y-26779478D02*
X9871261Y-26769954D01*
X9871261Y-26769954D02*
X9890309Y-26760430D01*
X9890309Y-26760430D02*
X9918880Y-26760430D01*
X9918880Y-26760430D02*
X9937928Y-26769954D01*
X9937928Y-26769954D02*
X9947452Y-26779478D01*
X9947452Y-26779478D02*
X9956976Y-26798526D01*
X9956976Y-26798526D02*
X9956976Y-26855668D01*
X9956976Y-26855668D02*
X9947452Y-26874716D01*
X9947452Y-26874716D02*
X9937928Y-26884240D01*
X9937928Y-26884240D02*
X9918880Y-26893764D01*
X9918880Y-26893764D02*
X9890309Y-26893764D01*
X10071261Y-26893764D02*
X10052214Y-26884240D01*
X10052214Y-26884240D02*
X10042690Y-26865192D01*
X10042690Y-26865192D02*
X10042690Y-26693764D01*
X10223642Y-26884240D02*
X10204595Y-26893764D01*
X10204595Y-26893764D02*
X10166499Y-26893764D01*
X10166499Y-26893764D02*
X10147452Y-26884240D01*
X10147452Y-26884240D02*
X10137928Y-26865192D01*
X10137928Y-26865192D02*
X10137928Y-26789002D01*
X10137928Y-26789002D02*
X10147452Y-26769954D01*
X10147452Y-26769954D02*
X10166499Y-26760430D01*
X10166499Y-26760430D02*
X10204595Y-26760430D01*
X10204595Y-26760430D02*
X10223642Y-26769954D01*
X10223642Y-26769954D02*
X10233166Y-26789002D01*
X10233166Y-26789002D02*
X10233166Y-26808049D01*
X10233166Y-26808049D02*
X10137928Y-26827097D01*
X10309357Y-26884240D02*
X10328404Y-26893764D01*
X10328404Y-26893764D02*
X10366499Y-26893764D01*
X10366499Y-26893764D02*
X10385547Y-26884240D01*
X10385547Y-26884240D02*
X10395071Y-26865192D01*
X10395071Y-26865192D02*
X10395071Y-26855668D01*
X10395071Y-26855668D02*
X10385547Y-26836621D01*
X10385547Y-26836621D02*
X10366499Y-26827097D01*
X10366499Y-26827097D02*
X10337928Y-26827097D01*
X10337928Y-26827097D02*
X10318880Y-26817573D01*
X10318880Y-26817573D02*
X10309357Y-26798526D01*
X10309357Y-26798526D02*
X10309357Y-26789002D01*
X10309357Y-26789002D02*
X10318880Y-26769954D01*
X10318880Y-26769954D02*
X10337928Y-26760430D01*
X10337928Y-26760430D02*
X10366499Y-26760430D01*
X10366499Y-26760430D02*
X10385547Y-26769954D01*
X10461738Y-26969954D02*
X10471261Y-26960430D01*
X10471261Y-26960430D02*
X10490309Y-26931859D01*
X10490309Y-26931859D02*
X10499833Y-26912811D01*
X10499833Y-26912811D02*
X10509357Y-26884240D01*
X10509357Y-26884240D02*
X10518880Y-26836621D01*
X10518880Y-26836621D02*
X10518880Y-26798526D01*
X10518880Y-26798526D02*
X10509357Y-26750907D01*
X10509357Y-26750907D02*
X10499833Y-26722335D01*
X10499833Y-26722335D02*
X10490309Y-26703288D01*
X10490309Y-26703288D02*
X10471261Y-26674716D01*
X10471261Y-26674716D02*
X10461738Y-26665192D01*
M02*
