%TF.GenerationSoftware,KiCad,Pcbnew,7.0.1*%
%TF.CreationDate,2024-09-21T18:30:58-05:00*%
%TF.ProjectId,C128DKEYBOARD,43313238-444b-4455-9942-4f4152442e6b,3.3*%
%TF.SameCoordinates,Original*%
%TF.FileFunction,Drillmap*%
%TF.FilePolarity,Positive*%
%FSLAX45Y45*%
G04 Gerber Fmt 4.5, Leading zero omitted, Abs format (unit mm)*
G04 Created by KiCad (PCBNEW 7.0.1) date 2024-09-21 18:30:58*
%MOMM*%
%LPD*%
G01*
G04 APERTURE LIST*
%ADD10C,0.150000*%
%ADD11C,0.200000*%
%ADD12C,0.398780*%
G04 APERTURE END LIST*
D10*
X5421630Y-12321540D02*
X11608830Y-12321600D01*
X45111730Y-12322280D02*
X13406430Y-12321540D01*
X5358130Y-25097740D02*
X5326380Y-25097740D01*
X45111730Y-12322280D02*
X49109630Y-12321540D01*
X49109630Y-12639040D02*
X49109630Y-12575540D01*
X11608830Y-12321600D02*
X13406430Y-12321540D01*
X5326380Y-25021540D02*
X5326380Y-25097740D01*
X5421630Y-12321540D02*
X5358130Y-12321540D01*
X49109630Y-25097740D02*
X49109630Y-12639040D01*
X5358130Y-25097740D02*
X49109630Y-25097740D01*
X49109630Y-12321540D02*
X49109630Y-12575540D01*
X5326380Y-12321540D02*
X5326380Y-25021540D01*
X5326380Y-12321540D02*
X5358130Y-12321540D01*
D11*
D12*
X6233160Y-13173710D02*
X6631940Y-13572490D01*
X6631940Y-13173710D02*
X6233160Y-13572490D01*
X6233160Y-15967710D02*
X6631940Y-16366490D01*
X6631940Y-15967710D02*
X6233160Y-16366490D01*
X6470660Y-23587710D02*
X6869440Y-23986490D01*
X6869440Y-23587710D02*
X6470660Y-23986490D01*
X6708660Y-17872710D02*
X7107440Y-18271490D01*
X7107440Y-17872710D02*
X6708660Y-18271490D01*
X6946960Y-19777710D02*
X7345740Y-20176490D01*
X7345740Y-19777710D02*
X6946960Y-20176490D01*
X7423160Y-21682710D02*
X7821940Y-22081490D01*
X7821940Y-21682710D02*
X7423160Y-22081490D01*
X8138160Y-15967710D02*
X8536940Y-16366490D01*
X8536940Y-15967710D02*
X8138160Y-16366490D01*
X8851660Y-23587710D02*
X9250440Y-23986490D01*
X9250440Y-23587710D02*
X8851660Y-23986490D01*
X9090660Y-17872710D02*
X9489440Y-18271490D01*
X9489440Y-17872710D02*
X9090660Y-18271490D01*
X9565660Y-19777710D02*
X9964440Y-20176490D01*
X9964440Y-19777710D02*
X9565660Y-20176490D01*
X10043160Y-13173710D02*
X10441940Y-13572490D01*
X10441940Y-13173710D02*
X10043160Y-13572490D01*
X10043160Y-15967710D02*
X10441940Y-16366490D01*
X10441940Y-15967710D02*
X10043160Y-16366490D01*
X10518160Y-21682710D02*
X10916940Y-22081490D01*
X10916940Y-21682710D02*
X10518160Y-22081490D01*
X10995660Y-17872710D02*
X11394440Y-18271490D01*
X11394440Y-17872710D02*
X10995660Y-18271490D01*
X11232660Y-23587710D02*
X11631440Y-23986490D01*
X11631440Y-23587710D02*
X11232660Y-23986490D01*
X11470660Y-19777710D02*
X11869440Y-20176490D01*
X11869440Y-19777710D02*
X11470660Y-20176490D01*
X11948160Y-13173710D02*
X12346940Y-13572490D01*
X12346940Y-13173710D02*
X11948160Y-13572490D01*
X11948160Y-15967710D02*
X12346940Y-16366490D01*
X12346940Y-15967710D02*
X11948160Y-16366490D01*
X12423160Y-21682710D02*
X12821940Y-22081490D01*
X12821940Y-21682710D02*
X12423160Y-22081490D01*
X12900660Y-17872710D02*
X13299440Y-18271490D01*
X13299440Y-17872710D02*
X12900660Y-18271490D01*
X13375660Y-19777710D02*
X13774440Y-20176490D01*
X13774440Y-19777710D02*
X13375660Y-20176490D01*
X13853160Y-13173710D02*
X14251940Y-13572490D01*
X14251940Y-13173710D02*
X13853160Y-13572490D01*
X13853160Y-15967710D02*
X14251940Y-16366490D01*
X14251940Y-15967710D02*
X13853160Y-16366490D01*
X14328160Y-21682710D02*
X14726940Y-22081490D01*
X14726940Y-21682710D02*
X14328160Y-22081490D01*
X14805660Y-17872710D02*
X15204440Y-18271490D01*
X15204440Y-17872710D02*
X14805660Y-18271490D01*
X15280660Y-19777710D02*
X15679440Y-20176490D01*
X15679440Y-19777710D02*
X15280660Y-20176490D01*
X15758160Y-13173710D02*
X16156940Y-13572490D01*
X16156940Y-13173710D02*
X15758160Y-13572490D01*
X15758160Y-15967710D02*
X16156940Y-16366490D01*
X16156940Y-15967710D02*
X15758160Y-16366490D01*
X16233160Y-21682710D02*
X16631940Y-22081490D01*
X16631940Y-21682710D02*
X16233160Y-22081490D01*
X16710660Y-17872710D02*
X17109440Y-18271490D01*
X17109440Y-17872710D02*
X16710660Y-18271490D01*
X17185660Y-19777710D02*
X17584440Y-20176490D01*
X17584440Y-19777710D02*
X17185660Y-20176490D01*
X17663160Y-15967710D02*
X18061940Y-16366490D01*
X18061940Y-15967710D02*
X17663160Y-16366490D01*
X18138160Y-21682710D02*
X18536940Y-22081490D01*
X18536940Y-21682710D02*
X18138160Y-22081490D01*
X18376160Y-23587710D02*
X18774940Y-23986490D01*
X18774940Y-23587710D02*
X18376160Y-23986490D01*
X18615660Y-13173710D02*
X19014440Y-13572490D01*
X19014440Y-13173710D02*
X18615660Y-13572490D01*
X18615660Y-17872710D02*
X19014440Y-18271490D01*
X19014440Y-17872710D02*
X18615660Y-18271490D01*
X19090660Y-19777710D02*
X19489440Y-20176490D01*
X19489440Y-19777710D02*
X19090660Y-20176490D01*
X19568160Y-15967710D02*
X19966940Y-16366490D01*
X19966940Y-15967710D02*
X19568160Y-16366490D01*
X20043160Y-21682710D02*
X20441940Y-22081490D01*
X20441940Y-21682710D02*
X20043160Y-22081490D01*
X20520660Y-13173710D02*
X20919440Y-13572490D01*
X20919440Y-13173710D02*
X20520660Y-13572490D01*
X20520660Y-17872710D02*
X20919440Y-18271490D01*
X20919440Y-17872710D02*
X20520660Y-18271490D01*
X20995660Y-19777710D02*
X21394440Y-20176490D01*
X21394440Y-19777710D02*
X20995660Y-20176490D01*
X21473160Y-15967710D02*
X21871940Y-16366490D01*
X21871940Y-15967710D02*
X21473160Y-16366490D01*
X21948160Y-21682710D02*
X22346940Y-22081490D01*
X22346940Y-21682710D02*
X21948160Y-22081490D01*
X22425660Y-13173710D02*
X22824440Y-13572490D01*
X22824440Y-13173710D02*
X22425660Y-13572490D01*
X22425660Y-17872710D02*
X22824440Y-18271490D01*
X22824440Y-17872710D02*
X22425660Y-18271490D01*
X22900660Y-19777710D02*
X23299440Y-20176490D01*
X23299440Y-19777710D02*
X22900660Y-20176490D01*
X23378160Y-15967710D02*
X23776940Y-16366490D01*
X23776940Y-15967710D02*
X23378160Y-16366490D01*
X23853160Y-21682710D02*
X24251940Y-22081490D01*
X24251940Y-21682710D02*
X23853160Y-22081490D01*
X24330660Y-13173710D02*
X24729440Y-13572490D01*
X24729440Y-13173710D02*
X24330660Y-13572490D01*
X24330660Y-17872710D02*
X24729440Y-18271490D01*
X24729440Y-17872710D02*
X24330660Y-18271490D01*
X24805660Y-19777710D02*
X25204440Y-20176490D01*
X25204440Y-19777710D02*
X24805660Y-20176490D01*
X25283160Y-15967710D02*
X25681940Y-16366490D01*
X25681940Y-15967710D02*
X25283160Y-16366490D01*
X25520160Y-23587710D02*
X25918940Y-23986490D01*
X25918940Y-23587710D02*
X25520160Y-23986490D01*
X25758160Y-21682710D02*
X26156940Y-22081490D01*
X26156940Y-21682710D02*
X25758160Y-22081490D01*
X26235660Y-17872710D02*
X26634440Y-18271490D01*
X26634440Y-17872710D02*
X26235660Y-18271490D01*
X26710660Y-19777710D02*
X27109440Y-20176490D01*
X27109440Y-19777710D02*
X26710660Y-20176490D01*
X27188160Y-13173710D02*
X27586940Y-13572490D01*
X27586940Y-13173710D02*
X27188160Y-13572490D01*
X27188160Y-15967710D02*
X27586940Y-16366490D01*
X27586940Y-15967710D02*
X27188160Y-16366490D01*
X27663160Y-21682710D02*
X28061940Y-22081490D01*
X28061940Y-21682710D02*
X27663160Y-22081490D01*
X27901160Y-23587710D02*
X28299940Y-23986490D01*
X28299940Y-23587710D02*
X27901160Y-23986490D01*
X28140660Y-17872710D02*
X28539440Y-18271490D01*
X28539440Y-17872710D02*
X28140660Y-18271490D01*
X28615660Y-19777710D02*
X29014440Y-20176490D01*
X29014440Y-19777710D02*
X28615660Y-20176490D01*
X29093160Y-13173710D02*
X29491940Y-13572490D01*
X29491940Y-13173710D02*
X29093160Y-13572490D01*
X29093160Y-15967710D02*
X29491940Y-16366490D01*
X29491940Y-15967710D02*
X29093160Y-16366490D01*
X30045660Y-17872710D02*
X30444440Y-18271490D01*
X30444440Y-17872710D02*
X30045660Y-18271490D01*
X30282160Y-23587710D02*
X30680940Y-23986490D01*
X30680940Y-23587710D02*
X30282160Y-23986490D01*
X30998160Y-13173710D02*
X31396940Y-13572490D01*
X31396940Y-13173710D02*
X30998160Y-13572490D01*
X31234660Y-21682710D02*
X31633440Y-22081490D01*
X31633440Y-21682710D02*
X31234660Y-22081490D01*
X31711160Y-19777710D02*
X32109940Y-20176490D01*
X32109940Y-19777710D02*
X31711160Y-20176490D01*
X31950660Y-15967710D02*
X32349440Y-16366490D01*
X32349440Y-15967710D02*
X31950660Y-16366490D01*
X32426660Y-17872710D02*
X32825440Y-18271490D01*
X32825440Y-17872710D02*
X32426660Y-18271490D01*
X32663160Y-23587710D02*
X33061940Y-23986490D01*
X33061940Y-23587710D02*
X32663160Y-23986490D01*
X32903160Y-13173710D02*
X33301940Y-13572490D01*
X33301940Y-13173710D02*
X32903160Y-13572490D01*
X35643820Y-13173710D02*
X36042600Y-13572490D01*
X36042600Y-13173710D02*
X35643820Y-13572490D01*
X35643820Y-15967710D02*
X36042600Y-16366490D01*
X36042600Y-15967710D02*
X35643820Y-16366490D01*
X35643820Y-17872710D02*
X36042600Y-18271490D01*
X36042600Y-17872710D02*
X35643820Y-18271490D01*
X35643820Y-23587710D02*
X36042600Y-23986490D01*
X36042600Y-23587710D02*
X35643820Y-23986490D01*
X37548820Y-13173710D02*
X37947600Y-13572490D01*
X37947600Y-13173710D02*
X37548820Y-13572490D01*
X37548820Y-15967710D02*
X37947600Y-16366490D01*
X37947600Y-15967710D02*
X37548820Y-16366490D01*
X37548820Y-17872710D02*
X37947600Y-18271490D01*
X37947600Y-17872710D02*
X37548820Y-18271490D01*
X37548820Y-21682710D02*
X37947600Y-22081490D01*
X37947600Y-21682710D02*
X37548820Y-22081490D01*
X37548820Y-23587710D02*
X37947600Y-23986490D01*
X37947600Y-23587710D02*
X37548820Y-23986490D01*
X39453820Y-13173710D02*
X39852600Y-13572490D01*
X39852600Y-13173710D02*
X39453820Y-13572490D01*
X39453820Y-15967710D02*
X39852600Y-16366490D01*
X39852600Y-15967710D02*
X39453820Y-16366490D01*
X39453820Y-17872710D02*
X39852600Y-18271490D01*
X39852600Y-17872710D02*
X39453820Y-18271490D01*
X39453820Y-23587710D02*
X39852600Y-23986490D01*
X39852600Y-23587710D02*
X39453820Y-23986490D01*
X42195750Y-15962630D02*
X42594530Y-16361410D01*
X42594530Y-15962630D02*
X42195750Y-16361410D01*
X42195750Y-17867630D02*
X42594530Y-18266410D01*
X42594530Y-17867630D02*
X42195750Y-18266410D01*
X42195750Y-19772630D02*
X42594530Y-20171410D01*
X42594530Y-19772630D02*
X42195750Y-20171410D01*
X42195750Y-21677630D02*
X42594530Y-22076410D01*
X42594530Y-21677630D02*
X42195750Y-22076410D01*
X43150790Y-23582630D02*
X43549570Y-23981410D01*
X43549570Y-23582630D02*
X43150790Y-23981410D01*
X44100750Y-15962630D02*
X44499530Y-16361410D01*
X44499530Y-15962630D02*
X44100750Y-16361410D01*
X44100750Y-17867630D02*
X44499530Y-18266410D01*
X44499530Y-17867630D02*
X44100750Y-18266410D01*
X44100750Y-19772630D02*
X44499530Y-20171410D01*
X44499530Y-19772630D02*
X44100750Y-20171410D01*
X44100750Y-21677630D02*
X44499530Y-22076410D01*
X44499530Y-21677630D02*
X44100750Y-22076410D01*
X46005750Y-15962630D02*
X46404530Y-16361410D01*
X46404530Y-15962630D02*
X46005750Y-16361410D01*
X46005750Y-17867630D02*
X46404530Y-18266410D01*
X46404530Y-17867630D02*
X46005750Y-18266410D01*
X46005750Y-19772630D02*
X46404530Y-20171410D01*
X46404530Y-19772630D02*
X46005750Y-20171410D01*
X46005750Y-21677630D02*
X46404530Y-22076410D01*
X46404530Y-21677630D02*
X46005750Y-22076410D01*
X46005750Y-23582630D02*
X46404530Y-23981410D01*
X46404530Y-23582630D02*
X46005750Y-23981410D01*
X47919640Y-15960090D02*
X48318420Y-16358870D01*
X48318420Y-15960090D02*
X47919640Y-16358870D01*
X47919640Y-18817590D02*
X48318420Y-19216370D01*
X48318420Y-18817590D02*
X47919640Y-19216370D01*
X47919640Y-22619970D02*
X48318420Y-23018750D01*
X48318420Y-22619970D02*
X47919640Y-23018750D01*
D11*
X5566499Y-25417764D02*
X5566499Y-25217764D01*
X5566499Y-25217764D02*
X5614118Y-25217764D01*
X5614118Y-25217764D02*
X5642689Y-25227288D01*
X5642689Y-25227288D02*
X5661737Y-25246335D01*
X5661737Y-25246335D02*
X5671261Y-25265383D01*
X5671261Y-25265383D02*
X5680785Y-25303478D01*
X5680785Y-25303478D02*
X5680785Y-25332049D01*
X5680785Y-25332049D02*
X5671261Y-25370145D01*
X5671261Y-25370145D02*
X5661737Y-25389192D01*
X5661737Y-25389192D02*
X5642689Y-25408240D01*
X5642689Y-25408240D02*
X5614118Y-25417764D01*
X5614118Y-25417764D02*
X5566499Y-25417764D01*
X5766499Y-25417764D02*
X5766499Y-25284430D01*
X5766499Y-25322526D02*
X5776023Y-25303478D01*
X5776023Y-25303478D02*
X5785547Y-25293954D01*
X5785547Y-25293954D02*
X5804594Y-25284430D01*
X5804594Y-25284430D02*
X5823642Y-25284430D01*
X5890308Y-25417764D02*
X5890308Y-25284430D01*
X5890308Y-25217764D02*
X5880785Y-25227288D01*
X5880785Y-25227288D02*
X5890308Y-25236811D01*
X5890308Y-25236811D02*
X5899832Y-25227288D01*
X5899832Y-25227288D02*
X5890308Y-25217764D01*
X5890308Y-25217764D02*
X5890308Y-25236811D01*
X6014118Y-25417764D02*
X5995070Y-25408240D01*
X5995070Y-25408240D02*
X5985547Y-25389192D01*
X5985547Y-25389192D02*
X5985547Y-25217764D01*
X6118880Y-25417764D02*
X6099832Y-25408240D01*
X6099832Y-25408240D02*
X6090308Y-25389192D01*
X6090308Y-25389192D02*
X6090308Y-25217764D01*
X6347451Y-25417764D02*
X6347451Y-25217764D01*
X6347451Y-25217764D02*
X6414118Y-25360621D01*
X6414118Y-25360621D02*
X6480785Y-25217764D01*
X6480785Y-25217764D02*
X6480785Y-25417764D01*
X6661737Y-25417764D02*
X6661737Y-25313002D01*
X6661737Y-25313002D02*
X6652213Y-25293954D01*
X6652213Y-25293954D02*
X6633166Y-25284430D01*
X6633166Y-25284430D02*
X6595070Y-25284430D01*
X6595070Y-25284430D02*
X6576023Y-25293954D01*
X6661737Y-25408240D02*
X6642689Y-25417764D01*
X6642689Y-25417764D02*
X6595070Y-25417764D01*
X6595070Y-25417764D02*
X6576023Y-25408240D01*
X6576023Y-25408240D02*
X6566499Y-25389192D01*
X6566499Y-25389192D02*
X6566499Y-25370145D01*
X6566499Y-25370145D02*
X6576023Y-25351097D01*
X6576023Y-25351097D02*
X6595070Y-25341573D01*
X6595070Y-25341573D02*
X6642689Y-25341573D01*
X6642689Y-25341573D02*
X6661737Y-25332049D01*
X6756975Y-25284430D02*
X6756975Y-25484430D01*
X6756975Y-25293954D02*
X6776023Y-25284430D01*
X6776023Y-25284430D02*
X6814118Y-25284430D01*
X6814118Y-25284430D02*
X6833166Y-25293954D01*
X6833166Y-25293954D02*
X6842689Y-25303478D01*
X6842689Y-25303478D02*
X6852213Y-25322526D01*
X6852213Y-25322526D02*
X6852213Y-25379668D01*
X6852213Y-25379668D02*
X6842689Y-25398716D01*
X6842689Y-25398716D02*
X6833166Y-25408240D01*
X6833166Y-25408240D02*
X6814118Y-25417764D01*
X6814118Y-25417764D02*
X6776023Y-25417764D01*
X6776023Y-25417764D02*
X6756975Y-25408240D01*
X6937928Y-25398716D02*
X6947451Y-25408240D01*
X6947451Y-25408240D02*
X6937928Y-25417764D01*
X6937928Y-25417764D02*
X6928404Y-25408240D01*
X6928404Y-25408240D02*
X6937928Y-25398716D01*
X6937928Y-25398716D02*
X6937928Y-25417764D01*
X6937928Y-25293954D02*
X6947451Y-25303478D01*
X6947451Y-25303478D02*
X6937928Y-25313002D01*
X6937928Y-25313002D02*
X6928404Y-25303478D01*
X6928404Y-25303478D02*
X6937928Y-25293954D01*
X6937928Y-25293954D02*
X6937928Y-25313002D01*
X5118880Y-25645240D02*
X5318880Y-25845240D01*
X5318880Y-25645240D02*
X5118880Y-25845240D01*
X5547451Y-25637764D02*
X5671261Y-25637764D01*
X5671261Y-25637764D02*
X5604594Y-25713954D01*
X5604594Y-25713954D02*
X5633166Y-25713954D01*
X5633166Y-25713954D02*
X5652213Y-25723478D01*
X5652213Y-25723478D02*
X5661737Y-25733002D01*
X5661737Y-25733002D02*
X5671261Y-25752049D01*
X5671261Y-25752049D02*
X5671261Y-25799668D01*
X5671261Y-25799668D02*
X5661737Y-25818716D01*
X5661737Y-25818716D02*
X5652213Y-25828240D01*
X5652213Y-25828240D02*
X5633166Y-25837764D01*
X5633166Y-25837764D02*
X5576023Y-25837764D01*
X5576023Y-25837764D02*
X5556975Y-25828240D01*
X5556975Y-25828240D02*
X5547451Y-25818716D01*
X5756975Y-25818716D02*
X5766499Y-25828240D01*
X5766499Y-25828240D02*
X5756975Y-25837764D01*
X5756975Y-25837764D02*
X5747451Y-25828240D01*
X5747451Y-25828240D02*
X5756975Y-25818716D01*
X5756975Y-25818716D02*
X5756975Y-25837764D01*
X5861737Y-25837764D02*
X5899832Y-25837764D01*
X5899832Y-25837764D02*
X5918880Y-25828240D01*
X5918880Y-25828240D02*
X5928404Y-25818716D01*
X5928404Y-25818716D02*
X5947451Y-25790145D01*
X5947451Y-25790145D02*
X5956975Y-25752049D01*
X5956975Y-25752049D02*
X5956975Y-25675859D01*
X5956975Y-25675859D02*
X5947451Y-25656811D01*
X5947451Y-25656811D02*
X5937928Y-25647288D01*
X5937928Y-25647288D02*
X5918880Y-25637764D01*
X5918880Y-25637764D02*
X5880785Y-25637764D01*
X5880785Y-25637764D02*
X5861737Y-25647288D01*
X5861737Y-25647288D02*
X5852213Y-25656811D01*
X5852213Y-25656811D02*
X5842689Y-25675859D01*
X5842689Y-25675859D02*
X5842689Y-25723478D01*
X5842689Y-25723478D02*
X5852213Y-25742526D01*
X5852213Y-25742526D02*
X5861737Y-25752049D01*
X5861737Y-25752049D02*
X5880785Y-25761573D01*
X5880785Y-25761573D02*
X5918880Y-25761573D01*
X5918880Y-25761573D02*
X5937928Y-25752049D01*
X5937928Y-25752049D02*
X5947451Y-25742526D01*
X5947451Y-25742526D02*
X5956975Y-25723478D01*
X6071261Y-25723478D02*
X6052213Y-25713954D01*
X6052213Y-25713954D02*
X6042689Y-25704430D01*
X6042689Y-25704430D02*
X6033166Y-25685383D01*
X6033166Y-25685383D02*
X6033166Y-25675859D01*
X6033166Y-25675859D02*
X6042689Y-25656811D01*
X6042689Y-25656811D02*
X6052213Y-25647288D01*
X6052213Y-25647288D02*
X6071261Y-25637764D01*
X6071261Y-25637764D02*
X6109356Y-25637764D01*
X6109356Y-25637764D02*
X6128404Y-25647288D01*
X6128404Y-25647288D02*
X6137928Y-25656811D01*
X6137928Y-25656811D02*
X6147451Y-25675859D01*
X6147451Y-25675859D02*
X6147451Y-25685383D01*
X6147451Y-25685383D02*
X6137928Y-25704430D01*
X6137928Y-25704430D02*
X6128404Y-25713954D01*
X6128404Y-25713954D02*
X6109356Y-25723478D01*
X6109356Y-25723478D02*
X6071261Y-25723478D01*
X6071261Y-25723478D02*
X6052213Y-25733002D01*
X6052213Y-25733002D02*
X6042689Y-25742526D01*
X6042689Y-25742526D02*
X6033166Y-25761573D01*
X6033166Y-25761573D02*
X6033166Y-25799668D01*
X6033166Y-25799668D02*
X6042689Y-25818716D01*
X6042689Y-25818716D02*
X6052213Y-25828240D01*
X6052213Y-25828240D02*
X6071261Y-25837764D01*
X6071261Y-25837764D02*
X6109356Y-25837764D01*
X6109356Y-25837764D02*
X6128404Y-25828240D01*
X6128404Y-25828240D02*
X6137928Y-25818716D01*
X6137928Y-25818716D02*
X6147451Y-25799668D01*
X6147451Y-25799668D02*
X6147451Y-25761573D01*
X6147451Y-25761573D02*
X6137928Y-25742526D01*
X6137928Y-25742526D02*
X6128404Y-25733002D01*
X6128404Y-25733002D02*
X6109356Y-25723478D01*
X6261737Y-25723478D02*
X6242689Y-25713954D01*
X6242689Y-25713954D02*
X6233166Y-25704430D01*
X6233166Y-25704430D02*
X6223642Y-25685383D01*
X6223642Y-25685383D02*
X6223642Y-25675859D01*
X6223642Y-25675859D02*
X6233166Y-25656811D01*
X6233166Y-25656811D02*
X6242689Y-25647288D01*
X6242689Y-25647288D02*
X6261737Y-25637764D01*
X6261737Y-25637764D02*
X6299832Y-25637764D01*
X6299832Y-25637764D02*
X6318880Y-25647288D01*
X6318880Y-25647288D02*
X6328404Y-25656811D01*
X6328404Y-25656811D02*
X6337928Y-25675859D01*
X6337928Y-25675859D02*
X6337928Y-25685383D01*
X6337928Y-25685383D02*
X6328404Y-25704430D01*
X6328404Y-25704430D02*
X6318880Y-25713954D01*
X6318880Y-25713954D02*
X6299832Y-25723478D01*
X6299832Y-25723478D02*
X6261737Y-25723478D01*
X6261737Y-25723478D02*
X6242689Y-25733002D01*
X6242689Y-25733002D02*
X6233166Y-25742526D01*
X6233166Y-25742526D02*
X6223642Y-25761573D01*
X6223642Y-25761573D02*
X6223642Y-25799668D01*
X6223642Y-25799668D02*
X6233166Y-25818716D01*
X6233166Y-25818716D02*
X6242689Y-25828240D01*
X6242689Y-25828240D02*
X6261737Y-25837764D01*
X6261737Y-25837764D02*
X6299832Y-25837764D01*
X6299832Y-25837764D02*
X6318880Y-25828240D01*
X6318880Y-25828240D02*
X6328404Y-25818716D01*
X6328404Y-25818716D02*
X6337928Y-25799668D01*
X6337928Y-25799668D02*
X6337928Y-25761573D01*
X6337928Y-25761573D02*
X6328404Y-25742526D01*
X6328404Y-25742526D02*
X6318880Y-25733002D01*
X6318880Y-25733002D02*
X6299832Y-25723478D01*
X6423642Y-25837764D02*
X6423642Y-25704430D01*
X6423642Y-25723478D02*
X6433166Y-25713954D01*
X6433166Y-25713954D02*
X6452213Y-25704430D01*
X6452213Y-25704430D02*
X6480785Y-25704430D01*
X6480785Y-25704430D02*
X6499832Y-25713954D01*
X6499832Y-25713954D02*
X6509356Y-25733002D01*
X6509356Y-25733002D02*
X6509356Y-25837764D01*
X6509356Y-25733002D02*
X6518880Y-25713954D01*
X6518880Y-25713954D02*
X6537928Y-25704430D01*
X6537928Y-25704430D02*
X6566499Y-25704430D01*
X6566499Y-25704430D02*
X6585547Y-25713954D01*
X6585547Y-25713954D02*
X6595070Y-25733002D01*
X6595070Y-25733002D02*
X6595070Y-25837764D01*
X6690309Y-25837764D02*
X6690309Y-25704430D01*
X6690309Y-25723478D02*
X6699832Y-25713954D01*
X6699832Y-25713954D02*
X6718880Y-25704430D01*
X6718880Y-25704430D02*
X6747451Y-25704430D01*
X6747451Y-25704430D02*
X6766499Y-25713954D01*
X6766499Y-25713954D02*
X6776023Y-25733002D01*
X6776023Y-25733002D02*
X6776023Y-25837764D01*
X6776023Y-25733002D02*
X6785547Y-25713954D01*
X6785547Y-25713954D02*
X6804594Y-25704430D01*
X6804594Y-25704430D02*
X6833166Y-25704430D01*
X6833166Y-25704430D02*
X6852213Y-25713954D01*
X6852213Y-25713954D02*
X6861737Y-25733002D01*
X6861737Y-25733002D02*
X6861737Y-25837764D01*
X7252213Y-25628240D02*
X7080785Y-25885383D01*
X7509356Y-25637764D02*
X7528404Y-25637764D01*
X7528404Y-25637764D02*
X7547452Y-25647288D01*
X7547452Y-25647288D02*
X7556975Y-25656811D01*
X7556975Y-25656811D02*
X7566499Y-25675859D01*
X7566499Y-25675859D02*
X7576023Y-25713954D01*
X7576023Y-25713954D02*
X7576023Y-25761573D01*
X7576023Y-25761573D02*
X7566499Y-25799668D01*
X7566499Y-25799668D02*
X7556975Y-25818716D01*
X7556975Y-25818716D02*
X7547452Y-25828240D01*
X7547452Y-25828240D02*
X7528404Y-25837764D01*
X7528404Y-25837764D02*
X7509356Y-25837764D01*
X7509356Y-25837764D02*
X7490309Y-25828240D01*
X7490309Y-25828240D02*
X7480785Y-25818716D01*
X7480785Y-25818716D02*
X7471261Y-25799668D01*
X7471261Y-25799668D02*
X7461737Y-25761573D01*
X7461737Y-25761573D02*
X7461737Y-25713954D01*
X7461737Y-25713954D02*
X7471261Y-25675859D01*
X7471261Y-25675859D02*
X7480785Y-25656811D01*
X7480785Y-25656811D02*
X7490309Y-25647288D01*
X7490309Y-25647288D02*
X7509356Y-25637764D01*
X7661737Y-25818716D02*
X7671261Y-25828240D01*
X7671261Y-25828240D02*
X7661737Y-25837764D01*
X7661737Y-25837764D02*
X7652213Y-25828240D01*
X7652213Y-25828240D02*
X7661737Y-25818716D01*
X7661737Y-25818716D02*
X7661737Y-25837764D01*
X7861737Y-25837764D02*
X7747452Y-25837764D01*
X7804594Y-25837764D02*
X7804594Y-25637764D01*
X7804594Y-25637764D02*
X7785547Y-25666335D01*
X7785547Y-25666335D02*
X7766499Y-25685383D01*
X7766499Y-25685383D02*
X7747452Y-25694907D01*
X8042690Y-25637764D02*
X7947452Y-25637764D01*
X7947452Y-25637764D02*
X7937928Y-25733002D01*
X7937928Y-25733002D02*
X7947452Y-25723478D01*
X7947452Y-25723478D02*
X7966499Y-25713954D01*
X7966499Y-25713954D02*
X8014118Y-25713954D01*
X8014118Y-25713954D02*
X8033166Y-25723478D01*
X8033166Y-25723478D02*
X8042690Y-25733002D01*
X8042690Y-25733002D02*
X8052213Y-25752049D01*
X8052213Y-25752049D02*
X8052213Y-25799668D01*
X8052213Y-25799668D02*
X8042690Y-25818716D01*
X8042690Y-25818716D02*
X8033166Y-25828240D01*
X8033166Y-25828240D02*
X8014118Y-25837764D01*
X8014118Y-25837764D02*
X7966499Y-25837764D01*
X7966499Y-25837764D02*
X7947452Y-25828240D01*
X7947452Y-25828240D02*
X7937928Y-25818716D01*
X8118880Y-25637764D02*
X8252213Y-25637764D01*
X8252213Y-25637764D02*
X8166499Y-25837764D01*
X8366499Y-25637764D02*
X8385547Y-25637764D01*
X8385547Y-25637764D02*
X8404595Y-25647288D01*
X8404595Y-25647288D02*
X8414118Y-25656811D01*
X8414118Y-25656811D02*
X8423642Y-25675859D01*
X8423642Y-25675859D02*
X8433166Y-25713954D01*
X8433166Y-25713954D02*
X8433166Y-25761573D01*
X8433166Y-25761573D02*
X8423642Y-25799668D01*
X8423642Y-25799668D02*
X8414118Y-25818716D01*
X8414118Y-25818716D02*
X8404595Y-25828240D01*
X8404595Y-25828240D02*
X8385547Y-25837764D01*
X8385547Y-25837764D02*
X8366499Y-25837764D01*
X8366499Y-25837764D02*
X8347452Y-25828240D01*
X8347452Y-25828240D02*
X8337928Y-25818716D01*
X8337928Y-25818716D02*
X8328404Y-25799668D01*
X8328404Y-25799668D02*
X8318880Y-25761573D01*
X8318880Y-25761573D02*
X8318880Y-25713954D01*
X8318880Y-25713954D02*
X8328404Y-25675859D01*
X8328404Y-25675859D02*
X8337928Y-25656811D01*
X8337928Y-25656811D02*
X8347452Y-25647288D01*
X8347452Y-25647288D02*
X8366499Y-25637764D01*
X8509356Y-25637764D02*
X8509356Y-25675859D01*
X8585547Y-25637764D02*
X8585547Y-25675859D01*
X8880785Y-25913954D02*
X8871261Y-25904430D01*
X8871261Y-25904430D02*
X8852214Y-25875859D01*
X8852214Y-25875859D02*
X8842690Y-25856811D01*
X8842690Y-25856811D02*
X8833166Y-25828240D01*
X8833166Y-25828240D02*
X8823642Y-25780621D01*
X8823642Y-25780621D02*
X8823642Y-25742526D01*
X8823642Y-25742526D02*
X8833166Y-25694907D01*
X8833166Y-25694907D02*
X8842690Y-25666335D01*
X8842690Y-25666335D02*
X8852214Y-25647288D01*
X8852214Y-25647288D02*
X8871261Y-25618716D01*
X8871261Y-25618716D02*
X8880785Y-25609192D01*
X9061737Y-25837764D02*
X8947452Y-25837764D01*
X9004595Y-25837764D02*
X9004595Y-25637764D01*
X9004595Y-25637764D02*
X8985547Y-25666335D01*
X8985547Y-25666335D02*
X8966499Y-25685383D01*
X8966499Y-25685383D02*
X8947452Y-25694907D01*
X9185547Y-25637764D02*
X9204595Y-25637764D01*
X9204595Y-25637764D02*
X9223642Y-25647288D01*
X9223642Y-25647288D02*
X9233166Y-25656811D01*
X9233166Y-25656811D02*
X9242690Y-25675859D01*
X9242690Y-25675859D02*
X9252214Y-25713954D01*
X9252214Y-25713954D02*
X9252214Y-25761573D01*
X9252214Y-25761573D02*
X9242690Y-25799668D01*
X9242690Y-25799668D02*
X9233166Y-25818716D01*
X9233166Y-25818716D02*
X9223642Y-25828240D01*
X9223642Y-25828240D02*
X9204595Y-25837764D01*
X9204595Y-25837764D02*
X9185547Y-25837764D01*
X9185547Y-25837764D02*
X9166499Y-25828240D01*
X9166499Y-25828240D02*
X9156976Y-25818716D01*
X9156976Y-25818716D02*
X9147452Y-25799668D01*
X9147452Y-25799668D02*
X9137928Y-25761573D01*
X9137928Y-25761573D02*
X9137928Y-25713954D01*
X9137928Y-25713954D02*
X9147452Y-25675859D01*
X9147452Y-25675859D02*
X9156976Y-25656811D01*
X9156976Y-25656811D02*
X9166499Y-25647288D01*
X9166499Y-25647288D02*
X9185547Y-25637764D01*
X9423642Y-25704430D02*
X9423642Y-25837764D01*
X9376023Y-25628240D02*
X9328404Y-25771097D01*
X9328404Y-25771097D02*
X9452214Y-25771097D01*
X9680785Y-25837764D02*
X9680785Y-25637764D01*
X9766499Y-25837764D02*
X9766499Y-25733002D01*
X9766499Y-25733002D02*
X9756976Y-25713954D01*
X9756976Y-25713954D02*
X9737928Y-25704430D01*
X9737928Y-25704430D02*
X9709357Y-25704430D01*
X9709357Y-25704430D02*
X9690309Y-25713954D01*
X9690309Y-25713954D02*
X9680785Y-25723478D01*
X9890309Y-25837764D02*
X9871261Y-25828240D01*
X9871261Y-25828240D02*
X9861738Y-25818716D01*
X9861738Y-25818716D02*
X9852214Y-25799668D01*
X9852214Y-25799668D02*
X9852214Y-25742526D01*
X9852214Y-25742526D02*
X9861738Y-25723478D01*
X9861738Y-25723478D02*
X9871261Y-25713954D01*
X9871261Y-25713954D02*
X9890309Y-25704430D01*
X9890309Y-25704430D02*
X9918880Y-25704430D01*
X9918880Y-25704430D02*
X9937928Y-25713954D01*
X9937928Y-25713954D02*
X9947452Y-25723478D01*
X9947452Y-25723478D02*
X9956976Y-25742526D01*
X9956976Y-25742526D02*
X9956976Y-25799668D01*
X9956976Y-25799668D02*
X9947452Y-25818716D01*
X9947452Y-25818716D02*
X9937928Y-25828240D01*
X9937928Y-25828240D02*
X9918880Y-25837764D01*
X9918880Y-25837764D02*
X9890309Y-25837764D01*
X10071261Y-25837764D02*
X10052214Y-25828240D01*
X10052214Y-25828240D02*
X10042690Y-25809192D01*
X10042690Y-25809192D02*
X10042690Y-25637764D01*
X10223642Y-25828240D02*
X10204595Y-25837764D01*
X10204595Y-25837764D02*
X10166499Y-25837764D01*
X10166499Y-25837764D02*
X10147452Y-25828240D01*
X10147452Y-25828240D02*
X10137928Y-25809192D01*
X10137928Y-25809192D02*
X10137928Y-25733002D01*
X10137928Y-25733002D02*
X10147452Y-25713954D01*
X10147452Y-25713954D02*
X10166499Y-25704430D01*
X10166499Y-25704430D02*
X10204595Y-25704430D01*
X10204595Y-25704430D02*
X10223642Y-25713954D01*
X10223642Y-25713954D02*
X10233166Y-25733002D01*
X10233166Y-25733002D02*
X10233166Y-25752049D01*
X10233166Y-25752049D02*
X10137928Y-25771097D01*
X10309357Y-25828240D02*
X10328404Y-25837764D01*
X10328404Y-25837764D02*
X10366499Y-25837764D01*
X10366499Y-25837764D02*
X10385547Y-25828240D01*
X10385547Y-25828240D02*
X10395071Y-25809192D01*
X10395071Y-25809192D02*
X10395071Y-25799668D01*
X10395071Y-25799668D02*
X10385547Y-25780621D01*
X10385547Y-25780621D02*
X10366499Y-25771097D01*
X10366499Y-25771097D02*
X10337928Y-25771097D01*
X10337928Y-25771097D02*
X10318880Y-25761573D01*
X10318880Y-25761573D02*
X10309357Y-25742526D01*
X10309357Y-25742526D02*
X10309357Y-25733002D01*
X10309357Y-25733002D02*
X10318880Y-25713954D01*
X10318880Y-25713954D02*
X10337928Y-25704430D01*
X10337928Y-25704430D02*
X10366499Y-25704430D01*
X10366499Y-25704430D02*
X10385547Y-25713954D01*
X10461738Y-25913954D02*
X10471261Y-25904430D01*
X10471261Y-25904430D02*
X10490309Y-25875859D01*
X10490309Y-25875859D02*
X10499833Y-25856811D01*
X10499833Y-25856811D02*
X10509357Y-25828240D01*
X10509357Y-25828240D02*
X10518880Y-25780621D01*
X10518880Y-25780621D02*
X10518880Y-25742526D01*
X10518880Y-25742526D02*
X10509357Y-25694907D01*
X10509357Y-25694907D02*
X10499833Y-25666335D01*
X10499833Y-25666335D02*
X10490309Y-25647288D01*
X10490309Y-25647288D02*
X10471261Y-25618716D01*
X10471261Y-25618716D02*
X10461738Y-25609192D01*
X10823642Y-25913954D02*
X10814119Y-25904430D01*
X10814119Y-25904430D02*
X10795071Y-25875859D01*
X10795071Y-25875859D02*
X10785547Y-25856811D01*
X10785547Y-25856811D02*
X10776023Y-25828240D01*
X10776023Y-25828240D02*
X10766500Y-25780621D01*
X10766500Y-25780621D02*
X10766500Y-25742526D01*
X10766500Y-25742526D02*
X10776023Y-25694907D01*
X10776023Y-25694907D02*
X10785547Y-25666335D01*
X10785547Y-25666335D02*
X10795071Y-25647288D01*
X10795071Y-25647288D02*
X10814119Y-25618716D01*
X10814119Y-25618716D02*
X10823642Y-25609192D01*
X10899833Y-25704430D02*
X10899833Y-25837764D01*
X10899833Y-25723478D02*
X10909357Y-25713954D01*
X10909357Y-25713954D02*
X10928404Y-25704430D01*
X10928404Y-25704430D02*
X10956976Y-25704430D01*
X10956976Y-25704430D02*
X10976023Y-25713954D01*
X10976023Y-25713954D02*
X10985547Y-25733002D01*
X10985547Y-25733002D02*
X10985547Y-25837764D01*
X11109357Y-25837764D02*
X11090309Y-25828240D01*
X11090309Y-25828240D02*
X11080785Y-25818716D01*
X11080785Y-25818716D02*
X11071261Y-25799668D01*
X11071261Y-25799668D02*
X11071261Y-25742526D01*
X11071261Y-25742526D02*
X11080785Y-25723478D01*
X11080785Y-25723478D02*
X11090309Y-25713954D01*
X11090309Y-25713954D02*
X11109357Y-25704430D01*
X11109357Y-25704430D02*
X11137928Y-25704430D01*
X11137928Y-25704430D02*
X11156976Y-25713954D01*
X11156976Y-25713954D02*
X11166500Y-25723478D01*
X11166500Y-25723478D02*
X11176023Y-25742526D01*
X11176023Y-25742526D02*
X11176023Y-25799668D01*
X11176023Y-25799668D02*
X11166500Y-25818716D01*
X11166500Y-25818716D02*
X11156976Y-25828240D01*
X11156976Y-25828240D02*
X11137928Y-25837764D01*
X11137928Y-25837764D02*
X11109357Y-25837764D01*
X11233166Y-25704430D02*
X11309357Y-25704430D01*
X11261738Y-25637764D02*
X11261738Y-25809192D01*
X11261738Y-25809192D02*
X11271261Y-25828240D01*
X11271261Y-25828240D02*
X11290309Y-25837764D01*
X11290309Y-25837764D02*
X11309357Y-25837764D01*
X11528404Y-25704430D02*
X11528404Y-25904430D01*
X11528404Y-25713954D02*
X11547452Y-25704430D01*
X11547452Y-25704430D02*
X11585547Y-25704430D01*
X11585547Y-25704430D02*
X11604595Y-25713954D01*
X11604595Y-25713954D02*
X11614119Y-25723478D01*
X11614119Y-25723478D02*
X11623642Y-25742526D01*
X11623642Y-25742526D02*
X11623642Y-25799668D01*
X11623642Y-25799668D02*
X11614119Y-25818716D01*
X11614119Y-25818716D02*
X11604595Y-25828240D01*
X11604595Y-25828240D02*
X11585547Y-25837764D01*
X11585547Y-25837764D02*
X11547452Y-25837764D01*
X11547452Y-25837764D02*
X11528404Y-25828240D01*
X11737928Y-25837764D02*
X11718880Y-25828240D01*
X11718880Y-25828240D02*
X11709357Y-25809192D01*
X11709357Y-25809192D02*
X11709357Y-25637764D01*
X11899833Y-25837764D02*
X11899833Y-25733002D01*
X11899833Y-25733002D02*
X11890309Y-25713954D01*
X11890309Y-25713954D02*
X11871261Y-25704430D01*
X11871261Y-25704430D02*
X11833166Y-25704430D01*
X11833166Y-25704430D02*
X11814119Y-25713954D01*
X11899833Y-25828240D02*
X11880785Y-25837764D01*
X11880785Y-25837764D02*
X11833166Y-25837764D01*
X11833166Y-25837764D02*
X11814119Y-25828240D01*
X11814119Y-25828240D02*
X11804595Y-25809192D01*
X11804595Y-25809192D02*
X11804595Y-25790145D01*
X11804595Y-25790145D02*
X11814119Y-25771097D01*
X11814119Y-25771097D02*
X11833166Y-25761573D01*
X11833166Y-25761573D02*
X11880785Y-25761573D01*
X11880785Y-25761573D02*
X11899833Y-25752049D01*
X11966500Y-25704430D02*
X12042690Y-25704430D01*
X11995071Y-25637764D02*
X11995071Y-25809192D01*
X11995071Y-25809192D02*
X12004595Y-25828240D01*
X12004595Y-25828240D02*
X12023642Y-25837764D01*
X12023642Y-25837764D02*
X12042690Y-25837764D01*
X12185547Y-25828240D02*
X12166500Y-25837764D01*
X12166500Y-25837764D02*
X12128404Y-25837764D01*
X12128404Y-25837764D02*
X12109357Y-25828240D01*
X12109357Y-25828240D02*
X12099833Y-25809192D01*
X12099833Y-25809192D02*
X12099833Y-25733002D01*
X12099833Y-25733002D02*
X12109357Y-25713954D01*
X12109357Y-25713954D02*
X12128404Y-25704430D01*
X12128404Y-25704430D02*
X12166500Y-25704430D01*
X12166500Y-25704430D02*
X12185547Y-25713954D01*
X12185547Y-25713954D02*
X12195071Y-25733002D01*
X12195071Y-25733002D02*
X12195071Y-25752049D01*
X12195071Y-25752049D02*
X12099833Y-25771097D01*
X12366500Y-25837764D02*
X12366500Y-25637764D01*
X12366500Y-25828240D02*
X12347452Y-25837764D01*
X12347452Y-25837764D02*
X12309357Y-25837764D01*
X12309357Y-25837764D02*
X12290309Y-25828240D01*
X12290309Y-25828240D02*
X12280785Y-25818716D01*
X12280785Y-25818716D02*
X12271261Y-25799668D01*
X12271261Y-25799668D02*
X12271261Y-25742526D01*
X12271261Y-25742526D02*
X12280785Y-25723478D01*
X12280785Y-25723478D02*
X12290309Y-25713954D01*
X12290309Y-25713954D02*
X12309357Y-25704430D01*
X12309357Y-25704430D02*
X12347452Y-25704430D01*
X12347452Y-25704430D02*
X12366500Y-25713954D01*
X12442690Y-25913954D02*
X12452214Y-25904430D01*
X12452214Y-25904430D02*
X12471261Y-25875859D01*
X12471261Y-25875859D02*
X12480785Y-25856811D01*
X12480785Y-25856811D02*
X12490309Y-25828240D01*
X12490309Y-25828240D02*
X12499833Y-25780621D01*
X12499833Y-25780621D02*
X12499833Y-25742526D01*
X12499833Y-25742526D02*
X12490309Y-25694907D01*
X12490309Y-25694907D02*
X12480785Y-25666335D01*
X12480785Y-25666335D02*
X12471261Y-25647288D01*
X12471261Y-25647288D02*
X12452214Y-25618716D01*
X12452214Y-25618716D02*
X12442690Y-25609192D01*
M02*
