G04 #@! TF.GenerationSoftware,KiCad,Pcbnew,7.0.1*
G04 #@! TF.CreationDate,2024-09-21T18:31:01-05:00*
G04 #@! TF.ProjectId,C128DKEYBOARD,43313238-444b-4455-9942-4f4152442e6b,3.3*
G04 #@! TF.SameCoordinates,Original*
G04 #@! TF.FileFunction,Other,User*
%FSLAX46Y46*%
G04 Gerber Fmt 4.6, Leading zero omitted, Abs format (unit mm)*
G04 Created by KiCad (PCBNEW 7.0.1) date 2024-09-21 18:31:01*
%MOMM*%
%LPD*%
G01*
G04 APERTURE LIST*
%ADD10C,0.050000*%
G04 APERTURE END LIST*
D10*
X428667200Y-140883800D02*
X438387200Y-140883800D01*
X428667200Y-137883800D02*
X428667200Y-140883800D01*
X438387200Y-137883800D02*
X428667200Y-137883800D01*
X438387200Y-140883800D02*
X438387200Y-137883800D01*
X488508800Y-148569400D02*
X488508800Y-130119400D01*
X477808800Y-148569400D02*
X488508800Y-148569400D01*
X477808800Y-130119400D02*
X477808800Y-148569400D01*
X488508800Y-130119400D02*
X477808800Y-130119400D01*
X428641800Y-145695800D02*
X438361800Y-145695800D01*
X438361800Y-142695800D02*
X428641800Y-142695800D01*
X438361800Y-145695800D02*
X438361800Y-142695800D01*
X428641800Y-142695800D02*
X428641800Y-145695800D01*
X442777200Y-138787800D02*
X442777200Y-148587800D01*
X468727200Y-148587800D02*
X468727200Y-138787800D01*
X468727200Y-138787800D02*
X442777200Y-138787800D01*
X442777200Y-148587800D02*
X468727200Y-148587800D01*
X93021800Y-244896200D02*
X93021800Y-240396200D01*
X93021800Y-240396200D02*
X88171800Y-240396200D01*
X88171800Y-240396200D02*
X88171800Y-244896200D01*
X88171800Y-244896200D02*
X93021800Y-244896200D01*
X407229600Y-145568800D02*
X416949600Y-145568800D01*
X416949600Y-145568800D02*
X416949600Y-142568800D01*
X407229600Y-142568800D02*
X407229600Y-145568800D01*
X416949600Y-142568800D02*
X407229600Y-142568800D01*
X427617200Y-137883800D02*
X417897200Y-137883800D01*
X427617200Y-140883800D02*
X427617200Y-137883800D01*
X417897200Y-140883800D02*
X427617200Y-140883800D01*
X417897200Y-137883800D02*
X417897200Y-140883800D01*
X430419200Y-127684400D02*
X422919200Y-127684400D01*
X422919200Y-130684400D02*
X430419200Y-130684400D01*
X430419200Y-130684400D02*
X430419200Y-127684400D01*
X422919200Y-127684400D02*
X422919200Y-130684400D01*
X418126200Y-142619600D02*
X418126200Y-145619600D01*
X418126200Y-145619600D02*
X427846200Y-145619600D01*
X427846200Y-142619600D02*
X418126200Y-142619600D01*
X427846200Y-145619600D02*
X427846200Y-142619600D01*
X411242800Y-130735200D02*
X420962800Y-130735200D01*
X420962800Y-127735200D02*
X411242800Y-127735200D01*
X420962800Y-130735200D02*
X420962800Y-127735200D01*
X411242800Y-127735200D02*
X411242800Y-130735200D01*
X66814000Y-140705400D02*
X66814000Y-136205400D01*
X61964000Y-140705400D02*
X66814000Y-140705400D01*
X66814000Y-136205400D02*
X61964000Y-136205400D01*
X61964000Y-136205400D02*
X61964000Y-140705400D01*
X416847200Y-140883800D02*
X416847200Y-137883800D01*
X407127200Y-140883800D02*
X416847200Y-140883800D01*
X416847200Y-137883800D02*
X407127200Y-137883800D01*
X407127200Y-137883800D02*
X407127200Y-140883800D01*
X254724600Y-240320000D02*
X254724600Y-244820000D01*
X259574600Y-240320000D02*
X254724600Y-240320000D01*
X254724600Y-244820000D02*
X259574600Y-244820000D01*
X259574600Y-244820000D02*
X259574600Y-240320000D01*
X223965200Y-140781600D02*
X228815200Y-140781600D01*
X228815200Y-136281600D02*
X223965200Y-136281600D01*
X223965200Y-136281600D02*
X223965200Y-140781600D01*
X228815200Y-140781600D02*
X228815200Y-136281600D01*
M02*
