M48
; DRILL file {KiCad 7.0.1} date Sat Sep 21 18:30:57 2024
; FORMAT={-:-/ absolute / inch / decimal}
; #@! TF.CreationDate,2024-09-21T18:30:57-05:00
; #@! TF.GenerationSoftware,Kicad,Pcbnew,7.0.1
; #@! TF.FileFunction,Plated,1,2,PTH
FMAT,2
INCH
; #@! TA.AperFunction,Plated,PTH,ViaDrill
T1C0.0157
; #@! TA.AperFunction,Plated,PTH,ComponentDrill
T2C0.0315
; #@! TA.AperFunction,Plated,PTH,ComponentDrill
T3C0.0354
; #@! TA.AperFunction,Plated,PTH,ComponentDrill
T4C0.0394
; #@! TA.AperFunction,Plated,PTH,ComponentDrill
T5C0.0590
%
G90
G05
T1
X4.2568Y-8.2318
X4.5598Y-7.7336
X7.0079Y-7.7296
X8.1459Y-6.2064
X9.0967Y-5.7502
X9.1936Y-5.6848
X11.0199Y-7.9555
X11.5435Y-7.2872
X11.6777Y-6.5307
X11.7059Y-6.0218
X11.7113Y-6.5
X12.9695Y-8.7592
X13.9615Y-7.7595
X13.9873Y-8.6805
X14.0371Y-5.3618
X14.1975Y-5.401
X14.6667Y-5.5086
X15.1685Y-6.0104
X16.494Y-5.23
X16.7638Y-5.0702
X17.1568Y-5.6421
X17.1753Y-5.4396
X17.315Y-5.86
X17.38Y-5.725
X18.1671Y-5.0396
X18.199Y-5.6412
X18.4848Y-6.7979
X18.5032Y-5.5751
X18.5218Y-5.6162
T2
X16.07Y-5.4876
X16.074Y-5.672
X16.232Y-5.088
X16.37Y-5.4876
X16.374Y-5.672
X16.494Y-5.4876
X16.503Y-5.674
X16.532Y-5.088
X16.6996Y-5.086
X16.794Y-5.4876
X16.803Y-5.674
X16.8964Y-5.086
X16.917Y-5.677
X16.918Y-5.4876
X17.217Y-5.677
X17.218Y-5.4876
X17.4932Y-5.5066
X17.4932Y-5.8066
X17.5932Y-5.5066
X17.5932Y-5.8066
X17.6932Y-5.5066
X17.6932Y-5.8066
X17.7932Y-5.5066
X17.7932Y-5.8066
X17.8932Y-5.5066
X17.8932Y-5.8066
X17.9932Y-5.5066
X17.9932Y-5.8066
X18.0932Y-5.5066
X18.0932Y-5.8066
X18.1932Y-5.5066
X18.1932Y-5.8066
X18.2932Y-5.5066
X18.2932Y-5.8066
X18.3932Y-5.5066
X18.3932Y-5.8066
X18.8724Y-5.1858
X18.8724Y-5.2858
X18.8724Y-5.3858
X18.8724Y-5.4858
X18.8724Y-5.5858
X18.8724Y-5.6858
X18.8724Y-5.7858
X19.1724Y-5.1858
X19.1724Y-5.2858
X19.1724Y-5.3858
X19.1724Y-5.4858
X19.1724Y-5.5858
X19.1724Y-5.6858
X19.1724Y-5.7858
T3
X2.4848Y-5.451
X2.5848Y-5.451
X3.5166Y-9.553
X3.6166Y-9.553
X8.8628Y-5.454
X8.9628Y-5.454
X10.0738Y-9.55
X10.1738Y-9.55
T4
X17.3195Y-5.3258
X17.374Y-5.2258
X17.4285Y-5.3258
X17.4831Y-5.2258
X17.5376Y-5.3258
X17.5921Y-5.2258
X17.6466Y-5.3258
X17.7012Y-5.2258
X17.7557Y-5.3258
X17.8102Y-5.2258
X17.8647Y-5.3258
X17.9193Y-5.2258
X17.9738Y-5.3258
X18.0283Y-5.2258
X18.0829Y-5.3258
X18.1374Y-5.2258
X18.1919Y-5.3258
X18.2464Y-5.2258
X18.301Y-5.3258
X18.3555Y-5.2258
X18.41Y-5.3258
X18.4646Y-5.2258
X18.5191Y-5.3258
X18.5736Y-5.2258
X18.6281Y-5.3258
T5
X2.3825Y-5.165
X2.3825Y-6.265
X2.476Y-9.265
X2.5697Y-7.015
X2.6325Y-5.065
X2.6325Y-6.165
X2.6635Y-7.765
X2.726Y-9.165
X2.8197Y-6.915
X2.851Y-8.515
X2.9135Y-7.665
X3.101Y-8.415
X3.1325Y-6.265
X3.3825Y-6.165
X3.4134Y-9.265
X3.5075Y-7.015
X3.6634Y-9.165
X3.6945Y-7.765
X3.7575Y-6.915
X3.8825Y-5.165
X3.8825Y-6.265
X3.9445Y-7.665
X4.0695Y-8.515
X4.1325Y-5.065
X4.1325Y-6.165
X4.2575Y-7.015
X4.3195Y-8.415
X4.3508Y-9.265
X4.4445Y-7.765
X4.5075Y-6.915
X4.6008Y-9.165
X4.6325Y-5.165
X4.6325Y-6.265
X4.6945Y-7.665
X4.8195Y-8.515
X4.8825Y-5.065
X4.8825Y-6.165
X5.0075Y-7.015
X5.0695Y-8.415
X5.1945Y-7.765
X5.2575Y-6.915
X5.3825Y-5.165
X5.3825Y-6.265
X5.4445Y-7.665
X5.5695Y-8.515
X5.6325Y-5.065
X5.6325Y-6.165
X5.7575Y-7.015
X5.8195Y-8.415
X5.9445Y-7.765
X6.0075Y-6.915
X6.1325Y-5.165
X6.1325Y-6.265
X6.1945Y-7.665
X6.3195Y-8.515
X6.3825Y-5.065
X6.3825Y-6.165
X6.5075Y-7.015
X6.5695Y-8.415
X6.6945Y-7.765
X6.7575Y-6.915
X6.8825Y-6.265
X6.9445Y-7.665
X7.0695Y-8.515
X7.1325Y-6.165
X7.1632Y-9.265
X7.2575Y-5.165
X7.2575Y-7.015
X7.3195Y-8.415
X7.4132Y-9.165
X7.4445Y-7.765
X7.5075Y-5.065
X7.5075Y-6.915
X7.6325Y-6.265
X7.6945Y-7.665
X7.8195Y-8.515
X7.8825Y-6.165
X8.0075Y-5.165
X8.0075Y-7.015
X8.0695Y-8.415
X8.1945Y-7.765
X8.2575Y-5.065
X8.2575Y-6.915
X8.3825Y-6.265
X8.4445Y-7.665
X8.5695Y-8.515
X8.6325Y-6.165
X8.7575Y-5.165
X8.7575Y-7.015
X8.8195Y-8.415
X8.9445Y-7.765
X9.0075Y-5.065
X9.0075Y-6.915
X9.1325Y-6.265
X9.1945Y-7.665
X9.3195Y-8.515
X9.3825Y-6.165
X9.5075Y-5.165
X9.5075Y-7.015
X9.5695Y-8.415
X9.6945Y-7.765
X9.7575Y-5.065
X9.7575Y-6.915
X9.8825Y-6.265
X9.9445Y-7.665
X9.9758Y-9.265
X10.0695Y-8.515
X10.1325Y-6.165
X10.2258Y-9.165
X10.2575Y-7.015
X10.3195Y-8.415
X10.4445Y-7.765
X10.5075Y-6.915
X10.6325Y-5.165
X10.6325Y-6.265
X10.6945Y-7.665
X10.8195Y-8.515
X10.8825Y-5.065
X10.8825Y-6.165
X10.9132Y-9.265
X11.0075Y-7.015
X11.0695Y-8.415
X11.1632Y-9.165
X11.1945Y-7.765
X11.2575Y-6.915
X11.3825Y-5.165
X11.3825Y-6.265
X11.4445Y-7.665
X11.6325Y-5.065
X11.6325Y-6.165
X11.7575Y-7.015
X11.8506Y-9.265
X12.0075Y-6.915
X12.1006Y-9.165
X12.1325Y-5.165
X12.2256Y-8.515
X12.3825Y-5.065
X12.4132Y-7.765
X12.4756Y-8.415
X12.5075Y-6.265
X12.6632Y-7.665
X12.6949Y-7.015
X12.7575Y-6.165
X12.788Y-9.265
X12.8825Y-5.165
X12.9449Y-6.915
X13.038Y-9.165
X13.1325Y-5.065
X13.9615Y-5.165
X13.9615Y-6.265
X13.9615Y-7.015
X13.9615Y-9.265
X14.2115Y-5.065
X14.2115Y-6.165
X14.2115Y-6.915
X14.2115Y-9.165
X14.7115Y-5.165
X14.7115Y-6.265
X14.7115Y-7.015
X14.7115Y-8.515
X14.7115Y-9.265
X14.9615Y-5.065
X14.9615Y-6.165
X14.9615Y-6.915
X14.9615Y-8.415
X14.9615Y-9.165
X15.4615Y-5.165
X15.4615Y-6.265
X15.4615Y-7.015
X15.4615Y-9.265
X15.7115Y-5.065
X15.7115Y-6.165
X15.7115Y-6.915
X15.7115Y-9.165
X16.541Y-6.263
X16.541Y-7.013
X16.541Y-7.763
X16.541Y-8.513
X16.791Y-6.163
X16.791Y-6.913
X16.791Y-7.663
X16.791Y-8.413
X16.917Y-9.263
X17.167Y-9.163
X17.291Y-6.263
X17.291Y-7.013
X17.291Y-7.763
X17.291Y-8.513
X17.541Y-6.163
X17.541Y-6.913
X17.541Y-7.663
X17.541Y-8.413
X18.041Y-6.263
X18.041Y-7.013
X18.041Y-7.763
X18.041Y-8.513
X18.041Y-9.263
X18.291Y-6.163
X18.291Y-6.913
X18.291Y-7.663
X18.291Y-8.413
X18.291Y-9.163
X18.7945Y-6.262
X19.0445Y-6.162
X19.0445Y-7.337
X19.0445Y-8.834
X19.1445Y-7.587
X19.1445Y-9.084
T0
M30
